STARTFONT 2.1
COMMENT
COMMENT Converted from OpenType font "RuthlessSketch_Regular.ttf" by "otf2bdf 3.0".
COMMENT
FONT -FreeType-Ruthless Sketch-Medium-R-Normal--33-240-100-100-P-161-ISO10646-1
SIZE 24 100 100
FONTBOUNDINGBOX 39 37 -15 -7
STARTPROPERTIES 19
FOUNDRY "FreeType"
FAMILY_NAME "Ruthless Sketch"
WEIGHT_NAME "Medium"
SLANT "R"
SETWIDTH_NAME "Normal"
ADD_STYLE_NAME ""
PIXEL_SIZE 33
POINT_SIZE 240
RESOLUTION_X 100
RESOLUTION_Y 100
SPACING "P"
AVERAGE_WIDTH 161
CHARSET_REGISTRY "ISO10646"
CHARSET_ENCODING "1"
FONT_ASCENT 30
FONT_DESCENT 6
COPYRIGHT "© 2024 GGBotNet. All Rights Reserved."
_OTF_FONTFILE "RuthlessSketch_Regular.ttf"
_OTF_PSNAME "RuthlessSketch-Regular"
ENDPROPERTIES
CHARS 1105
STARTCHAR 0020
ENCODING 32
SWIDTH 300 0
DWIDTH 10 0
BBX 0 0 0 0
BITMAP
ENDCHAR
STARTCHAR 0021
ENCODING 33
SWIDTH 270 0
DWIDTH 9 0
BBX 8 25 1 0
BITMAP
1F
FF
FF
FF
FF
FE
FE
FE
FE
FE
FE
7E
7E
7C
7C
7C
7C
00
00
1C
7E
7E
7E
7E
3E
ENDCHAR
STARTCHAR 0022
ENCODING 34
SWIDTH 390 0
DWIDTH 13 0
BBX 12 12 1 12
BITMAP
F1E0
F1F0
F1F0
F1F0
F1E0
F1E0
F1E0
F1E0
F0E0
60E0
60C0
60C0
ENDCHAR
STARTCHAR 0023
ENCODING 35
SWIDTH 510 0
DWIDTH 17 0
BBX 16 23 1 1
BITMAP
078E
078E
078E
0F1C
0F1C
0FFC
FFFF
FFFF
FFFF
FFFE
1E78
1C78
3FFF
FFFF
FFFF
FFFF
FFFE
71E0
71E0
71E0
E1E0
E3C0
A0C0
ENDCHAR
STARTCHAR 0024
ENCODING 36
SWIDTH 480 0
DWIDTH 16 0
BBX 15 31 1 -4
BITMAP
0780
07C0
07C0
0780
07F0
1FF8
7FFE
7FFE
FFFE
FFFE
FFCE
FFC0
7FC0
7FC0
3FF0
0FF8
07FC
07FC
07FC
7FFC
FFFC
FFFC
FFF8
FFF8
FFF8
FFF0
1FC0
07C0
07C0
0780
0180
ENDCHAR
STARTCHAR 0025
ENCODING 37
SWIDTH 540 0
DWIDTH 18 0
BBX 17 23 1 0
BITMAP
000600
3C0F00
7C1E00
EE1E00
C63C00
C73C00
C77800
EE7800
FEF000
7CF000
11E000
03CC00
03DF00
07BF00
073B80
0F7180
1E7180
1E7180
3C3B80
383F80
781E00
700000
200000
ENDCHAR
STARTCHAR 0026
ENCODING 38
SWIDTH 510 0
DWIDTH 17 0
BBX 16 22 1 0
BITMAP
1F00
7F80
7FC0
7FC0
73C0
73C0
7F80
3F80
3F9E
7F9E
7FDC
FFFC
FBFC
F1FC
F0FC
F07C
F87E
FFFE
FFFF
7FF7
3FF3
1FC2
ENDCHAR
STARTCHAR 0027
ENCODING 39
SWIDTH 210 0
DWIDTH 7 0
BBX 6 12 1 12
BITMAP
F8
F8
FC
FC
FC
F8
F8
F8
F0
70
70
70
ENDCHAR
STARTCHAR 0028
ENCODING 40
SWIDTH 330 0
DWIDTH 11 0
BBX 10 32 1 -5
BITMAP
0300
0780
0FC0
0F80
1F00
3E00
3C00
7C00
7800
F000
F000
F000
F000
F000
F000
F000
F000
F000
F000
F000
F000
F000
7000
7800
7C00
3C00
1E00
1F00
0F80
07C0
0380
0300
ENDCHAR
STARTCHAR 0029
ENCODING 41
SWIDTH 330 0
DWIDTH 11 0
BBX 10 32 1 -5
BITMAP
2000
F000
F800
7C00
3E00
1E00
0F00
0F00
0780
0780
03C0
03C0
03C0
03C0
03C0
03C0
03C0
03C0
03C0
03C0
03C0
03C0
0780
0F80
0F00
0F00
1E00
7E00
7C00
F800
7000
1000
ENDCHAR
STARTCHAR 002A
ENCODING 42
SWIDTH 300 0
DWIDTH 10 0
BBX 9 9 1 15
BITMAP
1800
D980
FF80
7E00
1C00
3E00
FB80
D980
1800
ENDCHAR
STARTCHAR 002B
ENCODING 43
SWIDTH 450 0
DWIDTH 15 0
BBX 14 15 1 4
BITMAP
0780
0780
0780
0780
0780
FFFC
FFFC
FFFC
FFFC
FFC4
0780
0780
0780
0780
0780
ENDCHAR
STARTCHAR 002C
ENCODING 44
SWIDTH 210 0
DWIDTH 7 0
BBX 8 11 -1 -6
BITMAP
1C
3E
3E
3F
3E
1E
1C
7C
F8
78
30
ENDCHAR
STARTCHAR 002D
ENCODING 45
SWIDTH 390 0
DWIDTH 13 0
BBX 11 5 1 9
BITMAP
FFE0
FFE0
FFE0
FFE0
FFE0
ENDCHAR
STARTCHAR 002E
ENCODING 46
SWIDTH 210 0
DWIDTH 7 0
BBX 6 6 1 0
BITMAP
70
F8
FC
FC
F8
78
ENDCHAR
STARTCHAR 002F
ENCODING 47
SWIDTH 450 0
DWIDTH 15 0
BBX 14 27 1 -2
BITMAP
0020
007C
00F8
00F8
01F0
01F0
01F0
03E0
03E0
07E0
07C0
07C0
0FC0
0F80
1F80
1F80
3F00
3F00
3F00
7F00
7E00
7E00
FE00
FC00
FC00
FC00
F800
ENDCHAR
STARTCHAR 0030
ENCODING 48
SWIDTH 390 0
DWIDTH 13 0
BBX 12 23 1 0
BITMAP
3E00
3F00
7F00
7F80
7FC0
FFE0
FFE0
F9E0
F9F0
F1F0
F0F0
F0F0
F9F0
F9F0
FFF0
FFF0
7FE0
7FE0
7FE0
3FE0
3FC0
1FC0
0780
ENDCHAR
STARTCHAR 0031
ENCODING 49
SWIDTH 420 0
DWIDTH 14 0
BBX 13 22 1 1
BITMAP
0380
07E0
1FE0
3FE0
FFE0
FFE0
7FE0
37E0
17E0
07E0
07E0
07E0
0FE0
0FE0
0FE0
0FF0
0FF0
0FF0
0FF0
1FF0
1FF0
03F8
ENDCHAR
STARTCHAR 0032
ENCODING 50
SWIDTH 510 0
DWIDTH 17 0
BBX 16 23 1 0
BITMAP
0F00
3FC0
7FF0
FFF0
FFF0
FFF0
70F0
21F0
01F0
01E0
01E0
03E0
03C0
07C7
07FE
0FFE
1FFE
1FFE
3FFE
7FFC
FFFC
3FE0
0300
ENDCHAR
STARTCHAR 0033
ENCODING 51
SWIDTH 450 0
DWIDTH 15 0
BBX 14 23 1 0
BITMAP
0800
7F80
FF80
7F80
0780
0F00
0F00
1F00
3FC0
3FF0
7FF8
3FF8
00F8
003C
003C
003C
003C
007C
E3FC
FFF8
FFF0
3FE0
0F80
ENDCHAR
STARTCHAR 0034
ENCODING 52
SWIDTH 420 0
DWIDTH 14 0
BBX 13 23 1 0
BITMAP
0200
1E00
1E00
3E00
3E00
3C00
3C00
7C00
7C00
7FF8
FFF8
FFF8
FFF8
FFE0
83C0
03C0
07C0
07C0
07C0
0FC0
0FC0
0FE0
1FE0
ENDCHAR
STARTCHAR 0035
ENCODING 53
SWIDTH 480 0
DWIDTH 16 0
BBX 15 23 1 0
BITMAP
00F8
1FF8
1FF8
1FF0
3E00
3E00
3F00
3FC0
3FE0
7FF0
67F8
01FC
00FC
00FC
007E
007E
007E
80FC
E1FC
FFFC
FFF8
3FF0
0FE0
ENDCHAR
STARTCHAR 0036
ENCODING 54
SWIDTH 480 0
DWIDTH 16 0
BBX 15 24 1 -1
BITMAP
00F0
03F8
07FC
1FF8
3F00
3E00
7C00
FC00
FC00
FFE0
FFF0
FFF8
FFFC
FC7E
F83E
F83E
F83E
F83E
F87E
7C7C
7FFC
3FF8
1FF0
0380
ENDCHAR
STARTCHAR 0037
ENCODING 55
SWIDTH 420 0
DWIDTH 14 0
BBX 12 22 1 1
BITMAP
0070
FFF0
FFF0
FFF0
FFF0
FFF0
C1F0
01F0
03F0
07F0
07E0
0FE0
0FE0
1FC0
1FC0
3FC0
3FC0
7F80
7F80
FF80
FF80
F800
ENDCHAR
STARTCHAR 0038
ENCODING 56
SWIDTH 480 0
DWIDTH 16 0
BBX 15 23 1 1
BITMAP
0FE0
1FE0
3FF0
3FF0
3CF0
3CF0
1FE0
1FE0
3FE0
7FF0
7FF8
7FFC
F8FC
F87E
F83E
F83E
FC3E
FFFE
FFFE
7FFC
3FFC
1FF8
03C0
ENDCHAR
STARTCHAR 0039
ENCODING 57
SWIDTH 450 0
DWIDTH 15 0
BBX 14 22 1 0
BITMAP
7FE0
7FF8
FFF8
FDF8
F87C
F07C
F07C
F8FC
FFFC
FFFC
7FFC
3FFC
007C
007C
007C
C07C
F1FC
7FF8
7FF8
7FF8
3FF0
07C0
ENDCHAR
STARTCHAR 003A
ENCODING 58
SWIDTH 210 0
DWIDTH 7 0
BBX 6 16 1 0
BITMAP
F8
F8
FC
FC
F8
60
00
00
00
00
70
F8
FC
FC
F8
78
ENDCHAR
STARTCHAR 003B
ENCODING 59
SWIDTH 210 0
DWIDTH 7 0
BBX 8 21 -1 -6
BITMAP
1E
3E
3F
3E
3E
0C
00
00
00
00
1C
3E
3E
3F
3E
1E
1C
7C
F8
78
30
ENDCHAR
STARTCHAR 003C
ENCODING 60
SWIDTH 450 0
DWIDTH 15 0
BBX 14 19 1 2
BITMAP
0004
001C
007C
01FC
07FC
1FFC
FFFC
FFF0
FE00
FC00
FFC0
7FF8
3FFC
0FFC
07FC
01FC
00FC
003C
0004
ENDCHAR
STARTCHAR 003D
ENCODING 61
SWIDTH 480 0
DWIDTH 16 0
BBX 15 12 1 6
BITMAP
01FC
FFFC
FFFE
FFFE
FFFC
0000
0000
003C
FFFC
FFFC
FFFC
FFFC
ENDCHAR
STARTCHAR 003E
ENCODING 62
SWIDTH 450 0
DWIDTH 15 0
BBX 14 19 1 2
BITMAP
C000
F000
FC00
FE00
FF80
FFC0
FFF0
3FF8
07FC
00FC
03FC
7FFC
FFF8
FFC0
FF00
FE00
F800
E000
8000
ENDCHAR
STARTCHAR 003F
ENCODING 63
SWIDTH 450 0
DWIDTH 15 0
BBX 14 24 1 0
BITMAP
1F80
7FF8
FFF8
FFFC
FFFC
F8FC
E0FC
007C
00FC
00FC
07F8
0FF8
1FE0
1FC0
1F00
1F00
1F00
0000
0000
0F00
1F80
1F80
1F80
0F00
ENDCHAR
STARTCHAR 0040
ENCODING 64
SWIDTH 660 0
DWIDTH 22 0
BBX 21 29 1 -5
BITMAP
01FC00
07FF00
1FFFC0
3FFFC0
7FFFE0
7FFFE0
7FC7E0
FE03F0
FC0FF0
F83FF0
F87FF8
F8F9F8
F9F0F8
F9E0F8
F9E0F8
F9E1F0
F9F3F0
F8FFF0
F8FFE0
FC7F80
FC1E00
FE0000
7E0380
7FFFC0
7FFFE0
3FFFC0
3FFF80
0FFF00
01FC00
ENDCHAR
STARTCHAR 0041
ENCODING 65
SWIDTH 630 0
DWIDTH 21 0
BBX 19 24 1 -1
BITMAP
001000
00F000
00F800
00F800
01F800
01F800
01F800
03FC00
03FC00
07FC00
07FE00
07FE00
0F7E00
0E7F00
1E3F00
1C3F00
3FFF80
3FFF80
3FBFC0
7C3FC0
7C3FC0
FC1FE0
FC1FE0
E00000
ENDCHAR
STARTCHAR 0042
ENCODING 66
SWIDTH 510 0
DWIDTH 17 0
BBX 16 23 1 0
BITMAP
3F00
FFE0
FFF0
FFF0
FFF8
FDF8
FC78
FC78
7C78
7EF0
7FE0
7FF8
7FFC
7FFE
7E3E
7E3F
7F3F
3F7F
3FFE
3FFE
3FFC
3FF0
1E00
ENDCHAR
STARTCHAR 0043
ENCODING 67
SWIDTH 480 0
DWIDTH 16 0
BBX 15 23 1 0
BITMAP
00C0
07F8
1FFC
3FFE
7FFE
FFFE
FFFC
FF00
FE00
FC00
FC00
FC00
FE00
FFFC
FFFE
FFFE
FFFE
7FFC
7FFE
3FFC
3FF8
0FF0
00C0
ENDCHAR
STARTCHAR 0044
ENCODING 68
SWIDTH 450 0
DWIDTH 15 0
BBX 14 23 1 0
BITMAP
7C00
FF00
FFC0
FFE0
FFF0
FFF0
FDF8
FC78
FC3C
FC7C
FC7C
FC7C
FCF8
FDF8
7FF0
7FF0
7FE0
7FE0
3FC0
3F80
3F00
3C00
1000
ENDCHAR
STARTCHAR 0045
ENCODING 69
SWIDTH 480 0
DWIDTH 16 0
BBX 15 23 1 0
BITMAP
7FE0
FFF0
FFE0
FFE0
FFE0
7FE0
7FE0
7C00
7E00
7EE0
7FE0
3FE0
3FE0
3E00
3FEC
3FFC
3FFC
1FFC
1FFE
1FFE
1FFE
1FE0
1E00
ENDCHAR
STARTCHAR 0046
ENCODING 70
SWIDTH 480 0
DWIDTH 16 0
BBX 15 23 1 0
BITMAP
3FFE
FFFE
FFFE
FFFE
FFFE
FC00
FC00
FC00
FD80
FF80
FF80
FF80
FF80
FC00
F800
F800
F800
F800
FC00
FC00
FC00
FC00
F800
ENDCHAR
STARTCHAR 0047
ENCODING 71
SWIDTH 480 0
DWIDTH 16 0
BBX 15 23 1 0
BITMAP
03E0
07F8
0FFC
1FFE
3FFC
3F38
3C00
7C00
7800
7800
F8FE
F8FE
F8FE
F8FE
F8FE
FCFE
FFFE
FFFE
FFFC
FFF8
7FE0
3FC0
0800
ENDCHAR
STARTCHAR 0048
ENCODING 72
SWIDTH 540 0
DWIDTH 18 0
BBX 17 23 1 0
BITMAP
030000
3F8F80
7F0F80
3F9F80
3F9F80
3F1F80
3F1F80
7F1F80
7F1F80
7FFF80
7FFF80
7FFF80
7FFF00
7FFF80
7FFF80
7F3F80
7F3F80
7F3F80
FF3F80
FF3F00
FF3F00
FE3F00
080000
ENDCHAR
STARTCHAR 0049
ENCODING 73
SWIDTH 330 0
DWIDTH 11 0
BBX 10 22 1 0
BITMAP
3FC0
3F80
3F80
3F80
3F80
3F80
3F80
7F80
7F00
7F00
7F00
7F00
7F00
7F00
7F00
7F00
7F00
7F00
7F00
7F00
FF00
F000
ENDCHAR
STARTCHAR 004A
ENCODING 74
SWIDTH 450 0
DWIDTH 15 0
BBX 14 23 1 0
BITMAP
0008
03F8
03F8
03F8
07F8
07F8
07F8
07FC
07FC
07FC
07FC
07FC
03FC
03FC
03FC
11FC
F9F8
FBF8
FDF8
FFF0
7FE0
3FC0
0F80
ENDCHAR
STARTCHAR 004B
ENCODING 75
SWIDTH 540 0
DWIDTH 18 0
BBX 17 23 1 0
BITMAP
098C00
FF9E00
FF9F80
FF3F00
FF3F00
FF7E00
FF7C00
FFF800
FFF800
FFF000
FFF000
FFE000
FFE000
FFF000
FFF800
FFFC00
FFFC00
FF7E00
FF3F00
FF1F00
FF1F80
FF0E80
DF0C00
ENDCHAR
STARTCHAR 004C
ENCODING 76
SWIDTH 510 0
DWIDTH 17 0
BBX 15 23 1 -1
BITMAP
03C0
1FE0
3FE0
3FE0
3FE0
3FC0
3FC0
3FC0
3FC0
3FC0
3FC0
7F80
7F80
7F80
7F80
7F80
7FFE
FFFE
7FFE
FFFE
FFFE
FFFE
FFF8
ENDCHAR
STARTCHAR 004D
ENCODING 77
SWIDTH 630 0
DWIDTH 21 0
BBX 20 23 1 0
BITMAP
100000
180180
1C03C0
3C03C0
3E07C0
3F07C0
3F0FC0
3F9FC0
7F9FE0
7FFFE0
7FFFE0
7FFFE0
7FFFE0
7F7FE0
7F3FE0
7E0FE0
FE0FE0
FE0FF0
FC0FF0
FC0FF0
FC0FF0
F80FF0
F80000
ENDCHAR
STARTCHAR 004E
ENCODING 78
SWIDTH 540 0
DWIDTH 18 0
BBX 17 22 1 0
BITMAP
3F0F80
3F9F80
7F1F80
7F1F80
7F1F80
7F9F80
7F9F80
7F9F80
7FDF80
FFDF00
FFDF00
FFFF00
FFFF00
FFFF00
FEFF00
FEFF00
FEFF00
FC7F00
FC7F00
FC7F00
FC7F00
E00800
ENDCHAR
STARTCHAR 004F
ENCODING 79
SWIDTH 510 0
DWIDTH 17 0
BBX 16 23 1 0
BITMAP
0F00
1FC0
1FE0
3FF8
3FF8
7FFC
7FFE
FFFE
FE7E
FC3F
FC3F
FC3F
FC3F
FC7F
FFFF
FFFF
FFFF
7FFF
7FFE
3FFE
3FFE
1FF8
07F0
ENDCHAR
STARTCHAR 0050
ENCODING 80
SWIDTH 480 0
DWIDTH 16 0
BBX 15 23 1 0
BITMAP
0F00
7FF0
7FF8
7FF8
7FFC
7CFC
7C3C
7E3E
FE3E
FE3E
FFFE
FFFE
FFFC
FFF0
FF00
FF00
FF00
FF00
FF00
FF00
FF00
FF00
FF00
ENDCHAR
STARTCHAR 0051
ENCODING 81
SWIDTH 600 0
DWIDTH 20 0
BBX 19 24 1 -1
BITMAP
0FC000
1FE000
3FF000
3FF800
7FFC00
7FFE00
FC7E00
FC3F00
FC3F00
FC1F00
FC1F00
FC1F00
FC1F00
FF7F00
FFFF00
FFFE00
FFFE00
FFFE00
7FFF00
3FFF80
1FFF80
0FFFC0
001FE0
001F80
ENDCHAR
STARTCHAR 0052
ENCODING 82
SWIDTH 570 0
DWIDTH 19 0
BBX 18 24 1 -1
BITMAP
078000
7FF000
FFF800
FFFC00
FE1E00
FE1E00
FE1E00
FE1E00
FF1E00
FF7E00
FFFE00
FFFC00
FFF000
FFF800
FFFC00
FF7C00
7FBE00
FFBE00
7F9F00
7F9F80
7F8F80
7F8FC0
3F8F80
380000
ENDCHAR
STARTCHAR 0053
ENCODING 83
SWIDTH 480 0
DWIDTH 16 0
BBX 15 23 1 0
BITMAP
07FC
1FFE
3FFE
3FFC
3FFC
7FF8
7FF8
7FF0
7EF0
7E00
7F80
3FE0
3FF8
07FC
00FC
007C
C0FE
FFFE
FFFC
FFFC
FFFC
7FF0
1FC0
ENDCHAR
STARTCHAR 0054
ENCODING 84
SWIDTH 570 0
DWIDTH 19 0
BBX 18 23 1 0
BITMAP
000400
FFFF80
FFFF80
FFFF80
FFFFC0
FFFFC0
FFFFC0
F9F800
83F000
03E000
03E000
03E000
03E000
03E000
03E000
03E000
03E000
03E000
03E000
03E000
03E000
03E000
03E000
ENDCHAR
STARTCHAR 0055
ENCODING 85
SWIDTH 540 0
DWIDTH 18 0
BBX 17 22 1 1
BITMAP
380000
7E1F80
7C1F80
7C0F80
7C0F80
7C1F80
FC1F80
FC1F80
FC1F80
FC1F80
FC1F80
FC1F80
FE3F80
FFFF00
FFFF00
FFFF00
FFFE00
7FFE00
7FFC00
3FF800
3FF800
0FF000
ENDCHAR
STARTCHAR 0056
ENCODING 86
SWIDTH 570 0
DWIDTH 19 0
BBX 18 21 1 1
BITMAP
C00FC0
FC1FC0
7F1FC0
7F9FC0
7F9FC0
3F9FC0
3F9F80
3F9F80
1FDF80
1FDF80
0FFF00
0FFF00
07FF00
07FF00
03FE00
01FE00
01FE00
00FE00
007E00
003E00
003E00
ENDCHAR
STARTCHAR 0057
ENCODING 87
SWIDTH 720 0
DWIDTH 24 0
BBX 23 23 1 0
BITMAP
000064
FC107E
FC387C
FC38FC
FE38FC
FE3CF8
FF3DF8
7F3DF8
7F3FF8
7FFFF8
3FFFF8
3FFFF0
1FFFF0
1FFFF0
0FF7F0
0FF7F0
07E7F0
07E3E0
03C3E0
03C3E0
01C3E0
01C1C0
008000
ENDCHAR
STARTCHAR 0058
ENCODING 88
SWIDTH 570 0
DWIDTH 19 0
BBX 18 22 1 1
BITMAP
000600
7C0FC0
FC1FC0
FC1F80
FE3F80
FE3F00
FF3F00
7F7E00
3FFE00
1FFE00
0FFC00
0FFC00
07F800
07F800
0FFC00
1FFC00
1FFC00
3F7E00
3F3E00
7F1F00
7F1F00
7E0800
ENDCHAR
STARTCHAR 0059
ENCODING 89
SWIDTH 600 0
DWIDTH 20 0
BBX 19 23 1 0
BITMAP
0003E0
1807C0
FC07C0
FC0FC0
FE0F80
7E1F80
7F1F00
3F3F00
3F3E00
1FFE00
1FFC00
0FFC00
0FF800
07F800
07F000
03F000
03F000
01F000
01F000
01F000
01F000
01F000
01F000
ENDCHAR
STARTCHAR 005A
ENCODING 90
SWIDTH 600 0
DWIDTH 20 0
BBX 18 23 1 0
BITMAP
03FC00
3FFE00
7FFE00
FFFC00
FFF800
FFF800
81F000
01F000
01F000
03E000
03E000
03E000
07C000
07C000
0FC000
0FC000
0F8000
1FFFC0
1FFFC0
1FFFC0
1FFF80
03FF00
007800
ENDCHAR
STARTCHAR 005B
ENCODING 91
SWIDTH 330 0
DWIDTH 11 0
BBX 10 32 1 -5
BITMAP
FFC0
FFC0
FFC0
FFC0
FE00
F800
F800
F800
F800
F800
F800
F800
F800
F800
F800
F800
F800
F800
F800
F800
F800
F800
F800
F800
F800
F800
F800
FFC0
FFC0
FFC0
FFC0
FF80
ENDCHAR
STARTCHAR 005C
ENCODING 92
SWIDTH 450 0
DWIDTH 15 0
BBX 14 27 1 -2
BITMAP
F800
FC00
FC00
FC00
FE00
7E00
7E00
7F00
3F00
3F00
3F00
1F80
1F80
0F80
0FC0
07C0
07C0
07E0
03E0
03E0
01F0
01F0
00F0
00F8
00F8
007C
0020
ENDCHAR
STARTCHAR 005D
ENCODING 93
SWIDTH 330 0
DWIDTH 11 0
BBX 10 32 1 -5
BITMAP
FFC0
FFC0
FFC0
FFC0
FFC0
07C0
07C0
07C0
07C0
07C0
07C0
07C0
07C0
07C0
07C0
07C0
07C0
07C0
07C0
07C0
07C0
07C0
07C0
07C0
07C0
07C0
07C0
FFC0
FFC0
FFC0
FFC0
FC00
ENDCHAR
STARTCHAR 005E
ENCODING 94
SWIDTH 480 0
DWIDTH 16 0
BBX 15 13 1 11
BITMAP
03C0
07C0
07C0
0FE0
1FE0
1FF0
3EF0
7EF8
7CF8
FC7C
FC7C
FC7C
F87E
ENDCHAR
STARTCHAR 005F
ENCODING 95
SWIDTH 390 0
DWIDTH 13 0
BBX 11 4 1 -4
BITMAP
FFE0
FFE0
FFE0
FFE0
ENDCHAR
STARTCHAR 0060
ENCODING 96
SWIDTH 210 0
DWIDTH 7 0
BBX 6 5 1 24
BITMAP
F0
F8
78
3C
1C
ENDCHAR
STARTCHAR 0061
ENCODING 97
SWIDTH 630 0
DWIDTH 21 0
BBX 19 24 1 -1
BITMAP
001000
00F000
00F800
00F800
01F800
01F800
01F800
03FC00
03FC00
07FC00
07FE00
07FE00
0F7E00
0E7F00
1E3F00
1C3F00
3FFF80
3FFF80
3FBFC0
7C3FC0
7C3FC0
FC1FE0
FC1FE0
E00000
ENDCHAR
STARTCHAR 0062
ENCODING 98
SWIDTH 510 0
DWIDTH 17 0
BBX 16 23 1 0
BITMAP
3F00
FFE0
FFF0
FFF0
FFF8
FDF8
FC78
FC78
7C78
7EF0
7FE0
7FF8
7FFC
7FFE
7E3E
7E3F
7F3F
3F7F
3FFE
3FFE
3FFC
3FF0
1E00
ENDCHAR
STARTCHAR 0063
ENCODING 99
SWIDTH 480 0
DWIDTH 16 0
BBX 15 23 1 0
BITMAP
00C0
07F8
1FFC
3FFE
7FFE
FFFE
FFFC
FF00
FE00
FC00
FC00
FC00
FE00
FFFC
FFFE
FFFE
FFFE
7FFC
7FFE
3FFC
3FF8
0FF0
00C0
ENDCHAR
STARTCHAR 0064
ENCODING 100
SWIDTH 450 0
DWIDTH 15 0
BBX 14 23 1 0
BITMAP
7C00
FF00
FFC0
FFE0
FFF0
FFF0
FDF8
FC78
FC3C
FC7C
FC7C
FC7C
FCF8
FDF8
7FF0
7FF0
7FE0
7FE0
3FC0
3F80
3F00
3C00
1000
ENDCHAR
STARTCHAR 0065
ENCODING 101
SWIDTH 480 0
DWIDTH 16 0
BBX 15 23 1 0
BITMAP
7FE0
FFF0
FFE0
FFE0
FFE0
7FE0
7FE0
7C00
7E00
7EE0
7FE0
3FE0
3FE0
3E00
3FEC
3FFC
3FFC
1FFC
1FFE
1FFE
1FFE
1FE0
1E00
ENDCHAR
STARTCHAR 0066
ENCODING 102
SWIDTH 480 0
DWIDTH 16 0
BBX 15 23 1 0
BITMAP
3FFE
FFFE
FFFE
FFFE
FFFE
FC00
FC00
FC00
FD80
FF80
FF80
FF80
FF80
FC00
F800
F800
F800
F800
FC00
FC00
FC00
FC00
F800
ENDCHAR
STARTCHAR 0067
ENCODING 103
SWIDTH 480 0
DWIDTH 16 0
BBX 15 23 1 0
BITMAP
03E0
07F8
0FFC
1FFE
3FFC
3F38
3C00
7C00
7800
7800
F8FE
F8FE
F8FE
F8FE
F8FE
FCFE
FFFE
FFFE
FFFC
FFF8
7FE0
3FC0
0800
ENDCHAR
STARTCHAR 0068
ENCODING 104
SWIDTH 540 0
DWIDTH 18 0
BBX 17 23 1 0
BITMAP
030000
3F8F80
7F0F80
3F9F80
3F9F80
3F1F80
3F1F80
7F1F80
7F1F80
7FFF80
7FFF80
7FFF80
7FFF00
7FFF80
7FFF80
7F3F80
7F3F80
7F3F80
FF3F80
FF3F00
FF3F00
FE3F00
080000
ENDCHAR
STARTCHAR 0069
ENCODING 105
SWIDTH 330 0
DWIDTH 11 0
BBX 10 22 1 0
BITMAP
3FC0
3F80
3F80
3F80
3F80
3F80
3F80
7F80
7F00
7F00
7F00
7F00
7F00
7F00
7F00
7F00
7F00
7F00
7F00
7F00
FF00
F000
ENDCHAR
STARTCHAR 006A
ENCODING 106
SWIDTH 450 0
DWIDTH 15 0
BBX 14 23 1 0
BITMAP
0008
03F8
03F8
03F8
07F8
07F8
07F8
07FC
07FC
07FC
07FC
07FC
03FC
03FC
03FC
11FC
F9F8
FBF8
FDF8
FFF0
7FE0
3FC0
0F80
ENDCHAR
STARTCHAR 006B
ENCODING 107
SWIDTH 540 0
DWIDTH 18 0
BBX 17 23 1 0
BITMAP
098C00
FF9E00
FF9F80
FF3F00
FF3F00
FF7E00
FF7C00
FFF800
FFF800
FFF000
FFF000
FFE000
FFE000
FFF000
FFF800
FFFC00
FFFC00
FF7E00
FF3F00
FF1F00
FF1F80
FF0E80
DF0C00
ENDCHAR
STARTCHAR 006C
ENCODING 108
SWIDTH 510 0
DWIDTH 17 0
BBX 15 23 1 -1
BITMAP
03C0
1FE0
3FE0
3FE0
3FE0
3FC0
3FC0
3FC0
3FC0
3FC0
3FC0
7F80
7F80
7F80
7F80
7F80
7FFE
FFFE
7FFE
FFFE
FFFE
FFFE
FFF8
ENDCHAR
STARTCHAR 006D
ENCODING 109
SWIDTH 630 0
DWIDTH 21 0
BBX 20 23 1 0
BITMAP
100000
180180
1C03C0
3C03C0
3E07C0
3F07C0
3F0FC0
3F9FC0
7F9FE0
7FFFE0
7FFFE0
7FFFE0
7FFFE0
7F7FE0
7F3FE0
7E0FE0
FE0FE0
FE0FF0
FC0FF0
FC0FF0
FC0FF0
F80FF0
F80000
ENDCHAR
STARTCHAR 006E
ENCODING 110
SWIDTH 540 0
DWIDTH 18 0
BBX 17 22 1 0
BITMAP
3F0F80
3F9F80
7F1F80
7F1F80
7F1F80
7F9F80
7F9F80
7F9F80
7FDF80
FFDF00
FFDF00
FFFF00
FFFF00
FFFF00
FEFF00
FEFF00
FEFF00
FC7F00
FC7F00
FC7F00
FC7F00
E00800
ENDCHAR
STARTCHAR 006F
ENCODING 111
SWIDTH 510 0
DWIDTH 17 0
BBX 16 23 1 0
BITMAP
0F00
1FC0
1FE0
3FF8
3FF8
7FFC
7FFE
FFFE
FE7E
FC3F
FC3F
FC3F
FC3F
FC7F
FFFF
FFFF
FFFF
7FFF
7FFE
3FFE
3FFE
1FF8
07F0
ENDCHAR
STARTCHAR 0070
ENCODING 112
SWIDTH 480 0
DWIDTH 16 0
BBX 15 23 1 0
BITMAP
0F00
7FF0
7FF8
7FF8
7FFC
7CFC
7C3C
7E3E
FE3E
FE3E
FFFE
FFFE
FFFC
FFF0
FF00
FF00
FF00
FF00
FF00
FF00
FF00
FF00
FF00
ENDCHAR
STARTCHAR 0071
ENCODING 113
SWIDTH 600 0
DWIDTH 20 0
BBX 19 24 1 -1
BITMAP
0FC000
1FE000
3FF000
3FF800
7FFC00
7FFE00
FC7E00
FC3F00
FC3F00
FC1F00
FC1F00
FC1F00
FC1F00
FF7F00
FFFF00
FFFE00
FFFE00
FFFE00
7FFF00
3FFF80
1FFF80
0FFFC0
001FE0
001F80
ENDCHAR
STARTCHAR 0072
ENCODING 114
SWIDTH 570 0
DWIDTH 19 0
BBX 18 24 1 -1
BITMAP
078000
7FF000
FFF800
FFFC00
FE1E00
FE1E00
FE1E00
FE1E00
FF1E00
FF7E00
FFFE00
FFFC00
FFF000
FFF800
FFFC00
FF7C00
7FBE00
FFBE00
7F9F00
7F9F80
7F8F80
7F8FC0
3F8F80
380000
ENDCHAR
STARTCHAR 0073
ENCODING 115
SWIDTH 480 0
DWIDTH 16 0
BBX 15 23 1 0
BITMAP
07FC
1FFE
3FFE
3FFC
3FFC
7FF8
7FF8
7FF0
7EF0
7E00
7F80
3FE0
3FF8
07FC
00FC
007C
C0FE
FFFE
FFFC
FFFC
FFFC
7FF0
1FC0
ENDCHAR
STARTCHAR 0074
ENCODING 116
SWIDTH 570 0
DWIDTH 19 0
BBX 18 23 1 0
BITMAP
000400
FFFF80
FFFF80
FFFF80
FFFFC0
FFFFC0
FFFFC0
F9F800
83F000
03E000
03E000
03E000
03E000
03E000
03E000
03E000
03E000
03E000
03E000
03E000
03E000
03E000
03E000
ENDCHAR
STARTCHAR 0075
ENCODING 117
SWIDTH 540 0
DWIDTH 18 0
BBX 17 22 1 1
BITMAP
380000
7E1F80
7C1F80
7C0F80
7C0F80
7C1F80
FC1F80
FC1F80
FC1F80
FC1F80
FC1F80
FC1F80
FE3F80
FFFF00
FFFF00
FFFF00
FFFE00
7FFE00
7FFC00
3FF800
3FF800
0FF000
ENDCHAR
STARTCHAR 0076
ENCODING 118
SWIDTH 570 0
DWIDTH 19 0
BBX 18 21 1 1
BITMAP
C00FC0
FC1FC0
7F1FC0
7F9FC0
7F9FC0
3F9FC0
3F9F80
3F9F80
1FDF80
1FDF80
0FFF00
0FFF00
07FF00
07FF00
03FE00
01FE00
01FE00
00FE00
007E00
003E00
003E00
ENDCHAR
STARTCHAR 0077
ENCODING 119
SWIDTH 720 0
DWIDTH 24 0
BBX 23 23 1 0
BITMAP
000064
FC107E
FC387C
FC38FC
FE38FC
FE3CF8
FF3DF8
7F3DF8
7F3FF8
7FFFF8
3FFFF8
3FFFF0
1FFFF0
1FFFF0
0FF7F0
0FF7F0
07E7F0
07E3E0
03C3E0
03C3E0
01C3E0
01C1C0
008000
ENDCHAR
STARTCHAR 0078
ENCODING 120
SWIDTH 570 0
DWIDTH 19 0
BBX 18 22 1 1
BITMAP
000600
7C0FC0
FC1FC0
FC1F80
FE3F80
FE3F00
FF3F00
7F7E00
3FFE00
1FFE00
0FFC00
0FFC00
07F800
07F800
0FFC00
1FFC00
1FFC00
3F7E00
3F3E00
7F1F00
7F1F00
7E0800
ENDCHAR
STARTCHAR 0079
ENCODING 121
SWIDTH 600 0
DWIDTH 20 0
BBX 19 23 1 0
BITMAP
0003E0
1807C0
FC07C0
FC0FC0
FE0F80
7E1F80
7F1F00
3F3F00
3F3E00
1FFE00
1FFC00
0FFC00
0FF800
07F800
07F000
03F000
03F000
01F000
01F000
01F000
01F000
01F000
01F000
ENDCHAR
STARTCHAR 007A
ENCODING 122
SWIDTH 600 0
DWIDTH 20 0
BBX 18 23 1 0
BITMAP
03FC00
3FFE00
7FFE00
FFFC00
FFF800
FFF800
81F000
01F000
01F000
03E000
03E000
03E000
07C000
07C000
0FC000
0FC000
0F8000
1FFFC0
1FFFC0
1FFFC0
1FFF80
03FF00
007800
ENDCHAR
STARTCHAR 007B
ENCODING 123
SWIDTH 330 0
DWIDTH 11 0
BBX 10 32 1 -4
BITMAP
0180
0380
07C0
07C0
0FC0
0F00
0F00
1E00
1E00
1E00
1E00
3C00
3C00
7C00
FC00
FC00
FC00
FE00
1E00
1E00
1E00
1E00
1E00
1E00
1E00
1F00
1F00
1F80
0FC0
07C0
0380
0180
ENDCHAR
STARTCHAR 007C
ENCODING 124
SWIDTH 180 0
DWIDTH 6 0
BBX 5 33 1 -5
BITMAP
F8
F8
F8
F8
F8
F8
F8
F8
F8
F8
F8
F8
F8
F8
F8
F8
F8
F8
F8
F8
F8
F8
F8
F8
F8
F8
F8
F8
F8
F8
F8
F8
F8
ENDCHAR
STARTCHAR 007D
ENCODING 125
SWIDTH 330 0
DWIDTH 11 0
BBX 10 32 1 -4
BITMAP
6000
F000
F800
FC00
7C00
3E00
3E00
3E00
1E00
1E00
1E00
1E00
1E00
1E00
1FC0
0FC0
0FC0
0FC0
0F00
1F00
1E00
1E00
1E00
1E00
3C00
3C00
7C00
FC00
F800
F000
7000
6000
ENDCHAR
STARTCHAR 007E
ENCODING 126
SWIDTH 480 0
DWIDTH 16 0
BBX 14 8 1 8
BITMAP
1000
7C7C
FF7C
FFFC
FFFC
FFFC
F7F8
F1F0
ENDCHAR
STARTCHAR 00A0
ENCODING 160
SWIDTH 300 0
DWIDTH 10 0
BBX 0 0 0 0
BITMAP
ENDCHAR
STARTCHAR 00A1
ENCODING 161
SWIDTH 270 0
DWIDTH 9 0
BBX 8 26 1 -7
BITMAP
18
3E
7E
7E
7E
3C
00
00
00
7C
7C
7C
7C
7E
7E
FE
FE
FE
FE
FE
FE
FF
FF
FF
FF
03
ENDCHAR
STARTCHAR 00A2
ENCODING 162
SWIDTH 480 0
DWIDTH 16 0
BBX 15 29 1 -3
BITMAP
0060
007C
007C
0078
07F8
1FFC
3FFE
3FFE
7FFE
FFFE
FFFE
FFFE
FDE0
F9E0
FBE0
FBE0
FBC0
FBC0
FFC0
FFFE
FFFE
7FFE
7FFE
3FFE
0FFC
0FE0
0F00
0F00
0700
ENDCHAR
STARTCHAR 00A3
ENCODING 163
SWIDTH 540 0
DWIDTH 18 0
BBX 17 23 1 0
BITMAP
006000
01FC00
03FE00
07FF00
0FFF00
0FDF00
1FDF80
1F8F00
1F8000
1F8000
FFFC00
FFFC00
FFFC00
FFFC00
1F8000
1F8000
1F8000
3FC000
FFFF80
FFFF80
FFFF00
FFFF00
1FFE00
ENDCHAR
STARTCHAR 00A4
ENCODING 164
SWIDTH 420 0
DWIDTH 14 0
BBX 13 14 1 5
BITMAP
2020
7060
FFF0
FFF8
FFF0
79E0
78E0
78E0
78E0
79F0
FFF8
FFF8
7FF0
3060
ENDCHAR
STARTCHAR 00A5
ENCODING 165
SWIDTH 600 0
DWIDTH 20 0
BBX 19 23 1 0
BITMAP
0003E0
1807C0
FC07C0
FC0FC0
FE0F80
7E1F80
7F1F00
3F3F00
3F3E00
1FFE00
7FFF00
7FFF00
7FFF00
7FFF00
3FF000
03F000
3FFF00
3FFF00
3FFF00
7FFF00
01F000
01F000
01F000
ENDCHAR
STARTCHAR 00A6
ENCODING 166
SWIDTH 180 0
DWIDTH 6 0
BBX 5 33 1 -5
BITMAP
F8
F8
F8
F8
F8
F8
F8
F8
F8
F8
F8
F8
F8
F8
80
00
00
00
00
F0
F0
F0
F8
F8
F8
F8
F8
F8
F8
F8
F8
F8
F0
ENDCHAR
STARTCHAR 00A7
ENCODING 167
SWIDTH 480 0
DWIDTH 16 0
BBX 15 29 1 -3
BITMAP
07C0
0FF0
3FF8
3FF8
7FF8
7FF8
7E10
3E00
3F00
7FE0
7FF8
FFFC
FFFE
FC7E
F83E
FCFE
FFFE
7FFC
1FFC
07FC
01F8
01F8
31F8
3FF8
3FF8
3FF8
1FF0
0FC0
0100
ENDCHAR
STARTCHAR 00A8
ENCODING 168
SWIDTH 300 0
DWIDTH 10 0
BBX 9 4 1 23
BITMAP
E300
E780
E700
4000
ENDCHAR
STARTCHAR 00A9
ENCODING 169
SWIDTH 660 0
DWIDTH 22 0
BBX 21 21 1 1
BITMAP
03FF00
0FFF80
3FFFC0
7F07E0
7C01E0
F8F8F0
F1F8F0
E1FC78
E3FC78
E3C078
E38078
E38078
E3C070
F1FC70
F1FC70
F878E0
7C01E0
7E0FC0
3FFF80
1FFE00
03F800
ENDCHAR
STARTCHAR 00AA
ENCODING 170
SWIDTH 330 0
DWIDTH 11 0
BBX 9 12 1 11
BITMAP
0400
0C00
1C00
1E00
1E00
3E00
3E00
6700
7F00
F780
E780
E780
ENDCHAR
STARTCHAR 00AB
ENCODING 171
SWIDTH 450 0
DWIDTH 15 0
BBX 14 15 1 0
BITMAP
0604
0E0C
1E1C
3E7C
7EFC
FDFC
F1E0
E1E0
FDF8
FEFC
3E7C
1E3C
0E1C
060C
0200
ENDCHAR
STARTCHAR 00AC
ENCODING 172
SWIDTH 480 0
DWIDTH 16 0
BBX 14 8 1 6
BITMAP
FFFC
FFFC
FFFC
FFFC
FFFC
007C
003C
003C
ENDCHAR
STARTCHAR 00AD
ENCODING 173
SWIDTH 390 0
DWIDTH 13 0
BBX 11 5 1 9
BITMAP
FFE0
FFE0
FFE0
FFE0
FFE0
ENDCHAR
STARTCHAR 00AE
ENCODING 174
SWIDTH 450 0
DWIDTH 15 0
BBX 14 14 1 10
BITMAP
0700
3FC0
7FF0
E230
EF98
CC98
CF98
CF1C
CF9C
CE98
EEF8
7078
7FF0
1FE0
ENDCHAR
STARTCHAR 00AF
ENCODING 175
SWIDTH 300 0
DWIDTH 10 0
BBX 9 3 1 24
BITMAP
FF80
FF80
FF80
ENDCHAR
STARTCHAR 00B0
ENCODING 176
SWIDTH 300 0
DWIDTH 10 0
BBX 9 11 1 13
BITMAP
1C00
7F00
FF80
E780
E380
E380
E380
E380
FF00
7F00
3C00
ENDCHAR
STARTCHAR 00B1
ENCODING 177
SWIDTH 450 0
DWIDTH 15 0
BBX 14 19 1 0
BITMAP
0780
0F80
0F80
0F80
0F80
FFFC
FFFC
FFFC
FFFC
8FFC
0780
0780
0780
0780
0000
FFFC
FFFC
FFFC
FFFC
ENDCHAR
STARTCHAR 00B2
ENCODING 178
SWIDTH 270 0
DWIDTH 9 0
BBX 7 11 1 12
BITMAP
70
FC
FC
8C
18
18
38
3E
7E
7E
FC
ENDCHAR
STARTCHAR 00B3
ENCODING 179
SWIDTH 240 0
DWIDTH 8 0
BBX 7 12 1 11
BITMAP
30
F0
30
30
78
FC
0E
06
06
BE
FC
30
ENDCHAR
STARTCHAR 00B4
ENCODING 180
SWIDTH 210 0
DWIDTH 7 0
BBX 6 5 1 24
BITMAP
3C
7C
78
F0
E0
ENDCHAR
STARTCHAR 00B5
ENCODING 181
SWIDTH 540 0
DWIDTH 18 0
BBX 17 23 1 -5
BITMAP
381E00
F83E00
F83F00
F83F00
F83F80
F83F80
F83F80
FC3F80
FC7F80
FC7F00
FFFF00
FFFF00
FFFF00
FFFE00
FFFE00
FFFC00
FFF000
F80000
F80000
F80000
F80000
F80000
F00000
ENDCHAR
STARTCHAR 00B6
ENCODING 182
SWIDTH 390 0
DWIDTH 13 0
BBX 12 26 1 -3
BITMAP
0FE0
3FE0
7FE0
FFE0
FFE0
FEE0
FEE0
FEF0
FEF0
FEF0
FEE0
FEF0
FEF0
7EF0
1EE0
1EE0
1EF0
1EF0
1EF0
1EF0
1EF0
1EF0
1EF0
1EF0
1EF0
1EF0
ENDCHAR
STARTCHAR 00B7
ENCODING 183
SWIDTH 210 0
DWIDTH 7 0
BBX 6 6 1 9
BITMAP
70
F8
F8
FC
F8
70
ENDCHAR
STARTCHAR 00B8
ENCODING 184
SWIDTH 300 0
DWIDTH 10 0
BBX 9 7 1 -6
BITMAP
3C00
3C00
1F00
0700
FF80
FF00
1000
ENDCHAR
STARTCHAR 00B9
ENCODING 185
SWIDTH 210 0
DWIDTH 7 0
BBX 6 11 1 12
BITMAP
10
78
F8
F8
38
38
38
38
3C
3C
7C
ENDCHAR
STARTCHAR 00BA
ENCODING 186
SWIDTH 270 0
DWIDTH 9 0
BBX 8 11 1 12
BITMAP
38
7C
FE
FE
E7
E7
E7
FF
FF
7E
7E
ENDCHAR
STARTCHAR 00BB
ENCODING 187
SWIDTH 450 0
DWIDTH 15 0
BBX 14 15 1 1
BITMAP
C100
E180
F1E0
F9F0
F9F8
7DFC
1E3C
1E1C
FE7C
FDF8
F1F0
E1E0
C1C0
8180
0100
ENDCHAR
STARTCHAR 00BC
ENCODING 188
SWIDTH 540 0
DWIDTH 18 0
BBX 17 23 1 0
BITMAP
100600
780F00
F81E00
F81E00
383C00
383C00
387800
387800
3CF000
3CF000
7DE000
03C000
03CC00
078C00
070C00
0F1C00
1E1F80
1E1F80
3C1F00
380300
780700
700700
200700
ENDCHAR
STARTCHAR 00BD
ENCODING 189
SWIDTH 540 0
DWIDTH 18 0
BBX 17 23 1 0
BITMAP
100600
780F00
F81E00
F81E00
383C00
383C00
387800
387800
3CF000
3CF000
7DE000
03D800
03FE00
07FF00
073700
0F0600
1E0600
1E0E00
3C0F80
381F80
781F80
703F80
200C00
ENDCHAR
STARTCHAR 00BE
ENCODING 190
SWIDTH 540 0
DWIDTH 18 0
BBX 17 23 1 0
BITMAP
300600
F00F00
301E00
301E00
783C00
FC3C00
0E7800
067800
06F000
BEF000
FDE000
33C000
03CC00
078C00
070C00
0F1C00
1E1F80
1E1F80
3C1F00
380300
780700
700700
200700
ENDCHAR
STARTCHAR 00BF
ENCODING 191
SWIDTH 450 0
DWIDTH 15 0
BBX 14 24 1 -7
BITMAP
0180
07C0
07E0
07E0
07C0
0380
0000
0000
07C0
07C0
07C0
0FC0
3FC0
7FC0
FE00
F800
F800
F800
F838
FFFC
FFFC
FFF8
FFF8
7FF0
ENDCHAR
STARTCHAR 00C0
ENCODING 192
SWIDTH 630 0
DWIDTH 21 0
BBX 19 30 1 -1
BITMAP
078000
07C000
03C000
01E000
00E000
000000
001000
00F000
00F800
00F800
01F800
01F800
01F800
03FC00
03FC00
07FC00
07FE00
07FE00
0F7E00
0E7F00
1E3F00
1C3F00
3FFF80
3FFF80
3FBFC0
7C3FC0
7C3FC0
FC1FE0
FC1FE0
E00000
ENDCHAR
STARTCHAR 00C1
ENCODING 193
SWIDTH 630 0
DWIDTH 21 0
BBX 19 30 1 -1
BITMAP
001E00
001E00
003C00
007800
007800
000000
001000
00F000
00F800
00F800
01F800
01F800
01F800
03FC00
03FC00
07FC00
07FE00
07FE00
0F7E00
0E7F00
1E3F00
1C3F00
3FFF80
3FFF80
3FBFC0
7C3FC0
7C3FC0
FC1FE0
FC1FE0
E00000
ENDCHAR
STARTCHAR 00C2
ENCODING 194
SWIDTH 630 0
DWIDTH 21 0
BBX 19 30 1 -1
BITMAP
006000
00F800
03FC00
07FE00
079E00
000000
001000
00F000
00F800
00F800
01F800
01F800
01F800
03FC00
03FC00
07FC00
07FE00
07FE00
0F7E00
0E7F00
1E3F00
1C3F00
3FFF80
3FFF80
3FBFC0
7C3FC0
7C3FC0
FC1FE0
FC1FE0
E00000
ENDCHAR
STARTCHAR 00C3
ENCODING 195
SWIDTH 630 0
DWIDTH 21 0
BBX 19 29 1 -1
BITMAP
03CE00
03FE00
03FE00
077C00
000000
001000
00F000
00F800
00F800
01F800
01F800
01F800
03FC00
03FC00
07FC00
07FE00
07FE00
0F7E00
0E7F00
1E3F00
1C3F00
3FFF80
3FFF80
3FBFC0
7C3FC0
7C3FC0
FC1FE0
FC1FE0
E00000
ENDCHAR
STARTCHAR 00C4
ENCODING 196
SWIDTH 630 0
DWIDTH 21 0
BBX 19 28 1 -1
BITMAP
038E00
039E00
039E00
010000
001000
00F000
00F800
00F800
01F800
01F800
01F800
03FC00
03FC00
07FC00
07FE00
07FE00
0F7E00
0E7F00
1E3F00
1C3F00
3FFF80
3FFF80
3FBFC0
7C3FC0
7C3FC0
FC1FE0
FC1FE0
E00000
ENDCHAR
STARTCHAR 00C5
ENCODING 197
SWIDTH 630 0
DWIDTH 21 0
BBX 19 30 1 -1
BITMAP
00F000
03FC00
03DC00
071E00
070E00
079E00
07FC00
03F800
00F800
00F800
01F800
01F800
01F800
03FC00
03FC00
07FC00
07FE00
07FE00
0F7E00
0E7F00
1E3F00
1C3F00
3FFF80
3FFF80
3FBFC0
7C3FC0
7C3FC0
FC1FE0
FC1FE0
E00000
ENDCHAR
STARTCHAR 00C6
ENCODING 198
SWIDTH 720 0
DWIDTH 24 0
BBX 23 24 1 -1
BITMAP
003FE0
00FFF0
00FFE0
00FFE0
01FFE0
01FFE0
01FFE0
03FE00
03FE00
07FE60
07FFE0
07FFE0
0F7FE0
0E7E00
1E3F0C
1C7FFC
3FFFFC
3FFFFE
7F3FFE
7C3FFE
7C1FFE
FC1FF0
FC1F00
C00000
ENDCHAR
STARTCHAR 00C7
ENCODING 199
SWIDTH 480 0
DWIDTH 16 0
BBX 15 29 1 -6
BITMAP
00C0
07F8
1FFC
3FFE
7FFE
FFFE
FFFC
FF00
FE00
FC00
FC00
FC00
FE00
FFFC
FFFE
FFFE
FFFE
7FFC
7FFE
3FFC
3FF8
0FF0
07C0
0780
03C0
01E0
3FE0
3FE0
0200
ENDCHAR
STARTCHAR 00C8
ENCODING 200
SWIDTH 480 0
DWIDTH 16 0
BBX 15 29 1 0
BITMAP
F000
F800
7C00
3C00
1E00
0000
7FE0
FFF0
FFE0
FFE0
FFE0
7FE0
7FE0
7C00
7E00
7EE0
7FE0
3FE0
3FE0
3E00
3FEC
3FFC
3FFC
1FFC
1FFE
1FFE
1FFE
1FE0
1E00
ENDCHAR
STARTCHAR 00C9
ENCODING 201
SWIDTH 480 0
DWIDTH 16 0
BBX 15 29 1 1
BITMAP
0780
0F80
0F00
0E00
1E00
0000
7FE0
FFF0
FFE0
FFE0
FFE0
7FE0
7FE0
7C00
7E00
7EE0
7FE0
3FE0
3FE0
3E00
3FEC
3FFC
3FFC
1FFC
1FFE
1FFE
1FFE
1FE0
1E00
ENDCHAR
STARTCHAR 00CA
ENCODING 202
SWIDTH 480 0
DWIDTH 16 0
BBX 15 29 1 0
BITMAP
1C00
3F00
7F80
F7C0
E100
0000
7FE0
FFF0
FFE0
FFE0
FFE0
7FE0
7FE0
7C00
7E00
7EE0
7FE0
3FE0
3FE0
3E00
3FEC
3FFC
3FFC
1FFC
1FFE
1FFE
1FFE
1FE0
1E00
ENDCHAR
STARTCHAR 00CB
ENCODING 203
SWIDTH 480 0
DWIDTH 16 0
BBX 15 28 1 0
BITMAP
0300
E780
E780
E300
4000
7FE0
FFF0
FFE0
FFE0
FFE0
7FE0
7FE0
7C00
7E00
7EE0
7FE0
3FE0
3FE0
3E00
3FEC
3FFC
3FFC
1FFC
1FFE
1FFE
1FFE
1FE0
1E00
ENDCHAR
STARTCHAR 00CC
ENCODING 204
SWIDTH 330 0
DWIDTH 11 0
BBX 10 29 1 0
BITMAP
7C00
3C00
3E00
1E00
0F00
0000
0000
3FC0
3F80
3F80
3F80
3F80
3F80
3F80
7F80
7F00
7F00
7F00
7F00
7F00
7F00
7F00
7F00
7F00
7F00
7F00
7F00
FF00
F000
ENDCHAR
STARTCHAR 00CD
ENCODING 205
SWIDTH 330 0
DWIDTH 11 0
BBX 11 29 1 0
BITMAP
01E0
03E0
03C0
0780
0700
0000
0000
3FC0
3F80
3F80
3F80
3F80
3F80
3F80
7F80
7F00
7F00
7F00
7F00
7F00
7F00
7F00
7F00
7F00
7F00
7F00
7F00
FF00
F000
ENDCHAR
STARTCHAR 00CE
ENCODING 206
SWIDTH 330 0
DWIDTH 11 0
BBX 11 29 1 0
BITMAP
0600
0F80
3FC0
7FE0
79E0
0000
0000
3FC0
3F80
3F80
3F80
3F80
3F80
3F80
7F80
7F00
7F00
7F00
7F00
7F00
7F00
7F00
7F00
7F00
7F00
7F00
7F00
FF00
F000
ENDCHAR
STARTCHAR 00CF
ENCODING 207
SWIDTH 330 0
DWIDTH 11 0
BBX 11 27 1 0
BITMAP
38C0
39E0
39C0
1000
0000
3FC0
3F80
3F80
3F80
3F80
3F80
3F80
7F80
7F00
7F00
7F00
7F00
7F00
7F00
7F00
7F00
7F00
7F00
7F00
7F00
FF00
F000
ENDCHAR
STARTCHAR 00D0
ENCODING 208
SWIDTH 480 0
DWIDTH 16 0
BBX 16 23 0 0
BITMAP
1F00
3FC0
3FF0
3FF8
3FFC
3FFE
3F7E
3F1E
3FCF
FFDF
FFDF
FFDF
FF3E
1F7E
1FFC
1FFC
1FF8
1FF8
0FF0
0FE0
0FC0
0F00
0400
ENDCHAR
STARTCHAR 00D1
ENCODING 209
SWIDTH 540 0
DWIDTH 18 0
BBX 17 28 1 0
BITMAP
03DE00
07FE00
07FC00
077800
000000
000000
3F0F80
3F9F80
7F1F80
7F1F80
7F1F80
7F9F80
7F9F80
7F9F80
7FDF80
FFDF00
FFDF00
FFFF00
FFFF00
FFFF00
FEFF00
FEFF00
FEFF00
FC7F00
FC7F00
FC7F00
FC7F00
E00800
ENDCHAR
STARTCHAR 00D2
ENCODING 210
SWIDTH 510 0
DWIDTH 17 0
BBX 16 29 1 0
BITMAP
F000
F800
7800
3C00
1C00
0000
0F00
1FC0
1FE0
3FF8
3FF8
7FFC
7FFE
FFFE
FE7E
FC3F
FC3F
FC3F
FC3F
FC7F
FFFF
FFFF
FFFF
7FFF
7FFE
3FFE
3FFE
1FF8
07F0
ENDCHAR
STARTCHAR 00D3
ENCODING 211
SWIDTH 510 0
DWIDTH 17 0
BBX 16 29 1 0
BITMAP
01E0
03E0
07C0
0780
0F00
0000
0F00
1FC0
1FE0
3FF8
3FF8
7FFC
7FFE
FFFE
FE7E
FC3F
FC3F
FC3F
FC3F
FC7F
FFFF
FFFF
FFFF
7FFF
7FFE
3FFE
3FFE
1FF8
07F0
ENDCHAR
STARTCHAR 00D4
ENCODING 212
SWIDTH 510 0
DWIDTH 17 0
BBX 16 29 1 0
BITMAP
0E00
1F00
3F80
7FC0
71C0
0000
0F00
1FC0
1FE0
3FF8
3FF8
7FFC
7FFE
FFFE
FE7E
FC3F
FC3F
FC3F
FC3F
FC7F
FFFF
FFFF
FFFF
7FFF
7FFE
3FFE
3FFE
1FF8
07F0
ENDCHAR
STARTCHAR 00D5
ENCODING 213
SWIDTH 510 0
DWIDTH 17 0
BBX 16 29 1 0
BITMAP
01C0
79C0
7FC0
7F80
6780
6000
0F00
1FC0
1FE0
3FF8
3FF8
7FFC
7FFE
FFFE
FE7E
FC3F
FC3F
FC3F
FC3F
FC7F
FFFF
FFFF
FFFF
7FFF
7FFE
3FFE
3FFE
1FF8
07F0
ENDCHAR
STARTCHAR 00D6
ENCODING 214
SWIDTH 510 0
DWIDTH 17 0
BBX 16 27 1 0
BITMAP
31C0
73C0
71C0
3000
0F00
1FC0
1FE0
3FF8
3FF8
7FFC
7FFE
FFFE
FE7E
FC3F
FC3F
FC3F
FC3F
FC7F
FFFF
FFFF
FFFF
7FFF
7FFE
3FFE
3FFE
1FF8
07F0
ENDCHAR
STARTCHAR 00D7
ENCODING 215
SWIDTH 420 0
DWIDTH 14 0
BBX 13 13 1 6
BITMAP
3060
78F0
FDF8
FFF0
7FE0
3FC0
1FC0
3FC0
7FF0
FFF8
F9F0
70E0
2040
ENDCHAR
STARTCHAR 00D8
ENCODING 216
SWIDTH 510 0
DWIDTH 17 0
BBX 18 24 0 -1
BITMAP
000440
078FC0
0FEF80
0FFF80
1FFF00
1FFF00
3FFE00
3FFF00
7FFF00
7EFF80
7DFF80
79FF80
7BEF80
7BCF80
7FDF80
7FBF80
7FFF80
7FFF80
3FFF80
3FFF00
3FFF00
7FFF00
FFFC00
F3F800
ENDCHAR
STARTCHAR 00D9
ENCODING 217
SWIDTH 540 0
DWIDTH 18 0
BBX 17 28 1 1
BITMAP
0F0000
0F8000
078000
03C000
01C000
000000
380000
7E1F80
7C1F80
7C0F80
7C0F80
7C1F80
FC1F80
FC1F80
FC1F80
FC1F80
FC1F80
FC1F80
FE3F80
FFFF00
FFFF00
FFFF00
FFFE00
7FFE00
7FFC00
3FF800
3FF800
0FF000
ENDCHAR
STARTCHAR 00DA
ENCODING 218
SWIDTH 540 0
DWIDTH 18 0
BBX 17 28 1 1
BITMAP
003C00
003C00
007800
00F000
00F000
000000
380000
7E1F80
7C1F80
7C0F80
7C0F80
7C1F80
FC1F80
FC1F80
FC1F80
FC1F80
FC1F80
FC1F80
FE3F80
FFFF00
FFFF00
FFFF00
FFFE00
7FFE00
7FFC00
3FF800
3FF800
0FF000
ENDCHAR
STARTCHAR 00DB
ENCODING 219
SWIDTH 540 0
DWIDTH 18 0
BBX 17 28 1 1
BITMAP
004000
01F000
03F800
07FC00
0F1C00
000000
380000
7E1F80
7C1F80
7C0F80
7C0F80
7C1F80
FC1F80
FC1F80
FC1F80
FC1F80
FC1F80
FC1F80
FE3F80
FFFF00
FFFF00
FFFF00
FFFE00
7FFE00
7FFC00
3FF800
3FF800
0FF000
ENDCHAR
STARTCHAR 00DC
ENCODING 220
SWIDTH 540 0
DWIDTH 18 0
BBX 17 26 1 1
BITMAP
071800
073C00
073C00
001800
380000
7E1F80
7C1F80
7C0F80
7C0F80
7C1F80
FC1F80
FC1F80
FC1F80
FC1F80
FC1F80
FC1F80
FE3F80
FFFF00
FFFF00
FFFF00
FFFE00
7FFE00
7FFC00
3FF800
3FF800
0FF000
ENDCHAR
STARTCHAR 00DD
ENCODING 221
SWIDTH 600 0
DWIDTH 20 0
BBX 19 29 1 0
BITMAP
003E00
003C00
007C00
007800
00F000
000000
0003E0
1807C0
FC07C0
FC0FC0
FE0F80
7E1F80
7F1F00
3F3F00
3F3E00
1FFE00
1FFC00
0FFC00
0FF800
07F800
07F000
03F000
03F000
01F000
01F000
01F000
01F000
01F000
01F000
ENDCHAR
STARTCHAR 00DE
ENCODING 222
SWIDTH 480 0
DWIDTH 16 0
BBX 15 23 1 0
BITMAP
F800
F800
FC00
FF00
FFE0
FFF8
FFF8
FFFC
FC7C
FC3C
FC3E
FC3E
FC3E
FC7E
FEFE
FFFE
FFFC
7FF8
FFC0
FE00
7E00
7E00
7E00
ENDCHAR
STARTCHAR 00DF
ENCODING 223
SWIDTH 540 0
DWIDTH 18 0
BBX 17 25 1 -2
BITMAP
1F8000
3FE000
7FF000
FFF000
FFF800
F8F800
F0F800
F0F800
F8F000
F9F000
F9E000
F9FC00
F9FF00
F9FF00
F83F80
F81F80
F80F80
F80F80
F83F80
78FF80
78FF00
7CFE00
7CFC00
7C0000
780000
ENDCHAR
STARTCHAR 00E0
ENCODING 224
SWIDTH 630 0
DWIDTH 21 0
BBX 19 30 1 -1
BITMAP
078000
07C000
03C000
01E000
00E000
000000
001000
00F000
00F800
00F800
01F800
01F800
01F800
03FC00
03FC00
07FC00
07FE00
07FE00
0F7E00
0E7F00
1E3F00
1C3F00
3FFF80
3FFF80
3FBFC0
7C3FC0
7C3FC0
FC1FE0
FC1FE0
E00000
ENDCHAR
STARTCHAR 00E1
ENCODING 225
SWIDTH 630 0
DWIDTH 21 0
BBX 19 30 1 -1
BITMAP
001E00
001E00
003C00
007800
007800
000000
001000
00F000
00F800
00F800
01F800
01F800
01F800
03FC00
03FC00
07FC00
07FE00
07FE00
0F7E00
0E7F00
1E3F00
1C3F00
3FFF80
3FFF80
3FBFC0
7C3FC0
7C3FC0
FC1FE0
FC1FE0
E00000
ENDCHAR
STARTCHAR 00E2
ENCODING 226
SWIDTH 630 0
DWIDTH 21 0
BBX 19 30 1 -1
BITMAP
006000
00F800
03FC00
07FE00
079E00
000000
001000
00F000
00F800
00F800
01F800
01F800
01F800
03FC00
03FC00
07FC00
07FE00
07FE00
0F7E00
0E7F00
1E3F00
1C3F00
3FFF80
3FFF80
3FBFC0
7C3FC0
7C3FC0
FC1FE0
FC1FE0
E00000
ENDCHAR
STARTCHAR 00E3
ENCODING 227
SWIDTH 630 0
DWIDTH 21 0
BBX 19 29 1 -1
BITMAP
03CE00
03FE00
03FE00
077C00
000000
001000
00F000
00F800
00F800
01F800
01F800
01F800
03FC00
03FC00
07FC00
07FE00
07FE00
0F7E00
0E7F00
1E3F00
1C3F00
3FFF80
3FFF80
3FBFC0
7C3FC0
7C3FC0
FC1FE0
FC1FE0
E00000
ENDCHAR
STARTCHAR 00E4
ENCODING 228
SWIDTH 630 0
DWIDTH 21 0
BBX 19 28 1 -1
BITMAP
038E00
039E00
039E00
010000
001000
00F000
00F800
00F800
01F800
01F800
01F800
03FC00
03FC00
07FC00
07FE00
07FE00
0F7E00
0E7F00
1E3F00
1C3F00
3FFF80
3FFF80
3FBFC0
7C3FC0
7C3FC0
FC1FE0
FC1FE0
E00000
ENDCHAR
STARTCHAR 00E5
ENCODING 229
SWIDTH 630 0
DWIDTH 21 0
BBX 19 30 1 -1
BITMAP
00F000
03FC00
03DC00
071E00
070E00
079E00
07FC00
03F800
00F800
00F800
01F800
01F800
01F800
03FC00
03FC00
07FC00
07FE00
07FE00
0F7E00
0E7F00
1E3F00
1C3F00
3FFF80
3FFF80
3FBFC0
7C3FC0
7C3FC0
FC1FE0
FC1FE0
E00000
ENDCHAR
STARTCHAR 00E6
ENCODING 230
SWIDTH 720 0
DWIDTH 24 0
BBX 23 24 1 -1
BITMAP
003FE0
00FFF0
00FFE0
00FFE0
01FFE0
01FFE0
01FFE0
03FE00
03FE00
07FE60
07FFE0
07FFE0
0F7FE0
0E7E00
1E3F0C
1C7FFC
3FFFFC
3FFFFE
7F3FFE
7C3FFE
7C1FFE
FC1FF0
FC1F00
C00000
ENDCHAR
STARTCHAR 00E7
ENCODING 231
SWIDTH 480 0
DWIDTH 16 0
BBX 15 29 1 -6
BITMAP
00C0
07F8
1FFC
3FFE
7FFE
FFFE
FFFC
FF00
FE00
FC00
FC00
FC00
FE00
FFFC
FFFE
FFFE
FFFE
7FFC
7FFE
3FFC
3FF8
0FF0
07C0
0780
03C0
01E0
3FE0
3FE0
0200
ENDCHAR
STARTCHAR 00E8
ENCODING 232
SWIDTH 480 0
DWIDTH 16 0
BBX 15 29 1 0
BITMAP
F000
F800
7C00
3C00
1E00
0000
7FE0
FFF0
FFE0
FFE0
FFE0
7FE0
7FE0
7C00
7E00
7EE0
7FE0
3FE0
3FE0
3E00
3FEC
3FFC
3FFC
1FFC
1FFE
1FFE
1FFE
1FE0
1E00
ENDCHAR
STARTCHAR 00E9
ENCODING 233
SWIDTH 480 0
DWIDTH 16 0
BBX 15 29 1 1
BITMAP
0780
0F80
0F00
0E00
1E00
0000
7FE0
FFF0
FFE0
FFE0
FFE0
7FE0
7FE0
7C00
7E00
7EE0
7FE0
3FE0
3FE0
3E00
3FEC
3FFC
3FFC
1FFC
1FFE
1FFE
1FFE
1FE0
1E00
ENDCHAR
STARTCHAR 00EA
ENCODING 234
SWIDTH 480 0
DWIDTH 16 0
BBX 15 29 1 0
BITMAP
1C00
3F00
7F80
F7C0
E100
0000
7FE0
FFF0
FFE0
FFE0
FFE0
7FE0
7FE0
7C00
7E00
7EE0
7FE0
3FE0
3FE0
3E00
3FEC
3FFC
3FFC
1FFC
1FFE
1FFE
1FFE
1FE0
1E00
ENDCHAR
STARTCHAR 00EB
ENCODING 235
SWIDTH 480 0
DWIDTH 16 0
BBX 15 28 1 0
BITMAP
0300
E780
E780
E300
4000
7FE0
FFF0
FFE0
FFE0
FFE0
7FE0
7FE0
7C00
7E00
7EE0
7FE0
3FE0
3FE0
3E00
3FEC
3FFC
3FFC
1FFC
1FFE
1FFE
1FFE
1FE0
1E00
ENDCHAR
STARTCHAR 00EC
ENCODING 236
SWIDTH 330 0
DWIDTH 11 0
BBX 10 29 1 0
BITMAP
7C00
3C00
3E00
1E00
0F00
0000
0000
3FC0
3F80
3F80
3F80
3F80
3F80
3F80
7F80
7F00
7F00
7F00
7F00
7F00
7F00
7F00
7F00
7F00
7F00
7F00
7F00
FF00
F000
ENDCHAR
STARTCHAR 00ED
ENCODING 237
SWIDTH 330 0
DWIDTH 11 0
BBX 11 29 1 0
BITMAP
01E0
03E0
03C0
0780
0700
0000
0000
3FC0
3F80
3F80
3F80
3F80
3F80
3F80
7F80
7F00
7F00
7F00
7F00
7F00
7F00
7F00
7F00
7F00
7F00
7F00
7F00
FF00
F000
ENDCHAR
STARTCHAR 00EE
ENCODING 238
SWIDTH 330 0
DWIDTH 11 0
BBX 11 29 1 0
BITMAP
0600
0F80
3FC0
7FE0
79E0
0000
0000
3FC0
3F80
3F80
3F80
3F80
3F80
3F80
7F80
7F00
7F00
7F00
7F00
7F00
7F00
7F00
7F00
7F00
7F00
7F00
7F00
FF00
F000
ENDCHAR
STARTCHAR 00EF
ENCODING 239
SWIDTH 330 0
DWIDTH 11 0
BBX 11 27 1 0
BITMAP
38C0
39E0
39C0
1000
0000
3FC0
3F80
3F80
3F80
3F80
3F80
3F80
7F80
7F00
7F00
7F00
7F00
7F00
7F00
7F00
7F00
7F00
7F00
7F00
7F00
FF00
F000
ENDCHAR
STARTCHAR 00F0
ENCODING 240
SWIDTH 480 0
DWIDTH 16 0
BBX 16 23 0 0
BITMAP
1F00
3FC0
3FF0
3FF8
3FFC
3FFE
3F7E
3F1E
3FCF
FFDF
FFDF
FFDF
FF3E
1F7E
1FFC
1FFC
1FF8
1FF8
0FF0
0FE0
0FC0
0F00
0400
ENDCHAR
STARTCHAR 00F1
ENCODING 241
SWIDTH 540 0
DWIDTH 18 0
BBX 17 28 1 0
BITMAP
03DE00
07FE00
07FC00
077800
000000
000000
3F0F80
3F9F80
7F1F80
7F1F80
7F1F80
7F9F80
7F9F80
7F9F80
7FDF80
FFDF00
FFDF00
FFFF00
FFFF00
FFFF00
FEFF00
FEFF00
FEFF00
FC7F00
FC7F00
FC7F00
FC7F00
E00800
ENDCHAR
STARTCHAR 00F2
ENCODING 242
SWIDTH 510 0
DWIDTH 17 0
BBX 16 29 1 0
BITMAP
F000
F800
7800
3C00
1C00
0000
0F00
1FC0
1FE0
3FF8
3FF8
7FFC
7FFE
FFFE
FE7E
FC3F
FC3F
FC3F
FC3F
FC7F
FFFF
FFFF
FFFF
7FFF
7FFE
3FFE
3FFE
1FF8
07F0
ENDCHAR
STARTCHAR 00F3
ENCODING 243
SWIDTH 510 0
DWIDTH 17 0
BBX 16 29 1 0
BITMAP
01E0
03E0
07C0
0780
0F00
0000
0F00
1FC0
1FE0
3FF8
3FF8
7FFC
7FFE
FFFE
FE7E
FC3F
FC3F
FC3F
FC3F
FC7F
FFFF
FFFF
FFFF
7FFF
7FFE
3FFE
3FFE
1FF8
07F0
ENDCHAR
STARTCHAR 00F4
ENCODING 244
SWIDTH 510 0
DWIDTH 17 0
BBX 16 29 1 0
BITMAP
0E00
1F00
3F80
7FC0
71C0
0000
0F00
1FC0
1FE0
3FF8
3FF8
7FFC
7FFE
FFFE
FE7E
FC3F
FC3F
FC3F
FC3F
FC7F
FFFF
FFFF
FFFF
7FFF
7FFE
3FFE
3FFE
1FF8
07F0
ENDCHAR
STARTCHAR 00F5
ENCODING 245
SWIDTH 510 0
DWIDTH 17 0
BBX 16 29 1 0
BITMAP
01C0
79C0
7FC0
7F80
6780
6000
0F00
1FC0
1FE0
3FF8
3FF8
7FFC
7FFE
FFFE
FE7E
FC3F
FC3F
FC3F
FC3F
FC7F
FFFF
FFFF
FFFF
7FFF
7FFE
3FFE
3FFE
1FF8
07F0
ENDCHAR
STARTCHAR 00F6
ENCODING 246
SWIDTH 510 0
DWIDTH 17 0
BBX 16 27 1 0
BITMAP
31C0
73C0
71C0
3000
0F00
1FC0
1FE0
3FF8
3FF8
7FFC
7FFE
FFFE
FE7E
FC3F
FC3F
FC3F
FC3F
FC7F
FFFF
FFFF
FFFF
7FFF
7FFE
3FFE
3FFE
1FF8
07F0
ENDCHAR
STARTCHAR 00F7
ENCODING 247
SWIDTH 480 0
DWIDTH 16 0
BBX 14 17 1 4
BITMAP
0780
0FC0
0FC0
0F80
0380
0000
FFFC
FFFC
FFFC
FFFC
4000
0000
0780
0FC0
0FC0
0F80
0780
ENDCHAR
STARTCHAR 00F8
ENCODING 248
SWIDTH 510 0
DWIDTH 17 0
BBX 18 24 0 -1
BITMAP
000440
078FC0
0FEF80
0FFF80
1FFF00
1FFF00
3FFE00
3FFF00
7FFF00
7EFF80
7DFF80
79FF80
7BEF80
7BCF80
7FDF80
7FBF80
7FFF80
7FFF80
3FFF80
3FFF00
3FFF00
7FFF00
FFFC00
F3F800
ENDCHAR
STARTCHAR 00F9
ENCODING 249
SWIDTH 540 0
DWIDTH 18 0
BBX 17 28 1 1
BITMAP
0F0000
0F8000
078000
03C000
01C000
000000
380000
7E1F80
7C1F80
7C0F80
7C0F80
7C1F80
FC1F80
FC1F80
FC1F80
FC1F80
FC1F80
FC1F80
FE3F80
FFFF00
FFFF00
FFFF00
FFFE00
7FFE00
7FFC00
3FF800
3FF800
0FF000
ENDCHAR
STARTCHAR 00FA
ENCODING 250
SWIDTH 540 0
DWIDTH 18 0
BBX 17 28 1 1
BITMAP
003C00
003C00
007800
00F000
00F000
000000
380000
7E1F80
7C1F80
7C0F80
7C0F80
7C1F80
FC1F80
FC1F80
FC1F80
FC1F80
FC1F80
FC1F80
FE3F80
FFFF00
FFFF00
FFFF00
FFFE00
7FFE00
7FFC00
3FF800
3FF800
0FF000
ENDCHAR
STARTCHAR 00FB
ENCODING 251
SWIDTH 540 0
DWIDTH 18 0
BBX 17 28 1 1
BITMAP
004000
01F000
03F800
07FC00
0F1C00
000000
380000
7E1F80
7C1F80
7C0F80
7C0F80
7C1F80
FC1F80
FC1F80
FC1F80
FC1F80
FC1F80
FC1F80
FE3F80
FFFF00
FFFF00
FFFF00
FFFE00
7FFE00
7FFC00
3FF800
3FF800
0FF000
ENDCHAR
STARTCHAR 00FC
ENCODING 252
SWIDTH 540 0
DWIDTH 18 0
BBX 17 26 1 1
BITMAP
071800
073C00
073C00
001800
380000
7E1F80
7C1F80
7C0F80
7C0F80
7C1F80
FC1F80
FC1F80
FC1F80
FC1F80
FC1F80
FC1F80
FE3F80
FFFF00
FFFF00
FFFF00
FFFE00
7FFE00
7FFC00
3FF800
3FF800
0FF000
ENDCHAR
STARTCHAR 00FD
ENCODING 253
SWIDTH 600 0
DWIDTH 20 0
BBX 19 29 1 0
BITMAP
003E00
003C00
007C00
007800
00F000
000000
0003E0
1807C0
FC07C0
FC0FC0
FE0F80
7E1F80
7F1F00
3F3F00
3F3E00
1FFE00
1FFC00
0FFC00
0FF800
07F800
07F000
03F000
03F000
01F000
01F000
01F000
01F000
01F000
01F000
ENDCHAR
STARTCHAR 00FE
ENCODING 254
SWIDTH 480 0
DWIDTH 16 0
BBX 15 23 1 0
BITMAP
F800
F800
FC00
FF00
FFE0
FFF8
FFF8
FFFC
FC7C
FC3C
FC3E
FC3E
FC3E
FC7E
FEFE
FFFE
FFFC
7FF8
FFC0
FE00
7E00
7E00
7E00
ENDCHAR
STARTCHAR 00FF
ENCODING 255
SWIDTH 600 0
DWIDTH 20 0
BBX 19 27 1 0
BITMAP
071C00
073C00
073C00
030000
0003E0
1807C0
FC07C0
FC0FC0
FE0F80
7E1F80
7F1F00
3F3F00
3F3E00
1FFE00
1FFC00
0FFC00
0FF800
07F800
07F000
03F000
03F000
01F000
01F000
01F000
01F000
01F000
01F000
ENDCHAR
STARTCHAR 0100
ENCODING 256
SWIDTH 630 0
DWIDTH 21 0
BBX 19 28 1 -1
BITMAP
03FE00
03FE00
07FE00
000000
001000
00F000
00F800
00F800
01F800
01F800
01F800
03FC00
03FC00
07FC00
07FE00
07FE00
0F7E00
0E7F00
1E3F00
1C3F00
3FFF80
3FFF80
3FBFC0
7C3FC0
7C3FC0
FC1FE0
FC1FE0
E00000
ENDCHAR
STARTCHAR 0101
ENCODING 257
SWIDTH 630 0
DWIDTH 21 0
BBX 19 28 1 -1
BITMAP
03FE00
03FE00
07FE00
000000
001000
00F000
00F800
00F800
01F800
01F800
01F800
03FC00
03FC00
07FC00
07FE00
07FE00
0F7E00
0E7F00
1E3F00
1C3F00
3FFF80
3FFF80
3FBFC0
7C3FC0
7C3FC0
FC1FE0
FC1FE0
E00000
ENDCHAR
STARTCHAR 0102
ENCODING 258
SWIDTH 630 0
DWIDTH 21 0
BBX 19 30 1 -1
BITMAP
070E00
070E00
03FE00
03FC00
01F800
000000
001000
00F000
00F800
00F800
01F800
01F800
01F800
03FC00
03FC00
07FC00
07FE00
07FE00
0F7E00
0E7F00
1E3F00
1C3F00
3FFF80
3FFF80
3FBFC0
7C3FC0
7C3FC0
FC1FE0
FC1FE0
E00000
ENDCHAR
STARTCHAR 0103
ENCODING 259
SWIDTH 630 0
DWIDTH 21 0
BBX 19 30 1 -1
BITMAP
070E00
070E00
03FE00
03FC00
01F800
000000
001000
00F000
00F800
00F800
01F800
01F800
01F800
03FC00
03FC00
07FC00
07FE00
07FE00
0F7E00
0E7F00
1E3F00
1C3F00
3FFF80
3FFF80
3FBFC0
7C3FC0
7C3FC0
FC1FE0
FC1FE0
E00000
ENDCHAR
STARTCHAR 0104
ENCODING 260
SWIDTH 630 0
DWIDTH 21 0
BBX 19 29 1 -6
BITMAP
001000
00F000
00F800
00F800
01F800
01F800
01F800
03FC00
03FC00
07FC00
07FE00
07FE00
0F7E00
0E7F00
1E3F00
1C3F00
3FFF80
3FFF80
3FBFC0
7C3FC0
7C3FC0
FC1FE0
FC1FE0
E03800
003800
007840
007FC0
003FC0
000B00
ENDCHAR
STARTCHAR 0105
ENCODING 261
SWIDTH 630 0
DWIDTH 21 0
BBX 19 29 1 -6
BITMAP
001000
00F000
00F800
00F800
01F800
01F800
01F800
03FC00
03FC00
07FC00
07FE00
07FE00
0F7E00
0E7F00
1E3F00
1C3F00
3FFF80
3FFF80
3FBFC0
7C3FC0
7C3FC0
FC1FE0
FC1FE0
E03800
003800
007840
007FC0
003FC0
000B00
ENDCHAR
STARTCHAR 0106
ENCODING 262
SWIDTH 480 0
DWIDTH 16 0
BBX 15 29 1 0
BITMAP
003C
007C
0078
00F0
00E0
0000
00C0
07F8
1FFC
3FFE
7FFE
FFFE
FFFC
FF00
FE00
FC00
FC00
FC00
FE00
FFFC
FFFE
FFFE
FFFE
7FFC
7FFE
3FFC
3FF8
0FF0
00C0
ENDCHAR
STARTCHAR 0107
ENCODING 263
SWIDTH 480 0
DWIDTH 16 0
BBX 15 29 1 0
BITMAP
003C
007C
0078
00F0
00E0
0000
00C0
07F8
1FFC
3FFE
7FFE
FFFE
FFFC
FF00
FE00
FC00
FC00
FC00
FE00
FFFC
FFFE
FFFE
FFFE
7FFC
7FFE
3FFC
3FF8
0FF0
00C0
ENDCHAR
STARTCHAR 0108
ENCODING 264
SWIDTH 480 0
DWIDTH 16 0
BBX 15 29 1 0
BITMAP
00C0
03E0
07F8
0FFC
0F3C
0000
00C0
07F8
1FFC
3FFE
7FFE
FFFE
FFFC
FF00
FE00
FC00
FC00
FC00
FE00
FFFC
FFFE
FFFE
FFFE
7FFC
7FFE
3FFC
3FF8
0FF0
00C0
ENDCHAR
STARTCHAR 0109
ENCODING 265
SWIDTH 480 0
DWIDTH 16 0
BBX 15 29 1 0
BITMAP
00C0
03E0
07F8
0FFC
0F3C
0000
00C0
07F8
1FFC
3FFE
7FFE
FFFE
FFFC
FF00
FE00
FC00
FC00
FC00
FE00
FFFC
FFFE
FFFE
FFFE
7FFC
7FFE
3FFC
3FF8
0FF0
00C0
ENDCHAR
STARTCHAR 010A
ENCODING 266
SWIDTH 480 0
DWIDTH 16 0
BBX 15 27 1 0
BITMAP
00C0
01C0
01C0
00C0
00C0
07F8
1FFC
3FFE
7FFE
FFFE
FFFC
FF00
FE00
FC00
FC00
FC00
FE00
FFFC
FFFE
FFFE
FFFE
7FFC
7FFE
3FFC
3FF8
0FF0
00C0
ENDCHAR
STARTCHAR 010B
ENCODING 267
SWIDTH 480 0
DWIDTH 16 0
BBX 15 27 1 0
BITMAP
00C0
01C0
01C0
00C0
00C0
07F8
1FFC
3FFE
7FFE
FFFE
FFFC
FF00
FE00
FC00
FC00
FC00
FE00
FFFC
FFFE
FFFE
FFFE
7FFC
7FFE
3FFC
3FF8
0FF0
00C0
ENDCHAR
STARTCHAR 010C
ENCODING 268
SWIDTH 480 0
DWIDTH 16 0
BBX 15 29 1 0
BITMAP
0E18
0F3C
07F8
03F0
01E0
0000
00C0
07F8
1FFC
3FFE
7FFE
FFFE
FFFC
FF00
FE00
FC00
FC00
FC00
FE00
FFFC
FFFE
FFFE
FFFE
7FFC
7FFE
3FFC
3FF8
0FF0
00C0
ENDCHAR
STARTCHAR 010D
ENCODING 269
SWIDTH 480 0
DWIDTH 16 0
BBX 15 29 1 0
BITMAP
0E18
0F3C
07F8
03F0
01E0
0000
00C0
07F8
1FFC
3FFE
7FFE
FFFE
FFFC
FF00
FE00
FC00
FC00
FC00
FE00
FFFC
FFFE
FFFE
FFFE
7FFC
7FFE
3FFC
3FF8
0FF0
00C0
ENDCHAR
STARTCHAR 010E
ENCODING 270
SWIDTH 450 0
DWIDTH 15 0
BBX 14 29 1 0
BITMAP
4380
F780
FF00
7F00
1C00
0000
7C00
FF00
FFC0
FFE0
FFF0
FFF0
FDF8
FC78
FC3C
FC7C
FC7C
FC7C
FCF8
FDF8
7FF0
7FF0
7FE0
7FE0
3FC0
3F80
3F00
3C00
1000
ENDCHAR
STARTCHAR 010F
ENCODING 271
SWIDTH 450 0
DWIDTH 15 0
BBX 14 29 1 0
BITMAP
4380
F780
FF00
7F00
1C00
0000
7C00
FF00
FFC0
FFE0
FFF0
FFF0
FDF8
FC78
FC3C
FC7C
FC7C
FC7C
FCF8
FDF8
7FF0
7FF0
7FE0
7FE0
3FC0
3F80
3F00
3C00
1000
ENDCHAR
STARTCHAR 0110
ENCODING 272
SWIDTH 480 0
DWIDTH 16 0
BBX 16 23 0 0
BITMAP
1F00
3FC0
3FF0
3FF8
3FFC
3FFE
3F7E
3F1E
3FCF
FFDF
FFDF
FFDF
FF3E
1F7E
1FFC
1FFC
1FF8
1FF8
0FF0
0FE0
0FC0
0F00
0400
ENDCHAR
STARTCHAR 0111
ENCODING 273
SWIDTH 480 0
DWIDTH 16 0
BBX 16 23 0 0
BITMAP
1F00
3FC0
3FF0
3FF8
3FFC
3FFE
3F7E
3F1E
3FCF
FFDF
FFDF
FFDF
FF3E
1F7E
1FFC
1FFC
1FF8
1FF8
0FF0
0FE0
0FC0
0F00
0400
ENDCHAR
STARTCHAR 0112
ENCODING 274
SWIDTH 480 0
DWIDTH 16 0
BBX 15 27 1 0
BITMAP
7F80
FF80
FE00
0000
7FE0
FFF0
FFE0
FFE0
FFE0
7FE0
7FE0
7C00
7E00
7EE0
7FE0
3FE0
3FE0
3E00
3FEC
3FFC
3FFC
1FFC
1FFE
1FFE
1FFE
1FE0
1E00
ENDCHAR
STARTCHAR 0113
ENCODING 275
SWIDTH 480 0
DWIDTH 16 0
BBX 15 27 1 0
BITMAP
7F80
FF80
FE00
0000
7FE0
FFF0
FFE0
FFE0
FFE0
7FE0
7FE0
7C00
7E00
7EE0
7FE0
3FE0
3FE0
3E00
3FEC
3FFC
3FFC
1FFC
1FFE
1FFE
1FFE
1FE0
1E00
ENDCHAR
STARTCHAR 0114
ENCODING 276
SWIDTH 480 0
DWIDTH 16 0
BBX 15 29 1 0
BITMAP
C380
E780
FF80
7F00
3E00
0000
7FE0
FFF0
FFE0
FFE0
FFE0
7FE0
7FE0
7C00
7E00
7EE0
7FE0
3FE0
3FE0
3E00
3FEC
3FFC
3FFC
1FFC
1FFE
1FFE
1FFE
1FE0
1E00
ENDCHAR
STARTCHAR 0115
ENCODING 277
SWIDTH 480 0
DWIDTH 16 0
BBX 15 29 1 0
BITMAP
C380
E780
FF80
7F00
3E00
0000
7FE0
FFF0
FFE0
FFE0
FFE0
7FE0
7FE0
7C00
7E00
7EE0
7FE0
3FE0
3FE0
3E00
3FEC
3FFC
3FFC
1FFC
1FFE
1FFE
1FFE
1FE0
1E00
ENDCHAR
STARTCHAR 0116
ENCODING 278
SWIDTH 480 0
DWIDTH 16 0
BBX 15 27 1 1
BITMAP
1C00
1C00
1C00
0000
7FE0
FFF0
FFE0
FFE0
FFE0
7FE0
7FE0
7C00
7E00
7EE0
7FE0
3FE0
3FE0
3E00
3FEC
3FFC
3FFC
1FFC
1FFE
1FFE
1FFE
1FE0
1E00
ENDCHAR
STARTCHAR 0117
ENCODING 279
SWIDTH 480 0
DWIDTH 16 0
BBX 15 27 1 1
BITMAP
1C00
1C00
1C00
0000
7FE0
FFF0
FFE0
FFE0
FFE0
7FE0
7FE0
7C00
7E00
7EE0
7FE0
3FE0
3FE0
3E00
3FEC
3FFC
3FFC
1FFC
1FFE
1FFE
1FFE
1FE0
1E00
ENDCHAR
STARTCHAR 0118
ENCODING 280
SWIDTH 480 0
DWIDTH 16 0
BBX 15 28 1 -5
BITMAP
7FE0
FFF0
FFE0
FFE0
FFE0
7FE0
7FE0
7C00
7E00
7EE0
7FE0
3FE0
3FE0
3E00
3FEC
3FFC
3FFC
1FFC
1FFE
1FFE
1FFE
1FE0
1FC0
01C0
0380
03FE
03FE
01F8
ENDCHAR
STARTCHAR 0119
ENCODING 281
SWIDTH 480 0
DWIDTH 16 0
BBX 15 28 1 -5
BITMAP
7FE0
FFF0
FFE0
FFE0
FFE0
7FE0
7FE0
7C00
7E00
7EE0
7FE0
3FE0
3FE0
3E00
3FEC
3FFC
3FFC
1FFC
1FFE
1FFE
1FFE
1FE0
1FC0
01C0
0380
03FE
03FE
01F8
ENDCHAR
STARTCHAR 011A
ENCODING 282
SWIDTH 480 0
DWIDTH 16 0
BBX 15 29 1 0
BITMAP
4380
F780
FF00
7F00
1C00
0000
7FE0
FFF0
FFE0
FFE0
FFE0
7FE0
7FE0
7C00
7E00
7EE0
7FE0
3FE0
3FE0
3E00
3FEC
3FFC
3FFC
1FFC
1FFE
1FFE
1FFE
1FE0
1E00
ENDCHAR
STARTCHAR 011B
ENCODING 283
SWIDTH 480 0
DWIDTH 16 0
BBX 15 29 1 0
BITMAP
4380
F780
FF00
7F00
1C00
0000
7FE0
FFF0
FFE0
FFE0
FFE0
7FE0
7FE0
7C00
7E00
7EE0
7FE0
3FE0
3FE0
3E00
3FEC
3FFC
3FFC
1FFC
1FFE
1FFE
1FFE
1FE0
1E00
ENDCHAR
STARTCHAR 011C
ENCODING 284
SWIDTH 480 0
DWIDTH 16 0
BBX 15 29 1 0
BITMAP
0180
03E0
0FF0
1FF8
1E38
0000
03E0
07F8
0FFC
1FFE
3FFC
3F38
3C00
7C00
7800
7800
F8FE
F8FE
F8FE
F8FE
F8FE
FCFE
FFFE
FFFE
FFFC
FFF8
7FE0
3FC0
0800
ENDCHAR
STARTCHAR 011D
ENCODING 285
SWIDTH 480 0
DWIDTH 16 0
BBX 15 29 1 0
BITMAP
0180
03E0
0FF0
1FF8
1E38
0000
03E0
07F8
0FFC
1FFE
3FFC
3F38
3C00
7C00
7800
7800
F8FE
F8FE
F8FE
F8FE
F8FE
FCFE
FFFE
FFFE
FFFC
FFF8
7FE0
3FC0
0800
ENDCHAR
STARTCHAR 011E
ENCODING 286
SWIDTH 480 0
DWIDTH 16 0
BBX 15 29 1 0
BITMAP
1C38
1C38
0FF8
0FF0
07E0
0000
03E0
07F8
0FFC
1FFE
3FFC
3F38
3C00
7C00
7800
7800
F8FE
F8FE
F8FE
F8FE
F8FE
FCFE
FFFE
FFFE
FFFC
FFF8
7FE0
3FC0
0800
ENDCHAR
STARTCHAR 011F
ENCODING 287
SWIDTH 480 0
DWIDTH 16 0
BBX 15 29 1 0
BITMAP
1C38
1C38
0FF8
0FF0
07E0
0000
03E0
07F8
0FFC
1FFE
3FFC
3F38
3C00
7C00
7800
7800
F8FE
F8FE
F8FE
F8FE
F8FE
FCFE
FFFE
FFFE
FFFC
FFF8
7FE0
3FC0
0800
ENDCHAR
STARTCHAR 0120
ENCODING 288
SWIDTH 480 0
DWIDTH 16 0
BBX 15 27 1 0
BITMAP
0180
03C0
03C0
0180
03E0
07F8
0FFC
1FFE
3FFC
3F38
3C00
7C00
7800
7800
F8FE
F8FE
F8FE
F8FE
F8FE
FCFE
FFFE
FFFE
FFFC
FFF8
7FE0
3FC0
0800
ENDCHAR
STARTCHAR 0121
ENCODING 289
SWIDTH 480 0
DWIDTH 16 0
BBX 15 27 1 0
BITMAP
0180
03C0
03C0
0180
03E0
07F8
0FFC
1FFE
3FFC
3F38
3C00
7C00
7800
7800
F8FE
F8FE
F8FE
F8FE
F8FE
FCFE
FFFE
FFFE
FFFC
FFF8
7FE0
3FC0
0800
ENDCHAR
STARTCHAR 0122
ENCODING 290
SWIDTH 480 0
DWIDTH 16 0
BBX 15 28 1 -6
BITMAP
03E0
07F8
0FFC
1FFE
3FFC
3F38
3C00
7C00
7800
7800
F8FE
F8FE
F8FE
F8FE
F8FE
FCFE
FFFE
FFFE
FFFC
FFF8
7FE0
3FC0
0800
0E00
1F00
1F00
1E00
1E00
ENDCHAR
STARTCHAR 0123
ENCODING 291
SWIDTH 480 0
DWIDTH 16 0
BBX 15 28 1 -6
BITMAP
03E0
07F8
0FFC
1FFE
3FFC
3F38
3C00
7C00
7800
7800
F8FE
F8FE
F8FE
F8FE
F8FE
FCFE
FFFE
FFFE
FFFC
FFF8
7FE0
3FC0
0800
0E00
1F00
1F00
1E00
1E00
ENDCHAR
STARTCHAR 0124
ENCODING 292
SWIDTH 540 0
DWIDTH 18 0
BBX 17 29 1 0
BITMAP
003000
00F800
01FC00
03FE00
03CF00
000000
030000
3F8F80
7F0F80
3F9F80
3F9F80
3F1F80
3F1F80
7F1F80
7F1F80
7FFF80
7FFF80
7FFF80
7FFF00
7FFF80
7FFF80
7F3F80
7F3F80
7F3F80
FF3F80
FF3F00
FF3F00
FE3F00
080000
ENDCHAR
STARTCHAR 0125
ENCODING 293
SWIDTH 540 0
DWIDTH 18 0
BBX 17 29 1 0
BITMAP
003000
00F800
01FC00
03FE00
03CF00
000000
030000
3F8F80
7F0F80
3F9F80
3F9F80
3F1F80
3F1F80
7F1F80
7F1F80
7FFF80
7FFF80
7FFF80
7FFF00
7FFF80
7FFF80
7F3F80
7F3F80
7F3F80
FF3F80
FF3F00
FF3F00
FE3F00
080000
ENDCHAR
STARTCHAR 0126
ENCODING 294
SWIDTH 570 0
DWIDTH 19 0
BBX 18 23 1 0
BITMAP
030000
3F8F80
7F0F80
FFFFC0
FFFFC0
FFFFC0
FFFFC0
7F1F80
7F1F80
7FFF80
7FFF80
7FFF00
7FFF00
7FFF80
7FFF80
7F3F80
7F3F80
7F3F80
FF3F80
FF3F00
FF3F00
FE3F00
040000
ENDCHAR
STARTCHAR 0127
ENCODING 295
SWIDTH 570 0
DWIDTH 19 0
BBX 18 23 1 0
BITMAP
030000
3F8F80
7F0F80
FFFFC0
FFFFC0
FFFFC0
FFFFC0
7F1F80
7F1F80
7FFF80
7FFF80
7FFF00
7FFF00
7FFF80
7FFF80
7F3F80
7F3F80
7F3F80
FF3F80
FF3F00
FF3F00
FE3F00
040000
ENDCHAR
STARTCHAR 0128
ENCODING 296
SWIDTH 330 0
DWIDTH 11 0
BBX 11 28 1 0
BITMAP
3CE0
7FE0
7FE0
77C0
0000
0000
3FC0
3F80
3F80
3F80
3F80
3F80
3F80
7F80
7F00
7F00
7F00
7F00
7F00
7F00
7F00
7F00
7F00
7F00
7F00
7F00
FF00
F000
ENDCHAR
STARTCHAR 0129
ENCODING 297
SWIDTH 330 0
DWIDTH 11 0
BBX 11 28 1 0
BITMAP
3CE0
7FE0
7FE0
77C0
0000
0000
3FC0
3F80
3F80
3F80
3F80
3F80
3F80
7F80
7F00
7F00
7F00
7F00
7F00
7F00
7F00
7F00
7F00
7F00
7F00
7F00
FF00
F000
ENDCHAR
STARTCHAR 012A
ENCODING 298
SWIDTH 330 0
DWIDTH 11 0
BBX 11 27 1 0
BITMAP
7FE0
7FE0
7FE0
0000
0000
3FC0
3F80
3F80
3F80
3F80
3F80
3F80
7F80
7F00
7F00
7F00
7F00
7F00
7F00
7F00
7F00
7F00
7F00
7F00
7F00
FF00
F000
ENDCHAR
STARTCHAR 012B
ENCODING 299
SWIDTH 330 0
DWIDTH 11 0
BBX 11 27 1 0
BITMAP
7FE0
7FE0
7FE0
0000
0000
3FC0
3F80
3F80
3F80
3F80
3F80
3F80
7F80
7F00
7F00
7F00
7F00
7F00
7F00
7F00
7F00
7F00
7F00
7F00
7F00
FF00
F000
ENDCHAR
STARTCHAR 012C
ENCODING 300
SWIDTH 330 0
DWIDTH 11 0
BBX 11 29 1 0
BITMAP
70E0
70E0
3FE0
3FC0
1F80
0000
0000
3FC0
3F80
3F80
3F80
3F80
3F80
3F80
7F80
7F00
7F00
7F00
7F00
7F00
7F00
7F00
7F00
7F00
7F00
7F00
7F00
FF00
F000
ENDCHAR
STARTCHAR 012D
ENCODING 301
SWIDTH 330 0
DWIDTH 11 0
BBX 11 29 1 0
BITMAP
70E0
70E0
3FE0
3FC0
1F80
0000
0000
3FC0
3F80
3F80
3F80
3F80
3F80
3F80
7F80
7F00
7F00
7F00
7F00
7F00
7F00
7F00
7F00
7F00
7F00
7F00
7F00
FF00
F000
ENDCHAR
STARTCHAR 012E
ENCODING 302
SWIDTH 330 0
DWIDTH 11 0
BBX 10 28 1 -6
BITMAP
3FC0
3F80
3F80
3F80
3F80
3F80
3F80
7F80
7F00
7F00
7F00
7F00
7F00
7F00
7F00
7F00
7F00
7F00
7F00
7F00
FF00
F800
3800
7000
7000
7FC0
7FC0
0600
ENDCHAR
STARTCHAR 012F
ENCODING 303
SWIDTH 330 0
DWIDTH 11 0
BBX 10 28 1 -6
BITMAP
3FC0
3F80
3F80
3F80
3F80
3F80
3F80
7F80
7F00
7F00
7F00
7F00
7F00
7F00
7F00
7F00
7F00
7F00
7F00
7F00
FF00
F800
3800
7000
7000
7FC0
7FC0
0600
ENDCHAR
STARTCHAR 0130
ENCODING 304
SWIDTH 330 0
DWIDTH 11 0
BBX 10 27 1 0
BITMAP
0700
0F00
0F00
0000
0000
3FC0
3F80
3F80
3F80
3F80
3F80
3F80
7F80
7F00
7F00
7F00
7F00
7F00
7F00
7F00
7F00
7F00
7F00
7F00
7F00
FF00
F000
ENDCHAR
STARTCHAR 0131
ENCODING 305
SWIDTH 330 0
DWIDTH 11 0
BBX 10 27 1 0
BITMAP
0700
0F00
0F00
0000
0000
3FC0
3F80
3F80
3F80
3F80
3F80
3F80
7F80
7F00
7F00
7F00
7F00
7F00
7F00
7F00
7F00
7F00
7F00
7F00
7F00
FF00
F000
ENDCHAR
STARTCHAR 0132
ENCODING 306
SWIDTH 600 0
DWIDTH 20 0
BBX 19 23 1 0
BITMAP
000040
7F0FC0
3E0FC0
3E0FC0
7E0FC0
7E0FC0
7E0FC0
7E0FC0
7E0FE0
7E0FE0
7E0FE0
7E0FE0
7E0FE0
7E0FE0
7E07E0
7E27C0
7FF7C0
7FF7C0
7FFFC0
FCFF80
FCFF80
FC7F00
E01E00
ENDCHAR
STARTCHAR 0133
ENCODING 307
SWIDTH 600 0
DWIDTH 20 0
BBX 19 23 1 0
BITMAP
000040
7F0FC0
3E0FC0
3E0FC0
7E0FC0
7E0FC0
7E0FC0
7E0FC0
7E0FE0
7E0FE0
7E0FE0
7E0FE0
7E0FE0
7E0FE0
7E07E0
7E27C0
7FF7C0
7FF7C0
7FFFC0
FCFF80
FCFF80
FC7F00
E01E00
ENDCHAR
STARTCHAR 0134
ENCODING 308
SWIDTH 450 0
DWIDTH 15 0
BBX 14 29 1 0
BITMAP
00E0
03F0
03FC
07BC
0F1C
0000
0008
03F8
03F8
03F8
07F8
07F8
07F8
07FC
07FC
07FC
07FC
07FC
03FC
03FC
03FC
11FC
F9F8
FBF8
FDF8
FFF0
7FE0
3FC0
0F80
ENDCHAR
STARTCHAR 0135
ENCODING 309
SWIDTH 450 0
DWIDTH 15 0
BBX 14 29 1 0
BITMAP
00E0
03F0
03FC
07BC
0F1C
0000
0008
03F8
03F8
03F8
07F8
07F8
07F8
07FC
07FC
07FC
07FC
07FC
03FC
03FC
03FC
11FC
F9F8
FBF8
FDF8
FFF0
7FE0
3FC0
0F80
ENDCHAR
STARTCHAR 0136
ENCODING 310
SWIDTH 540 0
DWIDTH 18 0
BBX 17 29 1 -6
BITMAP
098C00
FF9E00
FF9F80
FF3F00
FF3F00
FF7E00
FF7C00
FFF800
FFF800
FFF000
FFF000
FFE000
FFE000
FFF000
FFF800
FFFC00
FFFC00
FF7E00
FF3F00
FF1F00
FF1F80
FF0E80
DF0C00
00C000
01E000
03E000
03E000
03C000
008000
ENDCHAR
STARTCHAR 0137
ENCODING 311
SWIDTH 540 0
DWIDTH 18 0
BBX 17 29 1 -6
BITMAP
098C00
FF9E00
FF9F80
FF3F00
FF3F00
FF7E00
FF7C00
FFF800
FFF800
FFF000
FFF000
FFE000
FFE000
FFF000
FFF800
FFFC00
FFFC00
FF7E00
FF3F00
FF1F00
FF1F80
FF0E80
DF0C00
00C000
01E000
03E000
03E000
03C000
008000
ENDCHAR
STARTCHAR 0138
ENCODING 312
SWIDTH 510 0
DWIDTH 17 0
BBX 16 18 1 -1
BITMAP
FF08
FF1E
FF3F
FF7E
FF7C
FFF8
FFF0
FFF0
FFE0
FFC0
FFE0
FFF0
FFF8
FFFC
FF7E
FF3F
FF1F
FF1C
ENDCHAR
STARTCHAR 0139
ENCODING 313
SWIDTH 510 0
DWIDTH 17 0
BBX 15 29 1 -1
BITMAP
00F8
00F0
01E0
01C0
03C0
0000
03C0
1FE0
3FE0
3FE0
3FE0
3FC0
3FC0
3FC0
3FC0
3FC0
3FC0
7F80
7F80
7F80
7F80
7F80
7FFE
FFFE
7FFE
FFFE
FFFE
FFFE
FFF8
ENDCHAR
STARTCHAR 013A
ENCODING 314
SWIDTH 510 0
DWIDTH 17 0
BBX 15 29 1 -1
BITMAP
00F8
00F0
01E0
01C0
03C0
0000
03C0
1FE0
3FE0
3FE0
3FE0
3FC0
3FC0
3FC0
3FC0
3FC0
3FC0
7F80
7F80
7F80
7F80
7F80
7FFE
FFFE
7FFE
FFFE
FFFE
FFFE
FFF8
ENDCHAR
STARTCHAR 013B
ENCODING 315
SWIDTH 510 0
DWIDTH 17 0
BBX 15 29 1 -6
BITMAP
03C0
1FE0
3FE0
3FE0
3FE0
3FC0
3FC0
3FC0
3FC0
3FC0
3FC0
7F80
7F80
7F80
7F80
7F80
7FFE
FFFE
7FFE
FFFE
FFFE
FFFE
FFF8
0300
0780
0780
0780
0F00
0200
ENDCHAR
STARTCHAR 013C
ENCODING 316
SWIDTH 510 0
DWIDTH 17 0
BBX 15 29 1 -6
BITMAP
03C0
1FE0
3FE0
3FE0
3FE0
3FC0
3FC0
3FC0
3FC0
3FC0
3FC0
7F80
7F80
7F80
7F80
7F80
7FFE
FFFE
7FFE
FFFE
FFFE
FFFE
FFF8
0300
0780
0780
0780
0F00
0200
ENDCHAR
STARTCHAR 013D
ENCODING 317
SWIDTH 510 0
DWIDTH 17 0
BBX 16 24 1 -1
BITMAP
000E
03CF
1FEF
3FEF
3FEE
3FEE
3FCE
3FCC
3FC0
3FC0
3FC0
3FC0
7F80
7F80
7F80
7F80
7F80
7FFE
FFFE
7FFE
FFFE
FFFE
FFFE
FFF8
ENDCHAR
STARTCHAR 013E
ENCODING 318
SWIDTH 510 0
DWIDTH 17 0
BBX 16 24 1 -1
BITMAP
000E
03CF
1FEF
3FEF
3FEE
3FEE
3FCE
3FCC
3FC0
3FC0
3FC0
3FC0
7F80
7F80
7F80
7F80
7F80
7FFE
FFFE
7FFE
FFFE
FFFE
FFFE
FFF8
ENDCHAR
STARTCHAR 013F
ENCODING 319
SWIDTH 510 0
DWIDTH 17 0
BBX 15 23 1 -1
BITMAP
03C0
1FE0
3FE0
3FE0
3FE0
3FC0
3FC0
3FC0
3FC0
3FC0
3FDC
7FBC
7F9C
7F80
7F80
7F80
7FFE
FFFE
7FFE
FFFE
FFFE
FFFE
FFF8
ENDCHAR
STARTCHAR 0140
ENCODING 320
SWIDTH 510 0
DWIDTH 17 0
BBX 15 23 1 -1
BITMAP
03C0
1FE0
3FE0
3FE0
3FE0
3FC0
3FC0
3FC0
3FC0
3FC0
3FDC
7FBC
7F9C
7F80
7F80
7F80
7FFE
FFFE
7FFE
FFFE
FFFE
FFFE
FFF8
ENDCHAR
STARTCHAR 0141
ENCODING 321
SWIDTH 540 0
DWIDTH 18 0
BBX 18 23 0 -1
BITMAP
00F000
07F800
0FF800
0FF800
0FFB00
0FFF80
0FFF80
0FFF80
0FFF00
0FFE00
0FF800
1FF000
1FE000
3FE000
FFE000
FFE000
FFFF80
FFFF80
5FFF80
3FFF80
3FFF80
3FFFC0
3FFE00
ENDCHAR
STARTCHAR 0142
ENCODING 322
SWIDTH 540 0
DWIDTH 18 0
BBX 18 23 0 -1
BITMAP
00F000
07F800
0FF800
0FF800
0FFB00
0FFF80
0FFF80
0FFF80
0FFF00
0FFE00
0FF800
1FF000
1FE000
3FE000
FFE000
FFE000
FFFF80
FFFF80
5FFF80
3FFF80
3FFF80
3FFFC0
3FFE00
ENDCHAR
STARTCHAR 0143
ENCODING 323
SWIDTH 540 0
DWIDTH 18 0
BBX 17 29 1 0
BITMAP
001E00
003E00
003C00
007800
007000
000000
000000
3F0F80
3F9F80
7F1F80
7F1F80
7F1F80
7F9F80
7F9F80
7F9F80
7FDF80
FFDF00
FFDF00
FFFF00
FFFF00
FFFF00
FEFF00
FEFF00
FEFF00
FC7F00
FC7F00
FC7F00
FC7F00
E00800
ENDCHAR
STARTCHAR 0144
ENCODING 324
SWIDTH 540 0
DWIDTH 18 0
BBX 17 29 1 0
BITMAP
001E00
003E00
003C00
007800
007000
000000
000000
3F0F80
3F9F80
7F1F80
7F1F80
7F1F80
7F9F80
7F9F80
7F9F80
7FDF80
FFDF00
FFDF00
FFFF00
FFFF00
FFFF00
FEFF00
FEFF00
FEFF00
FC7F00
FC7F00
FC7F00
FC7F00
E00800
ENDCHAR
STARTCHAR 0145
ENCODING 325
SWIDTH 540 0
DWIDTH 18 0
BBX 17 28 1 -6
BITMAP
3F0F80
3F9F80
7F1F80
7F1F80
7F1F80
7F9F80
7F9F80
7F9F80
7FDF80
FFDF00
FFDF00
FFFF00
FFFF00
FFFF00
FEFF00
FEFF00
FEFF00
FC7F00
FC7F00
FC7F00
FC7F00
E00800
030000
078000
078000
078000
0F0000
020000
ENDCHAR
STARTCHAR 0146
ENCODING 326
SWIDTH 540 0
DWIDTH 18 0
BBX 17 28 1 -6
BITMAP
3F0F80
3F9F80
7F1F80
7F1F80
7F1F80
7F9F80
7F9F80
7F9F80
7FDF80
FFDF00
FFDF00
FFFF00
FFFF00
FFFF00
FEFF00
FEFF00
FEFF00
FC7F00
FC7F00
FC7F00
FC7F00
E00800
030000
078000
078000
078000
0F0000
020000
ENDCHAR
STARTCHAR 0147
ENCODING 327
SWIDTH 540 0
DWIDTH 18 0
BBX 17 28 1 0
BITMAP
079E00
07FE00
03FC00
01F000
006000
000000
3F0F80
3F9F80
7F1F80
7F1F80
7F1F80
7F9F80
7F9F80
7F9F80
7FDF80
FFDF00
FFDF00
FFFF00
FFFF00
FFFF00
FEFF00
FEFF00
FEFF00
FC7F00
FC7F00
FC7F00
FC7F00
E00800
ENDCHAR
STARTCHAR 0148
ENCODING 328
SWIDTH 540 0
DWIDTH 18 0
BBX 17 28 1 0
BITMAP
079E00
07FE00
03FC00
01F000
006000
000000
3F0F80
3F9F80
7F1F80
7F1F80
7F1F80
7F9F80
7F9F80
7F9F80
7FDF80
FFDF00
FFDF00
FFFF00
FFFF00
FFFF00
FEFF00
FEFF00
FEFF00
FC7F00
FC7F00
FC7F00
FC7F00
E00800
ENDCHAR
STARTCHAR 0149
ENCODING 329
SWIDTH 630 0
DWIDTH 21 0
BBX 20 24 1 0
BITMAP
F80000
F80000
FBE1E0
FFF3F0
FFF3F0
FFF3E0
F7F3E0
F7F3E0
F7F3E0
E7F3E0
E7FBE0
4FFBE0
0FFBE0
0FFFE0
0FFFE0
0FDFE0
0FDFE0
0FDFC0
0FCFC0
0FCFC0
0FCFC0
0FCFC0
0FCFC0
0E0000
ENDCHAR
STARTCHAR 014A
ENCODING 330
SWIDTH 540 0
DWIDTH 18 0
BBX 17 27 1 -4
BITMAP
F1E000
F7F800
FFFC00
FFFE00
FFFE00
FFFF00
FFFF00
FEFF00
FC3F00
F83F80
F81F80
F81F80
F81F80
F81F80
F81F80
F81F00
F81F00
F81F00
F81F00
F81F00
F81F00
F83F00
407F00
01FE00
01FE00
01FC00
01F000
ENDCHAR
STARTCHAR 014B
ENCODING 331
SWIDTH 540 0
DWIDTH 18 0
BBX 17 27 1 -4
BITMAP
F1E000
F7F800
FFFC00
FFFE00
FFFE00
FFFF00
FFFF00
FEFF00
FC3F00
F83F80
F81F80
F81F80
F81F80
F81F80
F81F80
F81F00
F81F00
F81F00
F81F00
F81F00
F81F00
F83F00
407F00
01FE00
01FE00
01FC00
01F000
ENDCHAR
STARTCHAR 014C
ENCODING 332
SWIDTH 510 0
DWIDTH 17 0
BBX 16 27 1 0
BITMAP
7FC0
7FC0
7FC0
0000
0F00
1FC0
1FE0
3FF8
3FF8
7FFC
7FFE
FFFE
FE7E
FC3F
FC3F
FC3F
FC3F
FC7F
FFFF
FFFF
FFFF
7FFF
7FFE
3FFE
3FFE
1FF8
07F0
ENDCHAR
STARTCHAR 014D
ENCODING 333
SWIDTH 510 0
DWIDTH 17 0
BBX 16 27 1 0
BITMAP
7FC0
7FC0
7FC0
0000
0F00
1FC0
1FE0
3FF8
3FF8
7FFC
7FFE
FFFE
FE7E
FC3F
FC3F
FC3F
FC3F
FC7F
FFFF
FFFF
FFFF
7FFF
7FFE
3FFE
3FFE
1FF8
07F0
ENDCHAR
STARTCHAR 014E
ENCODING 334
SWIDTH 510 0
DWIDTH 17 0
BBX 16 29 1 0
BITMAP
60E0
71C0
7FC0
3F80
1F00
0000
0F00
1FC0
1FE0
3FF8
3FF8
7FFC
7FFE
FFFE
FE7E
FC3F
FC3F
FC3F
FC3F
FC7F
FFFF
FFFF
FFFF
7FFF
7FFE
3FFE
3FFE
1FF8
07F0
ENDCHAR
STARTCHAR 014F
ENCODING 335
SWIDTH 510 0
DWIDTH 17 0
BBX 16 29 1 0
BITMAP
60E0
71C0
7FC0
3F80
1F00
0000
0F00
1FC0
1FE0
3FF8
3FF8
7FFC
7FFE
FFFE
FE7E
FC3F
FC3F
FC3F
FC3F
FC7F
FFFF
FFFF
FFFF
7FFF
7FFE
3FFE
3FFE
1FF8
07F0
ENDCHAR
STARTCHAR 0150
ENCODING 336
SWIDTH 510 0
DWIDTH 17 0
BBX 16 29 1 0
BITMAP
1F7C
1E78
3CF0
3CE0
79E0
0000
0F00
1FC0
1FE0
3FF8
3FF8
7FFC
7FFE
FFFE
FE7E
FC3F
FC3F
FC3F
FC3F
FC7F
FFFF
FFFF
FFFF
7FFF
7FFE
3FFE
3FFE
1FF8
07F0
ENDCHAR
STARTCHAR 0151
ENCODING 337
SWIDTH 510 0
DWIDTH 17 0
BBX 16 29 1 0
BITMAP
1F7C
1E78
3CF0
3CE0
79E0
0000
0F00
1FC0
1FE0
3FF8
3FF8
7FFC
7FFE
FFFE
FE7E
FC3F
FC3F
FC3F
FC3F
FC7F
FFFF
FFFF
FFFF
7FFF
7FFE
3FFE
3FFE
1FF8
07F0
ENDCHAR
STARTCHAR 0152
ENCODING 338
SWIDTH 720 0
DWIDTH 24 0
BBX 23 24 1 -1
BITMAP
007FE0
01FFF0
07FFE0
0FFFE0
1FFFE0
3FFFE0
3FFFE0
7FFE00
7FFE00
FC3E60
FC3FE0
FC3FE0
FC3FE0
FC3E00
FE7F0C
FFFFFC
FFFFFC
FFFFFE
FFFFFE
7FFFFE
7FFFFE
3FFFF0
1FFF00
010000
ENDCHAR
STARTCHAR 0153
ENCODING 339
SWIDTH 720 0
DWIDTH 24 0
BBX 23 24 1 -1
BITMAP
007FE0
01FFF0
07FFE0
0FFFE0
1FFFE0
3FFFE0
3FFFE0
7FFE00
7FFE00
FC3E60
FC3FE0
FC3FE0
FC3FE0
FC3E00
FE7F0C
FFFFFC
FFFFFC
FFFFFE
FFFFFE
7FFFFE
7FFFFE
3FFFF0
1FFF00
010000
ENDCHAR
STARTCHAR 0154
ENCODING 340
SWIDTH 570 0
DWIDTH 19 0
BBX 18 30 1 -1
BITMAP
078000
0F8000
0F0000
1E0000
1C0000
000000
078000
7FF000
FFF800
FFFC00
FE1E00
FE1E00
FE1E00
FE1E00
FF1E00
FF7E00
FFFE00
FFFC00
FFF000
FFF800
FFFC00
FF7C00
7FBE00
FFBE00
7F9F00
7F9F80
7F8F80
7F8FC0
3F8F80
380000
ENDCHAR
STARTCHAR 0155
ENCODING 341
SWIDTH 570 0
DWIDTH 19 0
BBX 18 30 1 -1
BITMAP
078000
0F8000
0F0000
1E0000
1C0000
000000
078000
7FF000
FFF800
FFFC00
FE1E00
FE1E00
FE1E00
FE1E00
FF1E00
FF7E00
FFFE00
FFFC00
FFF000
FFF800
FFFC00
FF7C00
7FBE00
FFBE00
7F9F00
7F9F80
7F8F80
7F8FC0
3F8F80
380000
ENDCHAR
STARTCHAR 0156
ENCODING 342
SWIDTH 570 0
DWIDTH 19 0
BBX 18 29 1 -6
BITMAP
078000
7FF000
FFF800
FFFC00
FE1E00
FE1E00
FE1E00
FE1E00
FF1E00
FF7E00
FFFE00
FFFC00
FFF000
FFF800
FFFC00
FF7C00
7FBE00
FFBE00
7F9F00
7F9F80
7F8F80
7F8FC0
3F8F80
386000
00F000
00F000
00F000
01E000
004000
ENDCHAR
STARTCHAR 0157
ENCODING 343
SWIDTH 570 0
DWIDTH 19 0
BBX 18 29 1 -6
BITMAP
078000
7FF000
FFF800
FFFC00
FE1E00
FE1E00
FE1E00
FE1E00
FF1E00
FF7E00
FFFE00
FFFC00
FFF000
FFF800
FFFC00
FF7C00
7FBE00
FFBE00
7F9F00
7F9F80
7F8F80
7F8FC0
3F8F80
386000
00F000
00F000
00F000
01E000
004000
ENDCHAR
STARTCHAR 0158
ENCODING 344
SWIDTH 570 0
DWIDTH 19 0
BBX 18 30 1 -1
BITMAP
038000
E78000
FF8000
7F0000
3C0000
000000
078000
7FF000
FFF800
FFFC00
FE1E00
FE1E00
FE1E00
FE1E00
FF1E00
FF7E00
FFFE00
FFFC00
FFF000
FFF800
FFFC00
FF7C00
7FBE00
FFBE00
7F9F00
7F9F80
7F8F80
7F8FC0
3F8F80
380000
ENDCHAR
STARTCHAR 0159
ENCODING 345
SWIDTH 570 0
DWIDTH 19 0
BBX 18 30 1 -1
BITMAP
038000
E78000
FF8000
7F0000
3C0000
000000
078000
7FF000
FFF800
FFFC00
FE1E00
FE1E00
FE1E00
FE1E00
FF1E00
FF7E00
FFFE00
FFFC00
FFF000
FFF800
FFFC00
FF7C00
7FBE00
FFBE00
7F9F00
7F9F80
7F8F80
7F8FC0
3F8F80
380000
ENDCHAR
STARTCHAR 015A
ENCODING 346
SWIDTH 480 0
DWIDTH 16 0
BBX 15 29 1 0
BITMAP
0078
00F8
00F0
01E0
01C0
0000
07FC
1FFE
3FFE
3FFC
3FFC
7FF8
7FF8
7FF0
7EF0
7E00
7F80
3FE0
3FF8
07FC
00FC
007C
C0FE
FFFE
FFFC
FFFC
FFFC
7FF0
1FC0
ENDCHAR
STARTCHAR 015B
ENCODING 347
SWIDTH 480 0
DWIDTH 16 0
BBX 15 29 1 0
BITMAP
0078
00F8
00F0
01E0
01C0
0000
07FC
1FFE
3FFE
3FFC
3FFC
7FF8
7FF8
7FF0
7EF0
7E00
7F80
3FE0
3FF8
07FC
00FC
007C
C0FE
FFFE
FFFC
FFFC
FFFC
7FF0
1FC0
ENDCHAR
STARTCHAR 015C
ENCODING 348
SWIDTH 480 0
DWIDTH 16 0
BBX 15 29 1 0
BITMAP
00C0
03E0
07F0
0FF8
1E38
0000
07FC
1FFE
3FFE
3FFC
3FFC
7FF8
7FF8
7FF0
7EF0
7E00
7F80
3FE0
3FF8
07FC
00FC
007C
C0FE
FFFE
FFFC
FFFC
FFFC
7FF0
1FC0
ENDCHAR
STARTCHAR 015D
ENCODING 349
SWIDTH 480 0
DWIDTH 16 0
BBX 15 29 1 0
BITMAP
00C0
03E0
07F0
0FF8
1E38
0000
07FC
1FFE
3FFE
3FFC
3FFC
7FF8
7FF8
7FF0
7EF0
7E00
7F80
3FE0
3FF8
07FC
00FC
007C
C0FE
FFFE
FFFC
FFFC
FFFC
7FF0
1FC0
ENDCHAR
STARTCHAR 015E
ENCODING 350
SWIDTH 480 0
DWIDTH 16 0
BBX 15 29 1 -6
BITMAP
07FC
1FFE
3FFE
3FFC
3FFC
7FF8
7FF8
7FF0
7EF0
7E00
7F80
3FE0
3FF8
07FC
00FC
007C
C0FE
FFFE
FFFC
FFFC
FFFC
7FF0
1FC0
0780
03C0
01E0
3FE0
3FE0
0200
ENDCHAR
STARTCHAR 015F
ENCODING 351
SWIDTH 480 0
DWIDTH 16 0
BBX 15 29 1 -6
BITMAP
07FC
1FFE
3FFE
3FFC
3FFC
7FF8
7FF8
7FF0
7EF0
7E00
7F80
3FE0
3FF8
07FC
00FC
007C
C0FE
FFFE
FFFC
FFFC
FFFC
7FF0
1FC0
0780
03C0
01E0
3FE0
3FE0
0200
ENDCHAR
STARTCHAR 0160
ENCODING 352
SWIDTH 480 0
DWIDTH 16 0
BBX 15 29 1 0
BITMAP
0C18
1E7C
0FF8
07F0
03C0
0000
07FC
1FFE
3FFE
3FFC
3FFC
7FF8
7FF8
7FF0
7EF0
7E00
7F80
3FE0
3FF8
07FC
00FC
007C
C0FE
FFFE
FFFC
FFFC
FFFC
7FF0
1FC0
ENDCHAR
STARTCHAR 0161
ENCODING 353
SWIDTH 480 0
DWIDTH 16 0
BBX 15 29 1 0
BITMAP
0C18
1E7C
0FF8
07F0
03C0
0000
07FC
1FFE
3FFE
3FFC
3FFC
7FF8
7FF8
7FF0
7EF0
7E00
7F80
3FE0
3FF8
07FC
00FC
007C
C0FE
FFFE
FFFC
FFFC
FFFC
7FF0
1FC0
ENDCHAR
STARTCHAR 0162
ENCODING 354
SWIDTH 570 0
DWIDTH 19 0
BBX 18 29 1 -6
BITMAP
000400
FFFF80
FFFF80
FFFF80
FFFFC0
FFFFC0
FFFFC0
F9F800
83F000
03E000
03E000
03E000
03E000
03E000
03E000
03E000
03E000
03E000
03E000
03E000
03E000
03E000
03E000
01E000
00F800
003C00
07FC00
07F800
008000
ENDCHAR
STARTCHAR 0163
ENCODING 355
SWIDTH 570 0
DWIDTH 19 0
BBX 18 29 1 -6
BITMAP
000400
FFFF80
FFFF80
FFFF80
FFFFC0
FFFFC0
FFFFC0
F9F800
83F000
03E000
03E000
03E000
03E000
03E000
03E000
03E000
03E000
03E000
03E000
03E000
03E000
03E000
03E000
01E000
00F800
003C00
07FC00
07F800
008000
ENDCHAR
STARTCHAR 0164
ENCODING 356
SWIDTH 570 0
DWIDTH 19 0
BBX 18 29 1 0
BITMAP
0E1800
0F3C00
0FF800
07F000
01E000
000000
000400
FFFF80
FFFF80
FFFF80
FFFFC0
FFFFC0
FFFFC0
F9F800
83F000
03E000
03E000
03E000
03E000
03E000
03E000
03E000
03E000
03E000
03E000
03E000
03E000
03E000
03E000
ENDCHAR
STARTCHAR 0165
ENCODING 357
SWIDTH 570 0
DWIDTH 19 0
BBX 18 29 1 0
BITMAP
0E1800
0F3C00
0FF800
07F000
01E000
000000
000400
FFFF80
FFFF80
FFFF80
FFFFC0
FFFFC0
FFFFC0
F9F800
83F000
03E000
03E000
03E000
03E000
03E000
03E000
03E000
03E000
03E000
03E000
03E000
03E000
03E000
03E000
ENDCHAR
STARTCHAR 0166
ENCODING 358
SWIDTH 570 0
DWIDTH 19 0
BBX 18 23 1 0
BITMAP
000400
FFFF80
FFFF80
FFFF80
FFFFC0
FFFFC0
FFFFC0
F9F800
83F000
03E000
03E600
3FFF00
3FFF00
3FFF00
3FFF00
03E000
03E000
03E000
03E000
03E000
03E000
03E000
03E000
ENDCHAR
STARTCHAR 0167
ENCODING 359
SWIDTH 570 0
DWIDTH 19 0
BBX 18 23 1 0
BITMAP
000400
FFFF80
FFFF80
FFFF80
FFFFC0
FFFFC0
FFFFC0
F9F800
83F000
03E000
03E600
3FFF00
3FFF00
3FFF00
3FFF00
03E000
03E000
03E000
03E000
03E000
03E000
03E000
03E000
ENDCHAR
STARTCHAR 0168
ENCODING 360
SWIDTH 540 0
DWIDTH 18 0
BBX 17 27 1 1
BITMAP
03DE00
07FE00
07FC00
077800
000000
380000
7E1F80
7C1F80
7C0F80
7C0F80
7C1F80
FC1F80
FC1F80
FC1F80
FC1F80
FC1F80
FC1F80
FE3F80
FFFF00
FFFF00
FFFF00
FFFE00
7FFE00
7FFC00
3FF800
3FF800
0FF000
ENDCHAR
STARTCHAR 0169
ENCODING 361
SWIDTH 540 0
DWIDTH 18 0
BBX 17 27 1 1
BITMAP
03DE00
07FE00
07FC00
077800
000000
380000
7E1F80
7C1F80
7C0F80
7C0F80
7C1F80
FC1F80
FC1F80
FC1F80
FC1F80
FC1F80
FC1F80
FE3F80
FFFF00
FFFF00
FFFF00
FFFE00
7FFE00
7FFC00
3FF800
3FF800
0FF000
ENDCHAR
STARTCHAR 016A
ENCODING 362
SWIDTH 540 0
DWIDTH 18 0
BBX 17 26 1 1
BITMAP
07FC00
0FFC00
0FFC00
000000
380000
7E1F80
7C1F80
7C0F80
7C0F80
7C1F80
FC1F80
FC1F80
FC1F80
FC1F80
FC1F80
FC1F80
FE3F80
FFFF00
FFFF00
FFFF00
FFFE00
7FFE00
7FFC00
3FF800
3FF800
0FF000
ENDCHAR
STARTCHAR 016B
ENCODING 363
SWIDTH 540 0
DWIDTH 18 0
BBX 17 26 1 1
BITMAP
07FC00
0FFC00
0FFC00
000000
380000
7E1F80
7C1F80
7C0F80
7C0F80
7C1F80
FC1F80
FC1F80
FC1F80
FC1F80
FC1F80
FC1F80
FE3F80
FFFF00
FFFF00
FFFF00
FFFE00
7FFE00
7FFC00
3FF800
3FF800
0FF000
ENDCHAR
STARTCHAR 016C
ENCODING 364
SWIDTH 540 0
DWIDTH 18 0
BBX 17 28 1 1
BITMAP
070E00
070E00
07FC00
03FC00
01F800
000000
380000
7E1F80
7C1F80
7C0F80
7C0F80
7C1F80
FC1F80
FC1F80
FC1F80
FC1F80
FC1F80
FC1F80
FE3F80
FFFF00
FFFF00
FFFF00
FFFE00
7FFE00
7FFC00
3FF800
3FF800
0FF000
ENDCHAR
STARTCHAR 016D
ENCODING 365
SWIDTH 540 0
DWIDTH 18 0
BBX 17 28 1 1
BITMAP
070E00
070E00
07FC00
03FC00
01F800
000000
380000
7E1F80
7C1F80
7C0F80
7C0F80
7C1F80
FC1F80
FC1F80
FC1F80
FC1F80
FC1F80
FC1F80
FE3F80
FFFF00
FFFF00
FFFF00
FFFE00
7FFE00
7FFC00
3FF800
3FF800
0FF000
ENDCHAR
STARTCHAR 016E
ENCODING 366
SWIDTH 540 0
DWIDTH 18 0
BBX 17 29 1 1
BITMAP
03F000
07F800
0F3C00
0F1C00
0F1C00
07FC00
03F800
380000
7E1F80
7C1F80
7C0F80
7C0F80
7C1F80
FC1F80
FC1F80
FC1F80
FC1F80
FC1F80
FC1F80
FE3F80
FFFF00
FFFF00
FFFF00
FFFE00
7FFE00
7FFC00
3FF800
3FF800
0FF000
ENDCHAR
STARTCHAR 016F
ENCODING 367
SWIDTH 540 0
DWIDTH 18 0
BBX 17 29 1 1
BITMAP
03F000
07F800
0F3C00
0F1C00
0F1C00
07FC00
03F800
380000
7E1F80
7C1F80
7C0F80
7C0F80
7C1F80
FC1F80
FC1F80
FC1F80
FC1F80
FC1F80
FC1F80
FE3F80
FFFF00
FFFF00
FFFF00
FFFE00
7FFE00
7FFC00
3FF800
3FF800
0FF000
ENDCHAR
STARTCHAR 0170
ENCODING 368
SWIDTH 540 0
DWIDTH 18 0
BBX 17 28 1 1
BITMAP
01E780
03EF80
03CF00
079E00
071C00
000000
380000
7E1F80
7C1F80
7C0F80
7C0F80
7C1F80
FC1F80
FC1F80
FC1F80
FC1F80
FC1F80
FC1F80
FE3F80
FFFF00
FFFF00
FFFF00
FFFE00
7FFE00
7FFC00
3FF800
3FF800
0FF000
ENDCHAR
STARTCHAR 0171
ENCODING 369
SWIDTH 540 0
DWIDTH 18 0
BBX 17 28 1 1
BITMAP
01E780
03EF80
03CF00
079E00
071C00
000000
380000
7E1F80
7C1F80
7C0F80
7C0F80
7C1F80
FC1F80
FC1F80
FC1F80
FC1F80
FC1F80
FC1F80
FE3F80
FFFF00
FFFF00
FFFF00
FFFE00
7FFE00
7FFC00
3FF800
3FF800
0FF000
ENDCHAR
STARTCHAR 0172
ENCODING 370
SWIDTH 540 0
DWIDTH 18 0
BBX 17 28 1 -5
BITMAP
380000
7E1F80
7C1F80
7C0F80
7C0F80
7C1F80
FC1F80
FC1F80
FC1F80
FC1F80
FC1F80
FC1F80
FE3F80
FFFF00
FFFF00
FFFF00
FFFE00
7FFE00
7FFC00
3FF800
3FF800
0FF000
030000
070000
070000
0F1800
0FF800
07F800
ENDCHAR
STARTCHAR 0173
ENCODING 371
SWIDTH 540 0
DWIDTH 18 0
BBX 17 28 1 -5
BITMAP
380000
7E1F80
7C1F80
7C0F80
7C0F80
7C1F80
FC1F80
FC1F80
FC1F80
FC1F80
FC1F80
FC1F80
FE3F80
FFFF00
FFFF00
FFFF00
FFFE00
7FFE00
7FFC00
3FF800
3FF800
0FF000
030000
070000
070000
0F1800
0FF800
07F800
ENDCHAR
STARTCHAR 0174
ENCODING 372
SWIDTH 720 0
DWIDTH 24 0
BBX 23 29 1 0
BITMAP
007000
00FC00
01FE00
03FF00
03C600
000000
000064
FC107E
FC387C
FC38FC
FE38FC
FE3CF8
FF3DF8
7F3DF8
7F3FF8
7FFFF8
3FFFF8
3FFFF0
1FFFF0
1FFFF0
0FF7F0
0FF7F0
07E7F0
07E3E0
03C3E0
03C3E0
01C3E0
01C1C0
008000
ENDCHAR
STARTCHAR 0175
ENCODING 373
SWIDTH 720 0
DWIDTH 24 0
BBX 23 29 1 0
BITMAP
007000
00FC00
01FE00
03FF00
03C600
000000
000064
FC107E
FC387C
FC38FC
FE38FC
FE3CF8
FF3DF8
7F3DF8
7F3FF8
7FFFF8
3FFFF8
3FFFF0
1FFFF0
1FFFF0
0FF7F0
0FF7F0
07E7F0
07E3E0
03C3E0
03C3E0
01C3E0
01C1C0
008000
ENDCHAR
STARTCHAR 0176
ENCODING 374
SWIDTH 600 0
DWIDTH 20 0
BBX 19 29 1 0
BITMAP
00C000
03F000
07F800
0FFC00
0F1800
000000
0003E0
1807C0
FC07C0
FC0FC0
FE0F80
7E1F80
7F1F00
3F3F00
3F3E00
1FFE00
1FFC00
0FFC00
0FF800
07F800
07F000
03F000
03F000
01F000
01F000
01F000
01F000
01F000
01F000
ENDCHAR
STARTCHAR 0177
ENCODING 375
SWIDTH 600 0
DWIDTH 20 0
BBX 19 29 1 0
BITMAP
00C000
03F000
07F800
0FFC00
0F1800
000000
0003E0
1807C0
FC07C0
FC0FC0
FE0F80
7E1F80
7F1F00
3F3F00
3F3E00
1FFE00
1FFC00
0FFC00
0FF800
07F800
07F000
03F000
03F000
01F000
01F000
01F000
01F000
01F000
01F000
ENDCHAR
STARTCHAR 0178
ENCODING 376
SWIDTH 600 0
DWIDTH 20 0
BBX 19 27 1 0
BITMAP
071C00
073C00
073C00
030000
0003E0
1807C0
FC07C0
FC0FC0
FE0F80
7E1F80
7F1F00
3F3F00
3F3E00
1FFE00
1FFC00
0FFC00
0FF800
07F800
07F000
03F000
03F000
01F000
01F000
01F000
01F000
01F000
01F000
ENDCHAR
STARTCHAR 0179
ENCODING 377
SWIDTH 600 0
DWIDTH 20 0
BBX 18 29 1 0
BITMAP
007800
00F800
01F000
01E000
03C000
000000
03FC00
3FFE00
7FFE00
FFFC00
FFF800
FFF800
81F000
01F000
01F000
03E000
03E000
03E000
07C000
07C000
0FC000
0FC000
0F8000
1FFFC0
1FFFC0
1FFFC0
1FFF80
03FF00
007800
ENDCHAR
STARTCHAR 017A
ENCODING 378
SWIDTH 600 0
DWIDTH 20 0
BBX 18 29 1 0
BITMAP
007800
00F800
01F000
01E000
03C000
000000
03FC00
3FFE00
7FFE00
FFFC00
FFF800
FFF800
81F000
01F000
01F000
03E000
03E000
03E000
07C000
07C000
0FC000
0FC000
0F8000
1FFFC0
1FFFC0
1FFFC0
1FFF80
03FF00
007800
ENDCHAR
STARTCHAR 017B
ENCODING 379
SWIDTH 600 0
DWIDTH 20 0
BBX 18 27 1 0
BITMAP
038000
038000
038000
000000
03FC00
3FFE00
7FFE00
FFFC00
FFF800
FFF800
81F000
01F000
01F000
03E000
03E000
03E000
07C000
07C000
0FC000
0FC000
0F8000
1FFFC0
1FFFC0
1FFFC0
1FFF80
03FF00
007800
ENDCHAR
STARTCHAR 017C
ENCODING 380
SWIDTH 600 0
DWIDTH 20 0
BBX 18 27 1 0
BITMAP
038000
038000
038000
000000
03FC00
3FFE00
7FFE00
FFFC00
FFF800
FFF800
81F000
01F000
01F000
03E000
03E000
03E000
07C000
07C000
0FC000
0FC000
0F8000
1FFFC0
1FFFC0
1FFFC0
1FFF80
03FF00
007800
ENDCHAR
STARTCHAR 017D
ENCODING 381
SWIDTH 600 0
DWIDTH 20 0
BBX 18 29 1 0
BITMAP
1C3000
1E7800
0FF000
07E000
03C000
000000
03FC00
3FFE00
7FFE00
FFFC00
FFF800
FFF800
81F000
01F000
01F000
03E000
03E000
03E000
07C000
07C000
0FC000
0FC000
0F8000
1FFFC0
1FFFC0
1FFFC0
1FFF80
03FF00
007800
ENDCHAR
STARTCHAR 017E
ENCODING 382
SWIDTH 600 0
DWIDTH 20 0
BBX 18 29 1 0
BITMAP
1C3000
1E7800
0FF000
07E000
03C000
000000
03FC00
3FFE00
7FFE00
FFFC00
FFF800
FFF800
81F000
01F000
01F000
03E000
03E000
03E000
07C000
07C000
0FC000
0FC000
0F8000
1FFFC0
1FFFC0
1FFFC0
1FFF80
03FF00
007800
ENDCHAR
STARTCHAR 017F
ENCODING 383
SWIDTH 420 0
DWIDTH 14 0
BBX 13 28 1 -5
BITMAP
1FE0
3FF0
7FF8
FFF8
FCF8
F860
F800
F800
F800
F800
F800
F800
F800
F800
FC00
FC00
FC00
7C00
7C00
7C00
7C00
7C00
7C00
7C00
7C00
7C00
7C00
3800
ENDCHAR
STARTCHAR 0180
ENCODING 384
SWIDTH 510 0
DWIDTH 17 0
BBX 16 23 1 0
BITMAP
3F00
FFE0
FFF0
FFF0
FFF8
FDF8
FC78
FC78
7C78
7EF0
7FE0
7FF8
7FFC
7FFE
7EBE
FFBF
FFBF
FFBF
FFFE
3FFE
3FFC
3FF0
1E00
ENDCHAR
STARTCHAR 0181
ENCODING 385
SWIDTH 660 0
DWIDTH 22 0
BBX 21 23 1 0
BITMAP
07F800
3FFF00
7FFF80
7FFF80
FFFFC0
FFE7C0
FFE3C0
F3E3C0
E3E3C0
F3F7C0
FBFF00
FBFFC0
7BFFE0
7BFFF0
13F1F8
01F8F8
01F9F8
01FBF8
01FFF8
01FFF0
01FFE0
01FF80
00F000
ENDCHAR
STARTCHAR 0186
ENCODING 390
SWIDTH 480 0
DWIDTH 16 0
BBX 15 23 1 0
BITMAP
0600
7FC0
FFF0
FFF8
FFFC
FFFC
BFFC
03FE
00FE
00FE
00FE
00FE
00FE
FFFE
FFFE
FFFC
FFFC
FFFC
FFF8
FFF8
7FF0
3FC0
0600
ENDCHAR
STARTCHAR 0187
ENCODING 391
SWIDTH 480 0
DWIDTH 16 0
BBX 15 29 1 0
BITMAP
0006
007E
01FE
01FE
01FE
03F0
03F0
07F8
1FFC
3FFE
7FFE
FFFE
FFFC
FF00
FE00
FC00
FC00
FC00
FE00
FFFC
FFFE
FFFE
FFFE
7FFC
7FFE
3FFC
3FF8
0FF0
00C0
ENDCHAR
STARTCHAR 0188
ENCODING 392
SWIDTH 480 0
DWIDTH 16 0
BBX 15 29 1 0
BITMAP
0006
007E
01FE
01FE
01FE
03F0
03F0
07F8
1FFC
3FFE
7FFE
FFFE
FFFC
FF00
FE00
FC00
FC00
FC00
FE00
FFFC
FFFE
FFFE
FFFE
7FFC
7FFE
3FFC
3FF8
0FF0
00C0
ENDCHAR
STARTCHAR 0189
ENCODING 393
SWIDTH 480 0
DWIDTH 16 0
BBX 16 23 0 0
BITMAP
1F00
3FC0
3FF0
3FF8
3FFC
3FFE
3F7E
3F1E
3FCF
FFDF
FFDF
FFDF
FF3E
1F7E
1FFC
1FFC
1FF8
1FF8
0FF0
0FE0
0FC0
0F00
0400
ENDCHAR
STARTCHAR 018A
ENCODING 394
SWIDTH 630 0
DWIDTH 21 0
BBX 20 23 1 0
BITMAP
03F000
3FFC00
7FFF00
7FFF80
FFFFC0
FFFFC0
FFF7E0
F3F1E0
E3E1F0
F3F1F0
FBF1F0
FBF1E0
7BF3E0
7BF7E0
13FFC0
01FFC0
01FF80
01FF00
01FF00
00FE00
00FC00
00F000
00C000
ENDCHAR
STARTCHAR 018F
ENCODING 399
SWIDTH 480 0
DWIDTH 16 0
BBX 15 23 1 0
BITMAP
1F80
7FC0
FFE0
FFF0
FFF8
71F8
0078
003C
003C
FFFC
FFFC
FFFC
FFFC
FC7E
FC7E
FCFE
FFFE
FFFE
FFFE
7FFC
3FF8
1FF0
00E0
ENDCHAR
STARTCHAR 0190
ENCODING 400
SWIDTH 480 0
DWIDTH 16 0
BBX 15 23 1 0
BITMAP
1FC0
3FF0
7FF8
FFF8
FF18
FC00
FC00
FC00
FC00
7E20
7FE0
3FF0
3FF0
7F00
7E00
7C00
7C00
7E0E
7FFE
7FFE
3FFC
1FFC
07F0
ENDCHAR
STARTCHAR 0191
ENCODING 401
SWIDTH 480 0
DWIDTH 16 0
BBX 18 27 -2 -4
BITMAP
07FFC0
1FFFC0
1FFFC0
1FFFC0
1FFFC0
1F8000
1F8000
1F8000
1FB000
1FF000
1FF000
1FF000
1FF000
1F8000
1F8000
1F8000
1F8000
1F8000
1F8000
1F8000
1F8000
1F8000
3F0000
FF0000
FF0000
FE0000
FC0000
ENDCHAR
STARTCHAR 0192
ENCODING 402
SWIDTH 480 0
DWIDTH 16 0
BBX 18 27 -2 -4
BITMAP
07FFC0
1FFFC0
1FFFC0
1FFFC0
1FFFC0
1F8000
1F8000
1F8000
1FB000
1FF000
1FF000
1FF000
1FF000
1F8000
1F8000
1F8000
1F8000
1F8000
1F8000
1F8000
1F8000
1F8000
3F0000
FF0000
FF0000
FE0000
FC0000
ENDCHAR
STARTCHAR 0193
ENCODING 403
SWIDTH 480 0
DWIDTH 16 0
BBX 15 29 1 0
BITMAP
0002
007E
00FE
01FE
01FE
01F8
03F8
07F8
0FFC
1FFE
3FFC
3F38
3C00
7C00
7800
7800
F8FE
F8FE
F8FE
F8FE
F8FE
FCFE
FFFE
FFFE
FFFC
FFF8
7FE0
3FC0
0800
ENDCHAR
STARTCHAR 0194
ENCODING 404
SWIDTH 600 0
DWIDTH 20 0
BBX 19 26 1 -4
BITMAP
F80600
F807E0
FC0FE0
7C0FC0
7C0FC0
7C1F80
3E1F80
3E1F00
3F3F00
1F3F00
1FFE00
0FFE00
07FC00
07FC00
03F800
03F000
07F800
0FF800
0F7C00
0F3C00
0E3C00
0E3C00
0F7800
0FF800
07F000
03E000
ENDCHAR
STARTCHAR 0197
ENCODING 407
SWIDTH 360 0
DWIDTH 12 0
BBX 11 22 1 0
BITMAP
1FC0
1FC0
1FC0
3F80
3F80
3F80
3F80
3F80
3FC0
FFE0
FFE0
FFE0
FFE0
3F80
7F80
7F80
7F80
7F80
7F00
7F00
7F00
F000
ENDCHAR
STARTCHAR 0198
ENCODING 408
SWIDTH 600 0
DWIDTH 20 0
BBX 19 23 1 0
BITMAP
098F00
FF9F80
FF9FC0
FF3FC0
FF3FE0
FF7FE0
FF79E0
FFF9E0
FFF3C0
FFF7C0
FFE7C0
FFE780
FFE100
FFF000
FFF800
FFFC00
FFFC00
FF7E00
FF3F00
FF1F00
FF1F80
FF0E80
DF0C00
ENDCHAR
STARTCHAR 0199
ENCODING 409
SWIDTH 600 0
DWIDTH 20 0
BBX 19 23 1 0
BITMAP
098F00
FF9F80
FF9FC0
FF3FC0
FF3FE0
FF7FE0
FF79E0
FFF9E0
FFF3C0
FFF7C0
FFE7C0
FFE780
FFE100
FFF000
FFF800
FFFC00
FFFC00
FF7E00
FF3F00
FF1F00
FF1F80
FF0E80
DF0C00
ENDCHAR
STARTCHAR 019D
ENCODING 413
SWIDTH 540 0
DWIDTH 18 0
BBX 20 26 -2 -4
BITMAP
07E1F0
07F3F0
0FE3F0
0FE3F0
0FE3F0
0FF3F0
0FF3F0
0FF3F0
0FFBF0
1FFBE0
1FFBE0
1FFFE0
1FFFE0
1FFFE0
1FDFE0
1FDFE0
1F9FE0
1F8FE0
1F8FE0
1F8FE0
1F8FE0
3F0100
FF0000
FF0000
FE0000
FC0000
ENDCHAR
STARTCHAR 01A0
ENCODING 416
SWIDTH 540 0
DWIDTH 18 0
BBX 17 24 1 0
BITMAP
000780
0F0780
1FC380
1FE380
3FFB80
3FFB80
7FFF80
7FFF80
FFFF00
FE7F00
FC3F00
FC3F00
FC3F00
FC3F00
FC7F00
FFFF00
FFFF00
FFFF00
7FFF00
7FFE00
3FFE00
3FFE00
1FF800
07F000
ENDCHAR
STARTCHAR 01A1
ENCODING 417
SWIDTH 540 0
DWIDTH 18 0
BBX 17 24 1 0
BITMAP
000780
0F0780
1FC380
1FE380
3FFB80
3FFB80
7FFF80
7FFF80
FFFF00
FE7F00
FC3F00
FC3F00
FC3F00
FC3F00
FC7F00
FFFF00
FFFF00
FFFF00
7FFF00
7FFE00
3FFE00
3FFE00
1FF800
07F000
ENDCHAR
STARTCHAR 01AF
ENCODING 431
SWIDTH 600 0
DWIDTH 20 0
BBX 19 24 1 0
BITMAP
0001C0
0001E0
F87CE0
F87CE0
F03CE0
F07CE0
F07FE0
F83FC0
F83FC0
F83F80
F83E00
F83E00
F87E00
F87E00
FDFE00
FFFE00
7FFE00
7FFE00
7FFE00
3FFC00
3FF800
1FF800
0FF000
07C000
ENDCHAR
STARTCHAR 01B0
ENCODING 432
SWIDTH 600 0
DWIDTH 20 0
BBX 19 24 1 0
BITMAP
0001C0
0001E0
F87CE0
F87CE0
F03CE0
F07CE0
F07FE0
F83FC0
F83FC0
F83F80
F83E00
F83E00
F87E00
F87E00
FDFE00
FFFE00
7FFE00
7FFE00
7FFE00
3FFC00
3FF800
1FF800
0FF000
07C000
ENDCHAR
STARTCHAR 01B1
ENCODING 433
SWIDTH 600 0
DWIDTH 20 0
BBX 19 23 1 0
BITMAP
FF1FE0
FF1FE0
FF1FE0
FF1FE0
FF1FE0
3E0F80
3E0780
7C07C0
7C07C0
F803C0
F803E0
F803E0
F807E0
F807E0
FC07C0
FE0FC0
FFFFC0
FFFF80
7FFF80
7FFF00
3FFF00
1FFC00
0FF000
ENDCHAR
STARTCHAR 01B2
ENCODING 434
SWIDTH 540 0
DWIDTH 18 0
BBX 17 22 1 1
BITMAP
10F000
F1F800
F1FC00
F8FE00
F87E00
F83F00
F81F00
F81F80
F81F80
FC1F80
FC1F80
FC1F80
FE3F80
7E3F80
7FFF80
7FFF80
3FFF80
3FFF00
1FFF00
1FFE00
0FFE00
07F800
ENDCHAR
STARTCHAR 01B3
ENCODING 435
SWIDTH 660 0
DWIDTH 22 0
BBX 21 23 1 0
BITMAP
000380
1807E0
FC0FF0
FC0FF0
FE1FF8
7E1FF8
7F3F78
3F3F78
3F3E78
1FFE78
1FFCF0
0FFDF0
0FF9F0
07F9E0
07F000
03F000
03F000
01F000
01F000
01F000
01F000
01F000
01F000
ENDCHAR
STARTCHAR 01B4
ENCODING 436
SWIDTH 660 0
DWIDTH 22 0
BBX 21 23 1 0
BITMAP
000380
1807E0
FC0FF0
FC0FF0
FE1FF8
7E1FF8
7F3F78
3F3F78
3F3E78
1FFE78
1FFCF0
0FFDF0
0FF9F0
07F9E0
07F000
03F000
03F000
01F000
01F000
01F000
01F000
01F000
01F000
ENDCHAR
STARTCHAR 01B5
ENCODING 437
SWIDTH 600 0
DWIDTH 20 0
BBX 18 23 1 0
BITMAP
03FC00
3FFE00
7FFE00
FFFC00
FFF800
FFF800
81F000
01F000
01F000
7FFF00
7FFF00
7FFF00
7FFF00
7FC000
0FC000
0FC000
0F8000
1FFFC0
1FFFC0
1FFFC0
1FFF80
03FF00
007800
ENDCHAR
STARTCHAR 01B6
ENCODING 438
SWIDTH 600 0
DWIDTH 20 0
BBX 18 23 1 0
BITMAP
03FC00
3FFE00
7FFE00
FFFC00
FFF800
FFF800
81F000
01F000
01F000
7FFF00
7FFF00
7FFF00
7FFF00
7FC000
0FC000
0FC000
0F8000
1FFFC0
1FFFC0
1FFFC0
1FFF80
03FF00
007800
ENDCHAR
STARTCHAR 01B7
ENCODING 439
SWIDTH 480 0
DWIDTH 16 0
BBX 15 23 1 0
BITMAP
3FF0
FFF8
7FF8
7FF8
0070
01F0
03E0
07C0
0FE0
3FF8
7FFC
3FFC
007C
003E
001E
001E
C03E
F87E
FFFE
FFFC
FFF8
7FF8
1FE0
ENDCHAR
STARTCHAR 01BB
ENCODING 443
SWIDTH 510 0
DWIDTH 17 0
BBX 16 23 1 0
BITMAP
0F00
3FC0
7FF0
FFF0
FFF0
FFF0
70F0
21F0
01F2
7FFE
7FFE
7FFE
7FC0
07C7
07FE
0FFE
1FFE
1FFE
3FFE
7FFC
FFFC
3FE0
0300
ENDCHAR
STARTCHAR 01C0
ENCODING 448
SWIDTH 180 0
DWIDTH 6 0
BBX 5 23 1 0
BITMAP
F8
F8
F8
F8
F8
F8
F8
F8
F8
F8
F8
F8
F8
F8
F8
F8
F8
F8
F8
F8
F8
F8
F8
ENDCHAR
STARTCHAR 01C1
ENCODING 449
SWIDTH 300 0
DWIDTH 10 0
BBX 9 23 1 0
BITMAP
C780
F780
F780
F780
F780
F780
F780
F780
F780
F780
F780
F780
F780
F780
F780
F780
F780
F780
F780
F780
F780
F780
F380
ENDCHAR
STARTCHAR 01C2
ENCODING 450
SWIDTH 330 0
DWIDTH 11 0
BBX 9 23 1 0
BITMAP
3C00
3E00
3E00
3E00
3E00
3F80
FF80
FF80
FF80
FF80
3E00
3E00
3E00
3E00
FF80
FF80
FF80
FF80
FE00
3E00
3E00
3E00
3E00
ENDCHAR
STARTCHAR 01C3
ENCODING 451
SWIDTH 210 0
DWIDTH 7 0
BBX 6 23 1 0
BITMAP
FC
FC
FC
FC
FC
FC
FC
FC
F8
F8
F8
F8
F8
F8
F0
00
00
70
F8
F8
F8
F8
70
ENDCHAR
STARTCHAR 01CA
ENCODING 458
SWIDTH 720 0
DWIDTH 24 0
BBX 23 22 1 1
BITMAP
7CF03E
7CF07E
7CF07E
7CF07E
7CF07E
7CF07E
FCF07E
FEF07E
FEF07E
FEF07E
FEF07E
FFF07E
FFF07E
FFF03E
FFE03E
FBE7BE
FBE7BE
FBE7FC
FBE7FC
FBE3F8
F1E3F0
C080F0
ENDCHAR
STARTCHAR 01CB
ENCODING 459
SWIDTH 720 0
DWIDTH 24 0
BBX 23 22 1 1
BITMAP
7CF03E
7CF07E
7CF07E
7CF07E
7CF07E
7CF07E
FCF07E
FEF07E
FEF07E
FEF07E
FEF07E
FFF07E
FFF07E
FFF03E
FFE03E
FBE7BE
FBE7BE
FBE7FC
FBE7FC
FBE3F8
F1E3F0
C080F0
ENDCHAR
STARTCHAR 01CC
ENCODING 460
SWIDTH 720 0
DWIDTH 24 0
BBX 23 22 1 1
BITMAP
7CF03E
7CF07E
7CF07E
7CF07E
7CF07E
7CF07E
FCF07E
FEF07E
FEF07E
FEF07E
FEF07E
FFF07E
FFF07E
FFF03E
FFE03E
FBE7BE
FBE7BE
FBE7FC
FBE7FC
FBE3F8
F1E3F0
C080F0
ENDCHAR
STARTCHAR 01CD
ENCODING 461
SWIDTH 630 0
DWIDTH 21 0
BBX 19 30 1 -1
BITMAP
030C00
079E00
03FC00
01F800
00F000
000000
001000
00F000
00F800
00F800
01F800
01F800
01F800
03FC00
03FC00
07FC00
07FE00
07FE00
0F7E00
0E7F00
1E3F00
1C3F00
3FFF80
3FFF80
3FBFC0
7C3FC0
7C3FC0
FC1FE0
FC1FE0
E00000
ENDCHAR
STARTCHAR 01CE
ENCODING 462
SWIDTH 630 0
DWIDTH 21 0
BBX 19 30 1 -1
BITMAP
030C00
079E00
03FC00
01F800
00F000
000000
001000
00F000
00F800
00F800
01F800
01F800
01F800
03FC00
03FC00
07FC00
07FE00
07FE00
0F7E00
0E7F00
1E3F00
1C3F00
3FFF80
3FFF80
3FBFC0
7C3FC0
7C3FC0
FC1FE0
FC1FE0
E00000
ENDCHAR
STARTCHAR 01CF
ENCODING 463
SWIDTH 330 0
DWIDTH 11 0
BBX 11 29 1 0
BITMAP
3060
79E0
3FE0
1FC0
0F00
0000
0000
3FC0
3F80
3F80
3F80
3F80
3F80
3F80
7F80
7F00
7F00
7F00
7F00
7F00
7F00
7F00
7F00
7F00
7F00
7F00
7F00
FF00
F000
ENDCHAR
STARTCHAR 01D0
ENCODING 464
SWIDTH 330 0
DWIDTH 11 0
BBX 11 29 1 0
BITMAP
3060
79E0
3FE0
1FC0
0F00
0000
0000
3FC0
3F80
3F80
3F80
3F80
3F80
3F80
7F80
7F00
7F00
7F00
7F00
7F00
7F00
7F00
7F00
7F00
7F00
7F00
7F00
FF00
F000
ENDCHAR
STARTCHAR 01D1
ENCODING 465
SWIDTH 510 0
DWIDTH 17 0
BBX 16 29 1 0
BITMAP
E1C0
FBC0
7F80
3F00
1E00
0000
0F00
1FC0
1FE0
3FF8
3FF8
7FFC
7FFE
FFFE
FE7E
FC3F
FC3F
FC3F
FC3F
FC7F
FFFF
FFFF
FFFF
7FFF
7FFE
3FFE
3FFE
1FF8
07F0
ENDCHAR
STARTCHAR 01D2
ENCODING 466
SWIDTH 510 0
DWIDTH 17 0
BBX 16 29 1 0
BITMAP
E1C0
FBC0
7F80
3F00
1E00
0000
0F00
1FC0
1FE0
3FF8
3FF8
7FFC
7FFE
FFFE
FE7E
FC3F
FC3F
FC3F
FC3F
FC7F
FFFF
FFFF
FFFF
7FFF
7FFE
3FFE
3FFE
1FF8
07F0
ENDCHAR
STARTCHAR 01D3
ENCODING 467
SWIDTH 540 0
DWIDTH 18 0
BBX 17 28 1 1
BITMAP
070C00
07BE00
07FC00
03F800
00F000
000000
380000
7E1F80
7C1F80
7C0F80
7C0F80
7C1F80
FC1F80
FC1F80
FC1F80
FC1F80
FC1F80
FC1F80
FE3F80
FFFF00
FFFF00
FFFF00
FFFE00
7FFE00
7FFC00
3FF800
3FF800
0FF000
ENDCHAR
STARTCHAR 01D4
ENCODING 468
SWIDTH 540 0
DWIDTH 18 0
BBX 17 28 1 1
BITMAP
070C00
07BE00
07FC00
03F800
00F000
000000
380000
7E1F80
7C1F80
7C0F80
7C0F80
7C1F80
FC1F80
FC1F80
FC1F80
FC1F80
FC1F80
FC1F80
FE3F80
FFFF00
FFFF00
FFFF00
FFFE00
7FFE00
7FFC00
3FF800
3FF800
0FF000
ENDCHAR
STARTCHAR 01D5
ENCODING 469
SWIDTH 540 0
DWIDTH 18 0
BBX 17 29 1 1
BITMAP
07FC00
07FC00
03FC00
020000
073C00
073C00
021800
380000
7E1F80
7C1F80
7C0F80
7C0F80
7C1F80
FC1F80
FC1F80
FC1F80
FC1F80
FC1F80
FC1F80
FE3F80
FFFF00
FFFF00
FFFF00
FFFE00
7FFE00
7FFC00
3FF800
3FF800
0FF000
ENDCHAR
STARTCHAR 01D6
ENCODING 470
SWIDTH 540 0
DWIDTH 18 0
BBX 17 29 1 1
BITMAP
07FC00
07FC00
03FC00
020000
073C00
073C00
021800
380000
7E1F80
7C1F80
7C0F80
7C0F80
7C1F80
FC1F80
FC1F80
FC1F80
FC1F80
FC1F80
FC1F80
FE3F80
FFFF00
FFFF00
FFFF00
FFFE00
7FFE00
7FFC00
3FF800
3FF800
0FF000
ENDCHAR
STARTCHAR 01D7
ENCODING 471
SWIDTH 540 0
DWIDTH 18 0
BBX 17 29 1 1
BITMAP
003E00
007800
00F000
020000
073C00
073C00
021800
380000
7E1F80
7C1F80
7C0F80
7C0F80
7C1F80
FC1F80
FC1F80
FC1F80
FC1F80
FC1F80
FC1F80
FE3F80
FFFF00
FFFF00
FFFF00
FFFE00
7FFE00
7FFC00
3FF800
3FF800
0FF000
ENDCHAR
STARTCHAR 01D8
ENCODING 472
SWIDTH 540 0
DWIDTH 18 0
BBX 17 29 1 1
BITMAP
003E00
007800
00F000
020000
073C00
073C00
021800
380000
7E1F80
7C1F80
7C0F80
7C0F80
7C1F80
FC1F80
FC1F80
FC1F80
FC1F80
FC1F80
FC1F80
FE3F80
FFFF00
FFFF00
FFFF00
FFFE00
7FFE00
7FFC00
3FF800
3FF800
0FF000
ENDCHAR
STARTCHAR 01D9
ENCODING 473
SWIDTH 540 0
DWIDTH 18 0
BBX 17 29 1 1
BITMAP
071E00
07FC00
01F000
024000
073C00
073C00
021800
380000
7E1F80
7C1F80
7C0F80
7C0F80
7C1F80
FC1F80
FC1F80
FC1F80
FC1F80
FC1F80
FC1F80
FE3F80
FFFF00
FFFF00
FFFF00
FFFE00
7FFE00
7FFC00
3FF800
3FF800
0FF000
ENDCHAR
STARTCHAR 01DA
ENCODING 474
SWIDTH 540 0
DWIDTH 18 0
BBX 17 29 1 1
BITMAP
071E00
07FC00
01F000
024000
073C00
073C00
021800
380000
7E1F80
7C1F80
7C0F80
7C0F80
7C1F80
FC1F80
FC1F80
FC1F80
FC1F80
FC1F80
FC1F80
FE3F80
FFFF00
FFFF00
FFFF00
FFFE00
7FFE00
7FFC00
3FF800
3FF800
0FF000
ENDCHAR
STARTCHAR 01DB
ENCODING 475
SWIDTH 540 0
DWIDTH 18 0
BBX 17 29 1 1
BITMAP
0F8000
03C000
01E000
020000
073C00
073C00
021800
380000
7E1F80
7C1F80
7C0F80
7C0F80
7C1F80
FC1F80
FC1F80
FC1F80
FC1F80
FC1F80
FC1F80
FE3F80
FFFF00
FFFF00
FFFF00
FFFE00
7FFE00
7FFC00
3FF800
3FF800
0FF000
ENDCHAR
STARTCHAR 01DC
ENCODING 476
SWIDTH 540 0
DWIDTH 18 0
BBX 17 29 1 1
BITMAP
0F8000
03C000
01E000
020000
073C00
073C00
021800
380000
7E1F80
7C1F80
7C0F80
7C0F80
7C1F80
FC1F80
FC1F80
FC1F80
FC1F80
FC1F80
FC1F80
FE3F80
FFFF00
FFFF00
FFFF00
FFFE00
7FFE00
7FFC00
3FF800
3FF800
0FF000
ENDCHAR
STARTCHAR 01DE
ENCODING 478
SWIDTH 630 0
DWIDTH 21 0
BBX 19 31 1 -1
BITMAP
03FE00
07FE00
030000
010C00
039E00
039E00
018000
001000
00F000
00F800
00F800
01F800
01F800
01F800
03FC00
03FC00
07FC00
07FE00
07FE00
0F7E00
0E7F00
1E3F00
1C3F00
3FFF80
3FFF80
3FBFC0
7C3FC0
7C3FC0
FC1FE0
FC1FE0
E00000
ENDCHAR
STARTCHAR 01DF
ENCODING 479
SWIDTH 630 0
DWIDTH 21 0
BBX 19 31 1 -1
BITMAP
03FE00
07FE00
030000
010C00
039E00
039E00
018000
001000
00F000
00F800
00F800
01F800
01F800
01F800
03FC00
03FC00
07FC00
07FE00
07FE00
0F7E00
0E7F00
1E3F00
1C3F00
3FFF80
3FFF80
3FBFC0
7C3FC0
7C3FC0
FC1FE0
FC1FE0
E00000
ENDCHAR
STARTCHAR 01E0
ENCODING 480
SWIDTH 630 0
DWIDTH 21 0
BBX 19 31 1 -1
BITMAP
03FE00
07FE00
030000
002000
007000
007000
002000
001000
00F000
00F800
00F800
01F800
01F800
01F800
03FC00
03FC00
07FC00
07FE00
07FE00
0F7E00
0E7F00
1E3F00
1C3F00
3FFF80
3FFF80
3FBFC0
7C3FC0
7C3FC0
FC1FE0
FC1FE0
E00000
ENDCHAR
STARTCHAR 01E1
ENCODING 481
SWIDTH 630 0
DWIDTH 21 0
BBX 19 31 1 -1
BITMAP
03FE00
07FE00
030000
002000
007000
007000
002000
001000
00F000
00F800
00F800
01F800
01F800
01F800
03FC00
03FC00
07FC00
07FE00
07FE00
0F7E00
0E7F00
1E3F00
1C3F00
3FFF80
3FFF80
3FBFC0
7C3FC0
7C3FC0
FC1FE0
FC1FE0
E00000
ENDCHAR
STARTCHAR 01E2
ENCODING 482
SWIDTH 720 0
DWIDTH 24 0
BBX 23 28 1 -1
BITMAP
007FE0
007FE0
007FE0
000000
003FE0
00FFF0
00FFE0
00FFE0
01FFE0
01FFE0
01FFE0
03FE00
03FE00
07FE60
07FFE0
07FFE0
0F7FE0
0E7E00
1E3F0C
1C7FFC
3FFFFC
3FFFFE
7F3FFE
7C3FFE
7C1FFE
FC1FF0
FC1F00
C00000
ENDCHAR
STARTCHAR 01E3
ENCODING 483
SWIDTH 720 0
DWIDTH 24 0
BBX 23 28 1 -1
BITMAP
007FE0
007FE0
007FE0
000000
003FE0
00FFF0
00FFE0
00FFE0
01FFE0
01FFE0
01FFE0
03FE00
03FE00
07FE60
07FFE0
07FFE0
0F7FE0
0E7E00
1E3F0C
1C7FFC
3FFFFC
3FFFFE
7F3FFE
7C3FFE
7C1FFE
FC1FF0
FC1F00
C00000
ENDCHAR
STARTCHAR 01E4
ENCODING 484
SWIDTH 540 0
DWIDTH 18 0
BBX 17 23 1 0
BITMAP
01F800
03FE00
07FF00
07FF00
0FFF00
1FCE00
1F0000
1F0000
FF8000
FF8000
FFBF80
FFFF80
3C3F80
7C3F80
7E3F80
7E3F80
7FFF80
7FFF80
7FFF00
3FFE00
1FF800
0FE000
060000
ENDCHAR
STARTCHAR 01E5
ENCODING 485
SWIDTH 540 0
DWIDTH 18 0
BBX 17 23 1 0
BITMAP
01F800
03FE00
07FF00
07FF00
0FFF00
1FCE00
1F0000
1F0000
FF8000
FF8000
FFBF80
FFFF80
3C3F80
7C3F80
7E3F80
7E3F80
7FFF80
7FFF80
7FFF00
3FFE00
1FF800
0FE000
060000
ENDCHAR
STARTCHAR 01E6
ENCODING 486
SWIDTH 480 0
DWIDTH 16 0
BBX 15 29 1 0
BITMAP
0C30
1E78
0FF0
07E0
03C0
0000
03E0
07F8
0FFC
1FFE
3FFC
3F38
3C00
7C00
7800
7800
F8FE
F8FE
F8FE
F8FE
F8FE
FCFE
FFFE
FFFE
FFFC
FFF8
7FE0
3FC0
0800
ENDCHAR
STARTCHAR 01E7
ENCODING 487
SWIDTH 480 0
DWIDTH 16 0
BBX 15 29 1 0
BITMAP
0C30
1E78
0FF0
07E0
03C0
0000
03E0
07F8
0FFC
1FFE
3FFC
3F38
3C00
7C00
7800
7800
F8FE
F8FE
F8FE
F8FE
F8FE
FCFE
FFFE
FFFE
FFFC
FFF8
7FE0
3FC0
0800
ENDCHAR
STARTCHAR 01E8
ENCODING 488
SWIDTH 540 0
DWIDTH 18 0
BBX 17 29 1 0
BITMAP
030400
079E00
03FE00
01FC00
00F000
000000
098C00
FF9E00
FF9F80
FF3F00
FF3F00
FF7E00
FF7C00
FFF800
FFF800
FFF000
FFF000
FFE000
FFE000
FFF000
FFF800
FFFC00
FFFC00
FF7E00
FF3F00
FF1F00
FF1F80
FF0E80
DF0C00
ENDCHAR
STARTCHAR 01E9
ENCODING 489
SWIDTH 540 0
DWIDTH 18 0
BBX 17 29 1 0
BITMAP
030400
079E00
03FE00
01FC00
00F000
000000
098C00
FF9E00
FF9F80
FF3F00
FF3F00
FF7E00
FF7C00
FFF800
FFF800
FFF000
FFF000
FFE000
FFE000
FFF000
FFF800
FFFC00
FFFC00
FF7E00
FF3F00
FF1F00
FF1F80
FF0E80
DF0C00
ENDCHAR
STARTCHAR 01EA
ENCODING 490
SWIDTH 510 0
DWIDTH 17 0
BBX 16 28 1 -5
BITMAP
0F00
1FC0
1FE0
3FF8
3FF8
7FFC
7FFE
FFFE
FE7E
FC3F
FC3F
FC3F
FC3F
FC7F
FFFF
FFFF
FFFF
7FFF
7FFE
3FFE
3FFE
1FF8
07F0
01C0
0380
03C4
03FE
03FE
ENDCHAR
STARTCHAR 01EB
ENCODING 491
SWIDTH 510 0
DWIDTH 17 0
BBX 16 28 1 -5
BITMAP
0F00
1FC0
1FE0
3FF8
3FF8
7FFC
7FFE
FFFE
FE7E
FC3F
FC3F
FC3F
FC3F
FC7F
FFFF
FFFF
FFFF
7FFF
7FFE
3FFE
3FFE
1FF8
07F0
01C0
0380
03C4
03FE
03FE
ENDCHAR
STARTCHAR 01EC
ENCODING 492
SWIDTH 510 0
DWIDTH 17 0
BBX 16 32 1 -5
BITMAP
7FC0
7FC0
7FC0
0000
0F00
1FC0
1FE0
3FF8
3FF8
7FFC
7FFE
FFFE
FE7E
FC3F
FC3F
FC3F
FC3F
FC7F
FFFF
FFFF
FFFF
7FFF
7FFE
3FFE
3FFE
1FF8
07F0
01C0
0380
03C4
03FE
03FE
ENDCHAR
STARTCHAR 01ED
ENCODING 493
SWIDTH 510 0
DWIDTH 17 0
BBX 16 32 1 -5
BITMAP
7FC0
7FC0
7FC0
0000
0F00
1FC0
1FE0
3FF8
3FF8
7FFC
7FFE
FFFE
FE7E
FC3F
FC3F
FC3F
FC3F
FC7F
FFFF
FFFF
FFFF
7FFF
7FFE
3FFE
3FFE
1FF8
07F0
01C0
0380
03C4
03FE
03FE
ENDCHAR
STARTCHAR 01EE
ENCODING 494
SWIDTH 480 0
DWIDTH 16 0
BBX 15 29 1 0
BITMAP
1020
3CF0
3FE0
1FC0
0F80
0200
3FF0
FFF8
7FF8
7FF8
0070
01F0
03E0
07C0
0FE0
3FF8
7FFC
3FFC
007C
003E
001E
001E
C03E
F87E
FFFE
FFFC
FFF8
7FF8
1FE0
ENDCHAR
STARTCHAR 01EF
ENCODING 495
SWIDTH 480 0
DWIDTH 16 0
BBX 15 29 1 0
BITMAP
1020
3CF0
3FE0
1FC0
0F80
0200
3FF0
FFF8
7FF8
7FF8
0070
01F0
03E0
07C0
0FE0
3FF8
7FFC
3FFC
007C
003E
001E
001E
C03E
F87E
FFFE
FFFC
FFF8
7FF8
1FE0
ENDCHAR
STARTCHAR 01F0
ENCODING 496
SWIDTH 450 0
DWIDTH 15 0
BBX 15 29 1 0
BITMAP
060C
07BE
07FC
03F8
00F0
0000
0008
03F8
03F8
03F8
07F8
07F8
07F8
07FC
07FC
07FC
07FC
07FC
03FC
03FC
03FC
11FC
F9F8
FBF8
FDF8
FFF0
7FE0
3FC0
0F80
ENDCHAR
STARTCHAR 01F4
ENCODING 500
SWIDTH 480 0
DWIDTH 16 0
BBX 15 29 1 0
BITMAP
0078
00F8
00F0
01E0
01C0
0000
03E0
07F8
0FFC
1FFE
3FFC
3F38
3C00
7C00
7800
7800
F8FE
F8FE
F8FE
F8FE
F8FE
FCFE
FFFE
FFFE
FFFC
FFF8
7FE0
3FC0
0800
ENDCHAR
STARTCHAR 01F5
ENCODING 501
SWIDTH 480 0
DWIDTH 16 0
BBX 15 29 1 0
BITMAP
0078
00F8
00F0
01E0
01C0
0000
03E0
07F8
0FFC
1FFE
3FFC
3F38
3C00
7C00
7800
7800
F8FE
F8FE
F8FE
F8FE
F8FE
FCFE
FFFE
FFFE
FFFC
FFF8
7FE0
3FC0
0800
ENDCHAR
STARTCHAR 01F8
ENCODING 504
SWIDTH 540 0
DWIDTH 18 0
BBX 17 29 1 0
BITMAP
078000
078000
03C000
01C000
01E000
000000
000000
3F0F80
3F9F80
7F1F80
7F1F80
7F1F80
7F9F80
7F9F80
7F9F80
7FDF80
FFDF00
FFDF00
FFFF00
FFFF00
FFFF00
FEFF00
FEFF00
FEFF00
FC7F00
FC7F00
FC7F00
FC7F00
E00800
ENDCHAR
STARTCHAR 01F9
ENCODING 505
SWIDTH 540 0
DWIDTH 18 0
BBX 17 29 1 0
BITMAP
078000
078000
03C000
01C000
01E000
000000
000000
3F0F80
3F9F80
7F1F80
7F1F80
7F1F80
7F9F80
7F9F80
7F9F80
7FDF80
FFDF00
FFDF00
FFFF00
FFFF00
FFFF00
FEFF00
FEFF00
FEFF00
FC7F00
FC7F00
FC7F00
FC7F00
E00800
ENDCHAR
STARTCHAR 01FE
ENCODING 510
SWIDTH 510 0
DWIDTH 17 0
BBX 18 29 0 -1
BITMAP
00F000
01F000
03E000
03C000
078000
000440
078FC0
0FEF80
0FFF80
1FFF00
1FFF00
3FFE00
3FFF00
7FFF00
7EFF80
7DFF80
79FF80
7BEF80
7BCF80
7FDF80
7FBF80
7FFF80
7FFF80
3FFF80
3FFF00
3FFF00
7FFF00
FFFC00
F3F800
ENDCHAR
STARTCHAR 01FF
ENCODING 511
SWIDTH 510 0
DWIDTH 17 0
BBX 18 29 0 -1
BITMAP
00F000
01F000
03E000
03C000
078000
000440
078FC0
0FEF80
0FFF80
1FFF00
1FFF00
3FFE00
3FFF00
7FFF00
7EFF80
7DFF80
79FF80
7BEF80
7BCF80
7FDF80
7FBF80
7FFF80
7FFF80
3FFF80
3FFF00
3FFF00
7FFF00
FFFC00
F3F800
ENDCHAR
STARTCHAR 0218
ENCODING 536
SWIDTH 480 0
DWIDTH 16 0
BBX 15 29 1 -6
BITMAP
07FC
1FFE
3FFE
3FFC
3FFC
7FF8
7FF8
7FF0
7EF0
7E00
7F80
3FE0
3FF8
07FC
00FC
007C
C0FE
FFFE
FFFC
FFFC
FFFC
7FF0
1FC0
0700
0F80
0F80
0F00
0E00
0400
ENDCHAR
STARTCHAR 0219
ENCODING 537
SWIDTH 480 0
DWIDTH 16 0
BBX 15 29 1 -6
BITMAP
07FC
1FFE
3FFE
3FFC
3FFC
7FF8
7FF8
7FF0
7EF0
7E00
7F80
3FE0
3FF8
07FC
00FC
007C
C0FE
FFFE
FFFC
FFFC
FFFC
7FF0
1FC0
0700
0F80
0F80
0F00
0E00
0400
ENDCHAR
STARTCHAR 021A
ENCODING 538
SWIDTH 570 0
DWIDTH 19 0
BBX 18 28 1 -6
BITMAP
000400
FFFF80
FFFF80
FFFF80
FFFFC0
FFFFC0
FFFFC0
F9F800
83F000
03E000
03E000
03E000
03E000
03E000
03E000
03E000
03E000
03E000
03E000
03E000
03E000
03E000
03E000
01C000
03E000
03E000
03C000
038000
ENDCHAR
STARTCHAR 021B
ENCODING 539
SWIDTH 570 0
DWIDTH 19 0
BBX 18 28 1 -6
BITMAP
000400
FFFF80
FFFF80
FFFF80
FFFFC0
FFFFC0
FFFFC0
F9F800
83F000
03E000
03E000
03E000
03E000
03E000
03E000
03E000
03E000
03E000
03E000
03E000
03E000
03E000
03E000
01C000
03E000
03E000
03C000
038000
ENDCHAR
STARTCHAR 021E
ENCODING 542
SWIDTH 540 0
DWIDTH 18 0
BBX 17 29 1 0
BITMAP
038600
03DF00
03FE00
01FC00
007800
000000
030000
3F8F80
7F0F80
3F9F80
3F9F80
3F1F80
3F1F80
7F1F80
7F1F80
7FFF80
7FFF80
7FFF80
7FFF00
7FFF80
7FFF80
7F3F80
7F3F80
7F3F80
FF3F80
FF3F00
FF3F00
FE3F00
080000
ENDCHAR
STARTCHAR 021F
ENCODING 543
SWIDTH 540 0
DWIDTH 18 0
BBX 17 29 1 0
BITMAP
038600
03DF00
03FE00
01FC00
007800
000000
030000
3F8F80
7F0F80
3F9F80
3F9F80
3F1F80
3F1F80
7F1F80
7F1F80
7FFF80
7FFF80
7FFF80
7FFF00
7FFF80
7FFF80
7F3F80
7F3F80
7F3F80
FF3F80
FF3F00
FF3F00
FE3F00
080000
ENDCHAR
STARTCHAR 0224
ENCODING 548
SWIDTH 600 0
DWIDTH 20 0
BBX 18 27 1 -4
BITMAP
03FC00
3FFE00
7FFE00
FFFC00
FFF800
FFF800
81F000
01F000
01F000
03E000
03E000
03E000
07C000
07C000
0FC000
0FC000
0F8000
1FFFC0
1FFFC0
1FFFC0
1FFFC0
000FC0
000FC0
003FC0
003FC0
003F80
003F00
ENDCHAR
STARTCHAR 0225
ENCODING 549
SWIDTH 600 0
DWIDTH 20 0
BBX 18 27 1 -4
BITMAP
03FC00
3FFE00
7FFE00
FFFC00
FFF800
FFF800
81F000
01F000
01F000
03E000
03E000
03E000
07C000
07C000
0FC000
0FC000
0F8000
1FFFC0
1FFFC0
1FFFC0
1FFFC0
000FC0
000FC0
003FC0
003FC0
003F80
003F00
ENDCHAR
STARTCHAR 0226
ENCODING 550
SWIDTH 630 0
DWIDTH 21 0
BBX 19 28 1 -1
BITMAP
007000
00F000
00F000
002000
001000
00F000
00F800
00F800
01F800
01F800
01F800
03FC00
03FC00
07FC00
07FE00
07FE00
0F7E00
0E7F00
1E3F00
1C3F00
3FFF80
3FFF80
3FBFC0
7C3FC0
7C3FC0
FC1FE0
FC1FE0
E00000
ENDCHAR
STARTCHAR 0227
ENCODING 551
SWIDTH 630 0
DWIDTH 21 0
BBX 19 28 1 -1
BITMAP
007000
00F000
00F000
002000
001000
00F000
00F800
00F800
01F800
01F800
01F800
03FC00
03FC00
07FC00
07FE00
07FE00
0F7E00
0E7F00
1E3F00
1C3F00
3FFF80
3FFF80
3FBFC0
7C3FC0
7C3FC0
FC1FE0
FC1FE0
E00000
ENDCHAR
STARTCHAR 0228
ENCODING 552
SWIDTH 480 0
DWIDTH 16 0
BBX 15 29 1 -6
BITMAP
7FE0
FFF0
FFE0
FFE0
FFE0
7FE0
7FE0
7C00
7E00
7EE0
7FE0
3FE0
3FE0
3E00
3FEC
3FFC
3FFC
1FFC
1FFE
1FFE
1FFE
1FE0
1FE0
01E0
00F8
003C
07FC
07F8
0080
ENDCHAR
STARTCHAR 0229
ENCODING 553
SWIDTH 480 0
DWIDTH 16 0
BBX 15 29 1 -6
BITMAP
7FE0
FFF0
FFE0
FFE0
FFE0
7FE0
7FE0
7C00
7E00
7EE0
7FE0
3FE0
3FE0
3E00
3FEC
3FFC
3FFC
1FFC
1FFE
1FFE
1FFE
1FE0
1FE0
01E0
00F8
003C
07FC
07F8
0080
ENDCHAR
STARTCHAR 022A
ENCODING 554
SWIDTH 510 0
DWIDTH 17 0
BBX 16 30 1 0
BITMAP
7FE0
7FE0
3FE0
2000
71C0
71C0
3180
0F00
1FC0
1FE0
3FF8
3FF8
7FFC
7FFE
FFFE
FE7E
FC3F
FC3F
FC3F
FC3F
FC7F
FFFF
FFFF
FFFF
7FFF
7FFE
3FFE
3FFE
1FF8
07F0
ENDCHAR
STARTCHAR 022B
ENCODING 555
SWIDTH 510 0
DWIDTH 17 0
BBX 16 30 1 0
BITMAP
7FE0
7FE0
3FE0
2000
71C0
71C0
3180
0F00
1FC0
1FE0
3FF8
3FF8
7FFC
7FFE
FFFE
FE7E
FC3F
FC3F
FC3F
FC3F
FC7F
FFFF
FFFF
FFFF
7FFF
7FFE
3FFE
3FFE
1FF8
07F0
ENDCHAR
STARTCHAR 022C
ENCODING 556
SWIDTH 510 0
DWIDTH 17 0
BBX 16 30 1 0
BITMAP
7FC0
7FC0
6000
39C0
7FC0
7FC0
0000
0F00
1FC0
1FE0
3FF8
3FF8
7FFC
7FFE
FFFE
FE7E
FC3F
FC3F
FC3F
FC3F
FC7F
FFFF
FFFF
FFFF
7FFF
7FFE
3FFE
3FFE
1FF8
07F0
ENDCHAR
STARTCHAR 022D
ENCODING 557
SWIDTH 510 0
DWIDTH 17 0
BBX 16 30 1 0
BITMAP
7FC0
7FC0
6000
39C0
7FC0
7FC0
0000
0F00
1FC0
1FE0
3FF8
3FF8
7FFC
7FFE
FFFE
FE7E
FC3F
FC3F
FC3F
FC3F
FC7F
FFFF
FFFF
FFFF
7FFF
7FFE
3FFE
3FFE
1FF8
07F0
ENDCHAR
STARTCHAR 022E
ENCODING 558
SWIDTH 510 0
DWIDTH 17 0
BBX 16 27 1 0
BITMAP
0E00
1E00
0C00
0000
0F00
1FC0
1FE0
3FF8
3FF8
7FFC
7FFE
FFFE
FE7E
FC3F
FC3F
FC3F
FC3F
FC7F
FFFF
FFFF
FFFF
7FFF
7FFE
3FFE
3FFE
1FF8
07F0
ENDCHAR
STARTCHAR 022F
ENCODING 559
SWIDTH 510 0
DWIDTH 17 0
BBX 16 27 1 0
BITMAP
0E00
1E00
0C00
0000
0F00
1FC0
1FE0
3FF8
3FF8
7FFC
7FFE
FFFE
FE7E
FC3F
FC3F
FC3F
FC3F
FC7F
FFFF
FFFF
FFFF
7FFF
7FFE
3FFE
3FFE
1FF8
07F0
ENDCHAR
STARTCHAR 0230
ENCODING 560
SWIDTH 510 0
DWIDTH 17 0
BBX 16 30 1 0
BITMAP
7FC0
7FC0
6000
0E00
0E00
0E00
0000
0F00
1FC0
1FE0
3FF8
3FF8
7FFC
7FFE
FFFE
FE7E
FC3F
FC3F
FC3F
FC3F
FC7F
FFFF
FFFF
FFFF
7FFF
7FFE
3FFE
3FFE
1FF8
07F0
ENDCHAR
STARTCHAR 0231
ENCODING 561
SWIDTH 510 0
DWIDTH 17 0
BBX 16 30 1 0
BITMAP
7FC0
7FC0
6000
0E00
0E00
0E00
0000
0F00
1FC0
1FE0
3FF8
3FF8
7FFC
7FFE
FFFE
FE7E
FC3F
FC3F
FC3F
FC3F
FC7F
FFFF
FFFF
FFFF
7FFF
7FFE
3FFE
3FFE
1FF8
07F0
ENDCHAR
STARTCHAR 0232
ENCODING 562
SWIDTH 600 0
DWIDTH 20 0
BBX 19 27 1 0
BITMAP
07FC00
07FC00
0FFC00
000000
0003E0
1807C0
FC07C0
FC0FC0
FE0F80
7E1F80
7F1F00
3F3F00
3F3E00
1FFE00
1FFC00
0FFC00
0FF800
07F800
07F000
03F000
03F000
01F000
01F000
01F000
01F000
01F000
01F000
ENDCHAR
STARTCHAR 0233
ENCODING 563
SWIDTH 600 0
DWIDTH 20 0
BBX 19 27 1 0
BITMAP
07FC00
07FC00
0FFC00
000000
0003E0
1807C0
FC07C0
FC0FC0
FE0F80
7E1F80
7F1F00
3F3F00
3F3E00
1FFE00
1FFC00
0FFC00
0FF800
07F800
07F000
03F000
03F000
01F000
01F000
01F000
01F000
01F000
01F000
ENDCHAR
STARTCHAR 0241
ENCODING 577
SWIDTH 450 0
DWIDTH 15 0
BBX 14 23 1 0
BITMAP
3FF0
7FF8
FFFC
FFFC
FFFC
F0FC
007C
007C
00FC
00FC
01F8
03F8
0FF0
1FE0
1F80
1F80
1F00
1F00
1F00
1F00
1F00
1F00
1F00
ENDCHAR
STARTCHAR 0242
ENCODING 578
SWIDTH 450 0
DWIDTH 15 0
BBX 14 23 1 0
BITMAP
3FF0
7FF8
FFFC
FFFC
FFFC
F0FC
007C
007C
00FC
00FC
01F8
03F8
0FF0
1FE0
1F80
1F80
1F00
1F00
1F00
1F00
1F00
1F00
1F00
ENDCHAR
STARTCHAR 0243
ENCODING 579
SWIDTH 510 0
DWIDTH 17 0
BBX 16 23 1 0
BITMAP
3F00
FFE0
FFF0
FFF0
FFF8
FDF8
FC78
FC78
7C78
7EF0
7FE0
7FF8
7FFC
7FFE
7EBE
FFBF
FFBF
FFBF
FFFE
3FFE
3FFC
3FF0
1E00
ENDCHAR
STARTCHAR 0244
ENCODING 580
SWIDTH 570 0
DWIDTH 19 0
BBX 18 22 1 1
BITMAP
380800
3E0F80
3E0F80
7E0F80
7E0F80
FFFFC0
FFFFC0
FFFFC0
FFFFC0
FC1F80
FC1F80
FE1F80
FF1F80
FFFF80
FFFF80
7FFF00
7FFF00
7FFE00
3FFE00
3FFC00
1FF800
0FF000
ENDCHAR
STARTCHAR 0253
ENCODING 595
SWIDTH 660 0
DWIDTH 22 0
BBX 21 23 1 0
BITMAP
07F800
3FFF00
7FFF80
7FFF80
FFFFC0
FFE7C0
FFE3C0
F3E3C0
E3E3C0
F3F7C0
FBFF00
FBFFC0
7BFFE0
7BFFF0
13F1F8
01F8F8
01F9F8
01FBF8
01FFF8
01FFF0
01FFE0
01FF80
00F000
ENDCHAR
STARTCHAR 0254
ENCODING 596
SWIDTH 480 0
DWIDTH 16 0
BBX 15 23 1 0
BITMAP
0600
7FC0
FFF0
FFF8
FFFC
FFFC
BFFC
03FE
00FE
00FE
00FE
00FE
00FE
FFFE
FFFE
FFFC
FFFC
FFFC
FFF8
FFF8
7FF0
3FC0
0600
ENDCHAR
STARTCHAR 0256
ENCODING 598
SWIDTH 480 0
DWIDTH 16 0
BBX 16 23 0 0
BITMAP
1F00
3FC0
3FF0
3FF8
3FFC
3FFE
3F7E
3F1E
3FCF
FFDF
FFDF
FFDF
FF3E
1F7E
1FFC
1FFC
1FF8
1FF8
0FF0
0FE0
0FC0
0F00
0400
ENDCHAR
STARTCHAR 0257
ENCODING 599
SWIDTH 630 0
DWIDTH 21 0
BBX 20 23 1 0
BITMAP
03F000
3FFC00
7FFF00
7FFF80
FFFFC0
FFFFC0
FFF7E0
F3F1E0
E3E1F0
F3F1F0
FBF1F0
FBF1E0
7BF3E0
7BF7E0
13FFC0
01FFC0
01FF80
01FF00
01FF00
00FE00
00FC00
00F000
00C000
ENDCHAR
STARTCHAR 0259
ENCODING 601
SWIDTH 480 0
DWIDTH 16 0
BBX 15 23 1 0
BITMAP
1F80
7FC0
FFE0
FFF0
FFF8
71F8
0078
003C
003C
FFFC
FFFC
FFFC
FFFC
FC7E
FC7E
FCFE
FFFE
FFFE
FFFE
7FFC
3FF8
1FF0
00E0
ENDCHAR
STARTCHAR 025B
ENCODING 603
SWIDTH 480 0
DWIDTH 16 0
BBX 15 23 1 0
BITMAP
1FC0
3FF0
7FF8
FFF8
FF18
FC00
FC00
FC00
FC00
7E20
7FE0
3FF0
3FF0
7F00
7E00
7C00
7C00
7E0E
7FFE
7FFE
3FFC
1FFC
07F0
ENDCHAR
STARTCHAR 0260
ENCODING 608
SWIDTH 480 0
DWIDTH 16 0
BBX 15 29 1 0
BITMAP
0002
007E
00FE
01FE
01FE
01F8
03F8
07F8
0FFC
1FFE
3FFC
3F38
3C00
7C00
7800
7800
F8FE
F8FE
F8FE
F8FE
F8FE
FCFE
FFFE
FFFE
FFFC
FFF8
7FE0
3FC0
0800
ENDCHAR
STARTCHAR 0263
ENCODING 611
SWIDTH 600 0
DWIDTH 20 0
BBX 19 26 1 -4
BITMAP
F80600
F807E0
FC0FE0
7C0FC0
7C0FC0
7C1F80
3E1F80
3E1F00
3F3F00
1F3F00
1FFE00
0FFE00
07FC00
07FC00
03F800
03F000
07F800
0FF800
0F7C00
0F3C00
0E3C00
0E3C00
0F7800
0FF800
07F000
03E000
ENDCHAR
STARTCHAR 0268
ENCODING 616
SWIDTH 360 0
DWIDTH 12 0
BBX 11 22 1 0
BITMAP
1FC0
1FC0
1FC0
3F80
3F80
3F80
3F80
3F80
3FC0
FFE0
FFE0
FFE0
FFE0
3F80
7F80
7F80
7F80
7F80
7F00
7F00
7F00
F000
ENDCHAR
STARTCHAR 0272
ENCODING 626
SWIDTH 540 0
DWIDTH 18 0
BBX 20 26 -2 -4
BITMAP
07E1F0
07F3F0
0FE3F0
0FE3F0
0FE3F0
0FF3F0
0FF3F0
0FF3F0
0FFBF0
1FFBE0
1FFBE0
1FFFE0
1FFFE0
1FFFE0
1FDFE0
1FDFE0
1F9FE0
1F8FE0
1F8FE0
1F8FE0
1F8FE0
3F0100
FF0000
FF0000
FE0000
FC0000
ENDCHAR
STARTCHAR 0278
ENCODING 632
SWIDTH 660 0
DWIDTH 22 0
BBX 21 27 1 -2
BITMAP
00E400
01FC00
01FC00
0FFD80
3FFFE0
7FFFE0
7FFFF0
FFFFF0
FFFFF0
FFFFF0
FDFBF0
F9FBF8
F9FBF8
F9FBF0
F9FBF0
FDFBF0
FDF3F0
FFF7F0
FFFFE0
FFFFE0
FFFFC0
7FFF80
3FFF00
03E600
03E000
03E000
008000
ENDCHAR
STARTCHAR 0289
ENCODING 649
SWIDTH 570 0
DWIDTH 19 0
BBX 18 22 1 1
BITMAP
380800
3E0F80
3E0F80
7E0F80
7E0F80
FFFFC0
FFFFC0
FFFFC0
FFFFC0
FC1F80
FC1F80
FE1F80
FF1F80
FFFF80
FFFF80
7FFF00
7FFF00
7FFE00
3FFE00
3FFC00
1FF800
0FF000
ENDCHAR
STARTCHAR 028B
ENCODING 651
SWIDTH 540 0
DWIDTH 18 0
BBX 17 22 1 1
BITMAP
10F000
F1F800
F1FC00
F8FE00
F87E00
F83F00
F81F00
F81F80
F81F80
FC1F80
FC1F80
FC1F80
FE3F80
7E3F80
7FFF80
7FFF80
3FFF80
3FFF00
1FFF00
1FFE00
0FFE00
07F800
ENDCHAR
STARTCHAR 0292
ENCODING 658
SWIDTH 480 0
DWIDTH 16 0
BBX 15 23 1 0
BITMAP
3FF0
FFF8
7FF8
7FF8
0070
01F0
03E0
07C0
0FE0
3FF8
7FFC
3FFC
007C
003E
001E
001E
C03E
F87E
FFFE
FFFC
FFF8
7FF8
1FE0
ENDCHAR
STARTCHAR 0294
ENCODING 660
SWIDTH 450 0
DWIDTH 15 0
BBX 14 23 1 0
BITMAP
3FF0
7FF8
FFFC
FFFC
FFFC
F0FC
007C
007C
00FC
00FC
01F8
03F8
0FF0
1FE0
1F80
1F80
1F00
1F00
1F00
1F00
1F00
1F00
1F00
ENDCHAR
STARTCHAR 0295
ENCODING 661
SWIDTH 450 0
DWIDTH 15 0
BBX 14 23 1 0
BITMAP
3FF0
FFF8
FFF8
FFFC
FFFC
F83C
F810
F800
F800
F800
FC00
FF00
3F80
1FC0
0FC0
07C0
07C0
07C0
07C0
07C0
07C0
07C0
07C0
ENDCHAR
STARTCHAR 0296
ENCODING 662
SWIDTH 450 0
DWIDTH 15 0
BBX 14 23 1 0
BITMAP
1F00
1F00
1F00
1F00
1F00
1F00
1F00
1F80
1FC0
0FE0
07F8
03F8
00FC
00FC
00FC
007C
60FC
F8FC
FFFC
FFFC
FFF8
7FF8
3FC0
ENDCHAR
STARTCHAR 02B9
ENCODING 697
SWIDTH 210 0
DWIDTH 7 0
BBX 6 12 1 12
BITMAP
38
7C
78
78
78
F0
F0
F0
E0
E0
E0
40
ENDCHAR
STARTCHAR 02BA
ENCODING 698
SWIDTH 390 0
DWIDTH 13 0
BBX 12 12 1 12
BITMAP
38F0
7CF0
79E0
79E0
79E0
F1C0
F3C0
F3C0
E380
E380
E380
4180
ENDCHAR
STARTCHAR 02BB
ENCODING 699
SWIDTH 210 0
DWIDTH 7 0
BBX 6 12 1 12
BITMAP
30
78
7C
78
F8
F8
F8
F8
F8
F8
F8
F0
ENDCHAR
STARTCHAR 02BC
ENCODING 700
SWIDTH 210 0
DWIDTH 7 0
BBX 6 12 1 12
BITMAP
F8
F8
FC
FC
F8
F8
F8
F8
F0
F0
E0
60
ENDCHAR
STARTCHAR 02BD
ENCODING 701
SWIDTH 210 0
DWIDTH 7 0
BBX 5 12 1 12
BITMAP
F8
F8
F8
F8
F8
F8
F8
F8
78
78
38
30
ENDCHAR
STARTCHAR 02C6
ENCODING 710
SWIDTH 330 0
DWIDTH 11 0
BBX 10 5 1 24
BITMAP
0C00
3E00
7F00
FF80
F3C0
ENDCHAR
STARTCHAR 02C7
ENCODING 711
SWIDTH 330 0
DWIDTH 11 0
BBX 10 5 1 24
BITMAP
C180
F7C0
FF80
7F00
1E00
ENDCHAR
STARTCHAR 02C8
ENCODING 712
SWIDTH 120 0
DWIDTH 4 0
BBX 3 6 1 23
BITMAP
E0
E0
C0
C0
C0
C0
ENDCHAR
STARTCHAR 02C9
ENCODING 713
SWIDTH 300 0
DWIDTH 10 0
BBX 9 3 1 24
BITMAP
FF80
FF80
FF80
ENDCHAR
STARTCHAR 02CA
ENCODING 714
SWIDTH 210 0
DWIDTH 7 0
BBX 6 5 1 24
BITMAP
3C
7C
78
F0
E0
ENDCHAR
STARTCHAR 02CB
ENCODING 715
SWIDTH 210 0
DWIDTH 7 0
BBX 6 5 1 24
BITMAP
F0
F8
78
3C
1C
ENDCHAR
STARTCHAR 02CC
ENCODING 716
SWIDTH 120 0
DWIDTH 4 0
BBX 3 6 1 -6
BITMAP
C0
C0
C0
C0
E0
C0
ENDCHAR
STARTCHAR 02CD
ENCODING 717
SWIDTH 300 0
DWIDTH 10 0
BBX 9 2 1 -3
BITMAP
FF80
FF80
ENDCHAR
STARTCHAR 02D0
ENCODING 720
SWIDTH 210 0
DWIDTH 7 0
BBX 6 17 1 0
BITMAP
30
F8
FC
F8
F8
70
20
00
00
00
20
60
70
F8
F8
FC
F8
ENDCHAR
STARTCHAR 02D1
ENCODING 721
SWIDTH 210 0
DWIDTH 7 0
BBX 6 7 1 10
BITMAP
30
F8
FC
F8
F8
70
20
ENDCHAR
STARTCHAR 02D8
ENCODING 728
SWIDTH 330 0
DWIDTH 11 0
BBX 9 5 1 24
BITMAP
C180
E380
FF80
FF00
3E00
ENDCHAR
STARTCHAR 02D9
ENCODING 729
SWIDTH 120 0
DWIDTH 4 0
BBX 3 4 1 23
BITMAP
E0
E0
E0
40
ENDCHAR
STARTCHAR 02DA
ENCODING 730
SWIDTH 300 0
DWIDTH 10 0
BBX 9 9 1 20
BITMAP
1C00
7F00
FF80
E380
E380
E380
F780
7F00
3C00
ENDCHAR
STARTCHAR 02DB
ENCODING 731
SWIDTH 270 0
DWIDTH 9 0
BBX 8 8 1 -5
BITMAP
30
70
60
E0
E1
FF
FF
0C
ENDCHAR
STARTCHAR 02DC
ENCODING 732
SWIDTH 300 0
DWIDTH 10 0
BBX 9 4 1 24
BITMAP
F380
FF80
FF80
DF00
ENDCHAR
STARTCHAR 02DD
ENCODING 733
SWIDTH 390 0
DWIDTH 13 0
BBX 12 5 1 24
BITMAP
3CF0
7DF0
79E0
F3C0
E380
ENDCHAR
STARTCHAR 0300
ENCODING 768
SWIDTH 0 0
DWIDTH 0 0
BBX 7 5 -14 24
BITMAP
F8
78
3C
3C
1E
ENDCHAR
STARTCHAR 0301
ENCODING 769
SWIDTH 0 0
DWIDTH 0 0
BBX 6 5 -9 24
BITMAP
3C
7C
78
F0
E0
ENDCHAR
STARTCHAR 0302
ENCODING 770
SWIDTH 0 0
DWIDTH 0 0
BBX 10 5 -14 24
BITMAP
0C00
3E00
7F80
FFC0
F3C0
ENDCHAR
STARTCHAR 0303
ENCODING 771
SWIDTH 0 0
DWIDTH 0 0
BBX 10 4 -14 25
BITMAP
7BC0
FFC0
FF80
EF00
ENDCHAR
STARTCHAR 0304
ENCODING 772
SWIDTH 0 0
DWIDTH 0 0
BBX 10 3 -14 24
BITMAP
FFC0
FFC0
FFC0
ENDCHAR
STARTCHAR 0305
ENCODING 773
SWIDTH 0 0
DWIDTH 0 0
BBX 12 5 -15 23
BITMAP
7FC0
FFF0
FFF0
FFF0
7E00
ENDCHAR
STARTCHAR 0306
ENCODING 774
SWIDTH 0 0
DWIDTH 0 0
BBX 10 5 -14 24
BITMAP
E1C0
E1C0
FF80
7F80
3F00
ENDCHAR
STARTCHAR 0307
ENCODING 775
SWIDTH 0 0
DWIDTH 0 0
BBX 4 4 -11 23
BITMAP
60
F0
F0
60
ENDCHAR
STARTCHAR 0308
ENCODING 776
SWIDTH 0 0
DWIDTH 0 0
BBX 9 4 -14 23
BITMAP
6380
F380
F380
0100
ENDCHAR
STARTCHAR 030A
ENCODING 778
SWIDTH 0 0
DWIDTH 0 0
BBX 10 8 -14 22
BITMAP
3F00
7F80
E3C0
E1C0
E3C0
FF80
7F00
0800
ENDCHAR
STARTCHAR 030B
ENCODING 779
SWIDTH 0 0
DWIDTH 0 0
BBX 12 5 -13 24
BITMAP
3CF0
3DF0
79E0
F3C0
F380
ENDCHAR
STARTCHAR 030C
ENCODING 780
SWIDTH 0 0
DWIDTH 0 0
BBX 10 5 -14 24
BITMAP
E180
F7C0
FF80
3F00
1E00
ENDCHAR
STARTCHAR 030D
ENCODING 781
SWIDTH 0 0
DWIDTH 0 0
BBX 3 6 -11 23
BITMAP
E0
E0
E0
E0
E0
E0
ENDCHAR
STARTCHAR 0311
ENCODING 785
SWIDTH 0 0
DWIDTH 0 0
BBX 10 5 -14 24
BITMAP
1800
3F00
7F80
FF80
E3C0
ENDCHAR
STARTCHAR 0323
ENCODING 803
SWIDTH 0 0
DWIDTH 0 0
BBX 4 3 -11 -5
BITMAP
E0
F0
E0
ENDCHAR
STARTCHAR 0326
ENCODING 806
SWIDTH 0 0
DWIDTH 0 0
BBX 5 6 -12 -6
BITMAP
70
F8
F0
F0
E0
40
ENDCHAR
STARTCHAR 0327
ENCODING 807
SWIDTH 0 0
DWIDTH 0 0
BBX 9 9 -14 -6
BITMAP
1C00
3C00
3C00
3C00
1F00
0780
FF80
FF00
1000
ENDCHAR
STARTCHAR 0328
ENCODING 808
SWIDTH 0 0
DWIDTH 0 0
BBX 9 8 -13 -5
BITMAP
1000
3000
3000
7000
E000
E100
FF80
FF80
ENDCHAR
STARTCHAR 0329
ENCODING 809
SWIDTH 0 0
DWIDTH 0 0
BBX 3 6 -11 -6
BITMAP
E0
E0
E0
E0
E0
E0
ENDCHAR
STARTCHAR 0331
ENCODING 817
SWIDTH 0 0
DWIDTH 0 0
BBX 10 3 -14 -4
BITMAP
4000
FFC0
FFC0
ENDCHAR
STARTCHAR 0342
ENCODING 834
SWIDTH 0 0
DWIDTH 0 0
BBX 10 4 -14 25
BITMAP
7BC0
FFC0
FF80
EF00
ENDCHAR
STARTCHAR 0344
ENCODING 836
SWIDTH 0 0
DWIDTH 0 0
BBX 9 7 -14 23
BITMAP
0700
0E00
0C00
7D00
F380
F380
2000
ENDCHAR
STARTCHAR 0345
ENCODING 837
SWIDTH 0 0
DWIDTH 0 0
BBX 6 6 -11 -6
BITMAP
E0
E0
E0
FC
7C
38
ENDCHAR
STARTCHAR 0374
ENCODING 884
SWIDTH 210 0
DWIDTH 7 0
BBX 6 5 1 19
BITMAP
7C
78
F0
E0
E0
ENDCHAR
STARTCHAR 0375
ENCODING 885
SWIDTH 210 0
DWIDTH 7 0
BBX 6 6 1 -6
BITMAP
3C
38
78
F0
F0
E0
ENDCHAR
STARTCHAR 037A
ENCODING 890
SWIDTH 210 0
DWIDTH 7 0
BBX 6 6 1 -6
BITMAP
C0
C0
C0
FC
FC
30
ENDCHAR
STARTCHAR 037B
ENCODING 891
SWIDTH 480 0
DWIDTH 16 0
BBX 15 23 1 0
BITMAP
0600
7FC0
FFF0
FFF8
FFFC
FFFC
BFFC
03FE
00FE
00FE
00FE
00FE
00FE
FFFE
FFFE
FFFC
FFFC
FFFC
FFF8
FFF8
7FF0
3FC0
0600
ENDCHAR
STARTCHAR 037E
ENCODING 894
SWIDTH 210 0
DWIDTH 7 0
BBX 6 21 1 -6
BITMAP
78
F8
FC
F8
F8
30
00
00
00
00
78
F8
F8
FC
F8
F8
F8
F8
F0
F0
E0
ENDCHAR
STARTCHAR 037F
ENCODING 895
SWIDTH 450 0
DWIDTH 15 0
BBX 14 23 1 0
BITMAP
0008
03F8
03F8
03F8
07F8
07F8
07F8
07FC
07FC
07FC
07FC
07FC
03FC
03FC
03FC
11FC
F9F8
FBF8
FDF8
FFF0
7FE0
3FC0
0F80
ENDCHAR
STARTCHAR 0384
ENCODING 900
SWIDTH 150 0
DWIDTH 5 0
BBX 4 5 1 19
BITMAP
70
70
E0
E0
C0
ENDCHAR
STARTCHAR 0385
ENCODING 901
SWIDTH 300 0
DWIDTH 10 0
BBX 9 7 1 23
BITMAP
0E00
0E00
1C00
5B00
E780
E780
4000
ENDCHAR
STARTCHAR 0386
ENCODING 902
SWIDTH 630 0
DWIDTH 21 0
BBX 19 25 1 -1
BITMAP
0E0000
0E1000
1CF000
1CF800
18F800
01F800
01F800
01F800
03FC00
03FC00
07FC00
07FE00
07FE00
0F7E00
0E7F00
1E3F00
1C3F00
3FFF80
3FFF80
3FBFC0
7C3FC0
7C3FC0
FC1FE0
FC1FE0
E00000
ENDCHAR
STARTCHAR 0387
ENCODING 903
SWIDTH 210 0
DWIDTH 7 0
BBX 6 6 1 10
BITMAP
78
F8
FC
F8
F8
30
ENDCHAR
STARTCHAR 0388
ENCODING 904
SWIDTH 570 0
DWIDTH 19 0
BBX 19 24 0 0
BITMAP
380000
77FE00
7FFF00
EFFE00
EFFE00
07FE00
07FE00
07FE00
07E000
07E000
07EE00
03FE00
03FE00
03FE00
03F000
03FEC0
03FFC0
01FFC0
01FFE0
01FFE0
01FFE0
01FFE0
01FE00
01E000
ENDCHAR
STARTCHAR 0389
ENCODING 905
SWIDTH 600 0
DWIDTH 20 0
BBX 20 24 0 0
BITMAP
380000
706000
7FE1F0
EFE3F0
EFE3F0
0FE3F0
0FE3F0
0FE7F0
0FE3E0
0FE7E0
0FFFE0
0FFFE0
0FFFE0
1FFFE0
1FFFE0
1FFFE0
1FC7E0
1FC7E0
1FC7E0
1FC7E0
1FCFE0
1FC7E0
3FC7E0
008800
ENDCHAR
STARTCHAR 038A
ENCODING 906
SWIDTH 360 0
DWIDTH 12 0
BBX 12 24 0 0
BITMAP
3800
7000
77F0
E7F0
E7F0
0FE0
0FE0
0FE0
0FE0
0FE0
0FE0
0FE0
0FE0
0FE0
0FE0
0FE0
0FE0
1FE0
1FE0
1FE0
1FC0
1FC0
1FC0
3C00
ENDCHAR
STARTCHAR 038C
ENCODING 908
SWIDTH 540 0
DWIDTH 18 0
BBX 18 24 0 0
BITMAP
380000
73C000
77E000
EFF800
EFFC00
1FFE00
1FFF00
3FFF00
3FFF80
3FBF80
7F1F80
7E1FC0
7E1FC0
7E1FC0
7F1FC0
7FFFC0
3FFFC0
3FFF80
3FFF80
1FFF80
1FFF80
0FFF00
07FE00
01F800
ENDCHAR
STARTCHAR 038E
ENCODING 910
SWIDTH 690 0
DWIDTH 23 0
BBX 22 24 0 0
BITMAP
380000
70003C
71807C
FF80FC
FFC0F8
0FC1F8
0FE1F0
07E3F0
07F3E0
03F7E0
03F7C0
01FFC0
01FF80
00FF80
00FF00
007F00
007E00
003E00
003E00
003F00
003F00
003F00
003F00
001E00
ENDCHAR
STARTCHAR 038F
ENCODING 911
SWIDTH 630 0
DWIDTH 21 0
BBX 21 24 0 0
BITMAP
380000
73FE00
7FFF80
EFFFC0
FFFFC0
1FFFE0
3FFFF0
3FCFF0
3F03F0
3F01F0
3E01F8
3E00F8
3E00F8
3E00F8
1E00F0
1F01F0
1F01F0
0F83E0
0F83C0
3FC7F8
3FC7F8
3FC7F8
3FC7F8
3FC7F8
ENDCHAR
STARTCHAR 0390
ENCODING 912
SWIDTH 330 0
DWIDTH 11 0
BBX 11 30 1 0
BITMAP
0380
0380
0700
16C0
39E0
39E0
1000
0000
3FC0
3F80
3F80
3F80
3F80
3F80
3F80
7F80
7F00
7F00
7F00
7F00
7F00
7F00
7F00
7F00
7F00
7F00
7F00
7F00
FF00
F000
ENDCHAR
STARTCHAR 0391
ENCODING 913
SWIDTH 630 0
DWIDTH 21 0
BBX 19 24 1 -1
BITMAP
001000
00F000
00F800
00F800
01F800
01F800
01F800
03FC00
03FC00
07FC00
07FE00
07FE00
0F7E00
0E7F00
1E3F00
1C3F00
3FFF80
3FFF80
3FBFC0
7C3FC0
7C3FC0
FC1FE0
FC1FE0
E00000
ENDCHAR
STARTCHAR 0392
ENCODING 914
SWIDTH 510 0
DWIDTH 17 0
BBX 16 23 1 0
BITMAP
3F00
FFE0
FFF0
FFF0
FFF8
FDF8
FC78
FC78
7C78
7EF0
7FE0
7FF8
7FFC
7FFE
7E3E
7E3F
7F3F
3F7F
3FFE
3FFE
3FFC
3FF0
1E00
ENDCHAR
STARTCHAR 0393
ENCODING 915
SWIDTH 480 0
DWIDTH 16 0
BBX 15 23 1 0
BITMAP
3FFE
FFFE
FFFE
FFFE
FFFE
FC00
FC00
FC00
FC00
FC00
F800
F800
F800
F800
F800
F800
F800
F800
FC00
FC00
FC00
FC00
F800
ENDCHAR
STARTCHAR 0394
ENCODING 916
SWIDTH 570 0
DWIDTH 19 0
BBX 18 22 1 0
BITMAP
00F800
01F800
03F800
03FC00
07FC00
07FC00
0FFC00
0FFE00
1FFE00
1FBE00
3FBF00
3F3F00
3F3F00
7F3F00
7E3F80
7E1F80
FE1F80
FCFFC0
FFFFC0
FFFFC0
FFFFC0
FFFFC0
ENDCHAR
STARTCHAR 0395
ENCODING 917
SWIDTH 480 0
DWIDTH 16 0
BBX 15 23 1 0
BITMAP
7FE0
FFF0
FFE0
FFE0
FFE0
7FE0
7FE0
7C00
7E00
7EE0
7FE0
3FE0
3FE0
3E00
3FEC
3FFC
3FFC
1FFC
1FFE
1FFE
1FFE
1FE0
1E00
ENDCHAR
STARTCHAR 0396
ENCODING 918
SWIDTH 600 0
DWIDTH 20 0
BBX 18 23 1 0
BITMAP
03FC00
3FFE00
7FFE00
FFFC00
FFF800
FFF800
81F000
01F000
01F000
03E000
03E000
03E000
07C000
07C000
0FC000
0FC000
0F8000
1FFFC0
1FFFC0
1FFFC0
1FFF80
03FF00
007800
ENDCHAR
STARTCHAR 0397
ENCODING 919
SWIDTH 540 0
DWIDTH 18 0
BBX 17 23 1 0
BITMAP
030000
3F8F80
7F0F80
3F9F80
3F9F80
3F1F80
3F1F80
7F1F80
7F1F80
7FFF80
7FFF80
7FFF80
7FFF00
7FFF80
7FFF80
7F3F80
7F3F80
7F3F80
FF3F80
FF3F00
FF3F00
FE3F00
080000
ENDCHAR
STARTCHAR 0398
ENCODING 920
SWIDTH 510 0
DWIDTH 17 0
BBX 16 23 1 0
BITMAP
0FC0
1FF0
7FFC
7FFC
7FFE
FFFE
FFFF
FFFF
FC7F
FC3F
FFFF
FFFF
FFFF
FC3F
FC3F
FFFF
7FFF
7FFE
3FFE
3FFE
1FFC
0FFC
03F8
ENDCHAR
STARTCHAR 0399
ENCODING 921
SWIDTH 330 0
DWIDTH 11 0
BBX 10 22 1 0
BITMAP
3FC0
3F80
3F80
3F80
3F80
3F80
3F80
7F80
7F00
7F00
7F00
7F00
7F00
7F00
7F00
7F00
7F00
7F00
7F00
7F00
FF00
F000
ENDCHAR
STARTCHAR 039A
ENCODING 922
SWIDTH 540 0
DWIDTH 18 0
BBX 17 23 1 0
BITMAP
098C00
FF9E00
FF9F80
FF3F00
FF3F00
FF7E00
FF7C00
FFF800
FFF800
FFF000
FFF000
FFE000
FFE000
FFF000
FFF800
FFFC00
FFFC00
FF7E00
FF3F00
FF1F00
FF1F80
FF0E80
DF0C00
ENDCHAR
STARTCHAR 039B
ENCODING 923
SWIDTH 570 0
DWIDTH 19 0
BBX 18 21 1 1
BITMAP
1F0000
1F0000
1F8000
1FC000
1FC000
1FE000
3FF000
3FF000
3FF800
3FF800
3EFC00
7EFE00
7EFE00
7EFF00
7E7F00
FE7F80
FE7F80
FE3FC0
FE3FC0
FC3FC0
FC01C0
ENDCHAR
STARTCHAR 039C
ENCODING 924
SWIDTH 630 0
DWIDTH 21 0
BBX 20 23 1 0
BITMAP
100000
180180
1C03C0
3C03C0
3E07C0
3F07C0
3F0FC0
3F9FC0
7F9FE0
7FFFE0
7FFFE0
7FFFE0
7FFFE0
7F7FE0
7F3FE0
7E0FE0
FE0FE0
FE0FF0
FC0FF0
FC0FF0
FC0FF0
F80FF0
F80000
ENDCHAR
STARTCHAR 039D
ENCODING 925
SWIDTH 540 0
DWIDTH 18 0
BBX 17 22 1 0
BITMAP
3F0F80
3F9F80
7F1F80
7F1F80
7F1F80
7F9F80
7F9F80
7F9F80
7FDF80
FFDF00
FFDF00
FFFF00
FFFF00
FFFF00
FEFF00
FEFF00
FEFF00
FC7F00
FC7F00
FC7F00
FC7F00
E00800
ENDCHAR
STARTCHAR 039E
ENCODING 926
SWIDTH 480 0
DWIDTH 16 0
BBX 15 23 1 0
BITMAP
3C00
FFFC
FFFC
FFFC
FFFE
FFFE
0000
0000
0000
7FF8
7FF8
7FF8
7FF8
3E00
0000
0000
0000
FFE0
FFFC
FFFC
FFFC
FFFC
01FC
ENDCHAR
STARTCHAR 039F
ENCODING 927
SWIDTH 510 0
DWIDTH 17 0
BBX 16 23 1 0
BITMAP
0F00
1FC0
1FE0
3FF8
3FF8
7FFC
7FFE
FFFE
FE7E
FC3F
FC3F
FC3F
FC3F
FC7F
FFFF
FFFF
FFFF
7FFF
7FFE
3FFE
3FFE
1FF8
07F0
ENDCHAR
STARTCHAR 03A0
ENCODING 928
SWIDTH 540 0
DWIDTH 18 0
BBX 17 23 1 0
BITMAP
FE3800
FFFF80
FFFF80
FFFF80
FFFF80
FFFF80
F81F80
F81F80
F81F80
FC1F80
FC1F80
FC1F80
FC1F80
FC1F80
FC1F00
FC1F00
FC1F00
FC1F00
FC1F80
FC1F80
FC1F80
7C1F80
7C0F80
ENDCHAR
STARTCHAR 03A1
ENCODING 929
SWIDTH 480 0
DWIDTH 16 0
BBX 15 23 1 0
BITMAP
0F00
7FF0
7FF8
7FF8
7FFC
7CFC
7C3C
7E3E
FE3E
FE3E
FFFE
FFFE
FFFC
FFF0
FF00
FF00
FF00
FF00
FF00
FF00
FF00
FF00
FF00
ENDCHAR
STARTCHAR 03A3
ENCODING 931
SWIDTH 480 0
DWIDTH 16 0
BBX 15 23 1 0
BITMAP
7FE0
FFFC
FFFC
FFFE
FFFE
FFC0
FE00
7F80
1FC0
0FE0
07F0
03F0
03F0
07E0
0FC0
1F80
3F00
FF08
FFFE
FFFE
FFFE
FFFE
3FFC
ENDCHAR
STARTCHAR 03A4
ENCODING 932
SWIDTH 570 0
DWIDTH 19 0
BBX 18 23 1 0
BITMAP
000400
FFFF80
FFFF80
FFFF80
FFFFC0
FFFFC0
FFFFC0
F9F800
83F000
03E000
03E000
03E000
03E000
03E000
03E000
03E000
03E000
03E000
03E000
03E000
03E000
03E000
03E000
ENDCHAR
STARTCHAR 03A5
ENCODING 933
SWIDTH 600 0
DWIDTH 20 0
BBX 19 23 1 0
BITMAP
0003E0
1807C0
FC07C0
FC0FC0
FE0F80
7E1F80
7F1F00
3F3F00
3F3E00
1FFE00
1FFC00
0FFC00
0FF800
07F800
07F000
03F000
03F000
01F000
01F000
01F000
01F000
01F000
01F000
ENDCHAR
STARTCHAR 03A6
ENCODING 934
SWIDTH 660 0
DWIDTH 22 0
BBX 21 27 1 -2
BITMAP
00E400
01FC00
01FC00
0FFD80
3FFFE0
7FFFE0
7FFFF0
FFFFF0
FFFFF0
FFFFF0
FDFBF0
F9FBF8
F9FBF8
F9FBF0
F9FBF0
FDFBF0
FDF3F0
FFF7F0
FFFFE0
FFFFE0
FFFFC0
7FFF80
3FFF00
03E600
03E000
03E000
008000
ENDCHAR
STARTCHAR 03A7
ENCODING 935
SWIDTH 570 0
DWIDTH 19 0
BBX 18 22 1 1
BITMAP
000600
7C0FC0
FC1FC0
FC1F80
FE3F80
FE3F00
FF3F00
7F7E00
3FFE00
1FFE00
0FFC00
0FFC00
07F800
07F800
0FFC00
1FFC00
1FFC00
3F7E00
3F3E00
7F1F00
7F1F00
7E0800
ENDCHAR
STARTCHAR 03A8
ENCODING 936
SWIDTH 720 0
DWIDTH 24 0
BBX 23 23 1 0
BITMAP
00000C
F8787C
F87C7E
F87C7E
F87C7C
F87C7C
F87C7C
F8FC7C
F8FC7C
F8FCFC
F8FCFC
FEFDF8
7FFFF8
7FFFF8
3FFFF0
1FFFE0
0FFFC0
01FF00
00FC00
00FC00
00FC00
00FC00
00FC00
ENDCHAR
STARTCHAR 03A9
ENCODING 937
SWIDTH 600 0
DWIDTH 20 0
BBX 19 23 1 0
BITMAP
0FF800
3FFE00
3FFF00
7FFF00
7FFF80
FFFFC0
FF3FC0
FC0FC0
FC07C0
F807E0
F807E0
F803E0
F803E0
7803C0
7C07C0
7C07C0
3E0F80
3E1F00
FF1FE0
FF1FE0
FF1FE0
FF1FE0
FF1FE0
ENDCHAR
STARTCHAR 03AA
ENCODING 938
SWIDTH 330 0
DWIDTH 11 0
BBX 11 27 1 0
BITMAP
38C0
39E0
39C0
1000
0000
3FC0
3F80
3F80
3F80
3F80
3F80
3F80
7F80
7F00
7F00
7F00
7F00
7F00
7F00
7F00
7F00
7F00
7F00
7F00
7F00
FF00
F000
ENDCHAR
STARTCHAR 03AB
ENCODING 939
SWIDTH 600 0
DWIDTH 20 0
BBX 19 27 1 0
BITMAP
071C00
073C00
073C00
030000
0003E0
1807C0
FC07C0
FC0FC0
FE0F80
7E1F80
7F1F00
3F3F00
3F3E00
1FFE00
1FFC00
0FFC00
0FF800
07F800
07F000
03F000
03F000
01F000
01F000
01F000
01F000
01F000
01F000
ENDCHAR
STARTCHAR 03AC
ENCODING 940
SWIDTH 630 0
DWIDTH 21 0
BBX 19 25 1 -1
BITMAP
0E0000
0E1000
1CF000
1CF800
18F800
01F800
01F800
01F800
03FC00
03FC00
07FC00
07FE00
07FE00
0F7E00
0E7F00
1E3F00
1C3F00
3FFF80
3FFF80
3FBFC0
7C3FC0
7C3FC0
FC1FE0
FC1FE0
E00000
ENDCHAR
STARTCHAR 03AD
ENCODING 941
SWIDTH 570 0
DWIDTH 19 0
BBX 19 24 0 0
BITMAP
380000
77FE00
7FFF00
EFFE00
EFFE00
07FE00
07FE00
07FE00
07E000
07E000
07EE00
03FE00
03FE00
03FE00
03F000
03FEC0
03FFC0
01FFC0
01FFE0
01FFE0
01FFE0
01FFE0
01FE00
01E000
ENDCHAR
STARTCHAR 03AE
ENCODING 942
SWIDTH 600 0
DWIDTH 20 0
BBX 20 24 0 0
BITMAP
380000
706000
7FE1F0
EFE3F0
EFE3F0
0FE3F0
0FE3F0
0FE7F0
0FE3E0
0FE7E0
0FFFE0
0FFFE0
0FFFE0
1FFFE0
1FFFE0
1FFFE0
1FC7E0
1FC7E0
1FC7E0
1FC7E0
1FCFE0
1FC7E0
3FC7E0
008800
ENDCHAR
STARTCHAR 03AF
ENCODING 943
SWIDTH 360 0
DWIDTH 12 0
BBX 12 24 0 0
BITMAP
3800
7000
77F0
E7F0
E7F0
0FE0
0FE0
0FE0
0FE0
0FE0
0FE0
0FE0
0FE0
0FE0
0FE0
0FE0
0FE0
1FE0
1FE0
1FE0
1FC0
1FC0
1FC0
3C00
ENDCHAR
STARTCHAR 03B0
ENCODING 944
SWIDTH 600 0
DWIDTH 20 0
BBX 19 30 1 0
BITMAP
007800
007000
00E000
02D800
073C00
073C00
020000
0003E0
1807C0
FC07C0
FC0FC0
FE0F80
7E1F80
7F1F00
3F3F00
3F3E00
1FFE00
1FFC00
0FFC00
0FF800
07F800
07F000
03F000
03F000
01F000
01F000
01F000
01F000
01F000
01F000
ENDCHAR
STARTCHAR 03B1
ENCODING 945
SWIDTH 630 0
DWIDTH 21 0
BBX 19 24 1 -1
BITMAP
001000
00F000
00F800
00F800
01F800
01F800
01F800
03FC00
03FC00
07FC00
07FE00
07FE00
0F7E00
0E7F00
1E3F00
1C3F00
3FFF80
3FFF80
3FBFC0
7C3FC0
7C3FC0
FC1FE0
FC1FE0
E00000
ENDCHAR
STARTCHAR 03B2
ENCODING 946
SWIDTH 510 0
DWIDTH 17 0
BBX 16 23 1 0
BITMAP
3F00
FFE0
FFF0
FFF0
FFF8
FDF8
FC78
FC78
7C78
7EF0
7FE0
7FF8
7FFC
7FFE
7E3E
7E3F
7F3F
3F7F
3FFE
3FFE
3FFC
3FF0
1E00
ENDCHAR
STARTCHAR 03B3
ENCODING 947
SWIDTH 480 0
DWIDTH 16 0
BBX 15 23 1 0
BITMAP
3FFE
FFFE
FFFE
FFFE
FFFE
FC00
FC00
FC00
FC00
FC00
F800
F800
F800
F800
F800
F800
F800
F800
FC00
FC00
FC00
FC00
F800
ENDCHAR
STARTCHAR 03B4
ENCODING 948
SWIDTH 570 0
DWIDTH 19 0
BBX 18 22 1 0
BITMAP
00F800
01F800
03F800
03FC00
07FC00
07FC00
0FFC00
0FFE00
1FFE00
1FBE00
3FBF00
3F3F00
3F3F00
7F3F00
7E3F80
7E1F80
FE1F80
FCFFC0
FFFFC0
FFFFC0
FFFFC0
FFFFC0
ENDCHAR
STARTCHAR 03B5
ENCODING 949
SWIDTH 480 0
DWIDTH 16 0
BBX 15 23 1 0
BITMAP
7FE0
FFF0
FFE0
FFE0
FFE0
7FE0
7FE0
7C00
7E00
7EE0
7FE0
3FE0
3FE0
3E00
3FEC
3FFC
3FFC
1FFC
1FFE
1FFE
1FFE
1FE0
1E00
ENDCHAR
STARTCHAR 03B6
ENCODING 950
SWIDTH 600 0
DWIDTH 20 0
BBX 18 23 1 0
BITMAP
03FC00
3FFE00
7FFE00
FFFC00
FFF800
FFF800
81F000
01F000
01F000
03E000
03E000
03E000
07C000
07C000
0FC000
0FC000
0F8000
1FFFC0
1FFFC0
1FFFC0
1FFF80
03FF00
007800
ENDCHAR
STARTCHAR 03B7
ENCODING 951
SWIDTH 540 0
DWIDTH 18 0
BBX 17 23 1 0
BITMAP
030000
3F8F80
7F0F80
3F9F80
3F9F80
3F1F80
3F1F80
7F1F80
7F1F80
7FFF80
7FFF80
7FFF80
7FFF00
7FFF80
7FFF80
7F3F80
7F3F80
7F3F80
FF3F80
FF3F00
FF3F00
FE3F00
080000
ENDCHAR
STARTCHAR 03B8
ENCODING 952
SWIDTH 510 0
DWIDTH 17 0
BBX 16 23 1 0
BITMAP
0FC0
1FF0
7FFC
7FFC
7FFE
FFFE
FFFF
FFFF
FC7F
FC3F
FFFF
FFFF
FFFF
FC3F
FC3F
FFFF
7FFF
7FFE
3FFE
3FFE
1FFC
0FFC
03F8
ENDCHAR
STARTCHAR 03B9
ENCODING 953
SWIDTH 330 0
DWIDTH 11 0
BBX 10 22 1 0
BITMAP
3FC0
3F80
3F80
3F80
3F80
3F80
3F80
7F80
7F00
7F00
7F00
7F00
7F00
7F00
7F00
7F00
7F00
7F00
7F00
7F00
FF00
F000
ENDCHAR
STARTCHAR 03BA
ENCODING 954
SWIDTH 540 0
DWIDTH 18 0
BBX 17 23 1 0
BITMAP
098C00
FF9E00
FF9F80
FF3F00
FF3F00
FF7E00
FF7C00
FFF800
FFF800
FFF000
FFF000
FFE000
FFE000
FFF000
FFF800
FFFC00
FFFC00
FF7E00
FF3F00
FF1F00
FF1F80
FF0E80
DF0C00
ENDCHAR
STARTCHAR 03BB
ENCODING 955
SWIDTH 570 0
DWIDTH 19 0
BBX 18 21 1 1
BITMAP
1F0000
1F0000
1F8000
1FC000
1FC000
1FE000
3FF000
3FF000
3FF800
3FF800
3EFC00
7EFE00
7EFE00
7EFF00
7E7F00
FE7F80
FE7F80
FE3FC0
FE3FC0
FC3FC0
FC01C0
ENDCHAR
STARTCHAR 03BC
ENCODING 956
SWIDTH 630 0
DWIDTH 21 0
BBX 20 23 1 0
BITMAP
100000
180180
1C03C0
3C03C0
3E07C0
3F07C0
3F0FC0
3F9FC0
7F9FE0
7FFFE0
7FFFE0
7FFFE0
7FFFE0
7F7FE0
7F3FE0
7E0FE0
FE0FE0
FE0FF0
FC0FF0
FC0FF0
FC0FF0
F80FF0
F80000
ENDCHAR
STARTCHAR 03BD
ENCODING 957
SWIDTH 540 0
DWIDTH 18 0
BBX 17 22 1 0
BITMAP
3F0F80
3F9F80
7F1F80
7F1F80
7F1F80
7F9F80
7F9F80
7F9F80
7FDF80
FFDF00
FFDF00
FFFF00
FFFF00
FFFF00
FEFF00
FEFF00
FEFF00
FC7F00
FC7F00
FC7F00
FC7F00
E00800
ENDCHAR
STARTCHAR 03BE
ENCODING 958
SWIDTH 480 0
DWIDTH 16 0
BBX 15 23 1 0
BITMAP
3C00
FFFC
FFFC
FFFC
FFFE
FFFE
0000
0000
0000
7FF8
7FF8
7FF8
7FF8
3E00
0000
0000
0000
FFE0
FFFC
FFFC
FFFC
FFFC
01FC
ENDCHAR
STARTCHAR 03BF
ENCODING 959
SWIDTH 510 0
DWIDTH 17 0
BBX 16 23 1 0
BITMAP
0F00
1FC0
1FE0
3FF8
3FF8
7FFC
7FFE
FFFE
FE7E
FC3F
FC3F
FC3F
FC3F
FC7F
FFFF
FFFF
FFFF
7FFF
7FFE
3FFE
3FFE
1FF8
07F0
ENDCHAR
STARTCHAR 03C0
ENCODING 960
SWIDTH 540 0
DWIDTH 18 0
BBX 17 23 1 0
BITMAP
FE3800
FFFF80
FFFF80
FFFF80
FFFF80
FFFF80
F81F80
F81F80
F81F80
FC1F80
FC1F80
FC1F80
FC1F80
FC1F80
FC1F00
FC1F00
FC1F00
FC1F00
FC1F80
FC1F80
FC1F80
7C1F80
7C0F80
ENDCHAR
STARTCHAR 03C1
ENCODING 961
SWIDTH 480 0
DWIDTH 16 0
BBX 15 23 1 0
BITMAP
0F00
7FF0
7FF8
7FF8
7FFC
7CFC
7C3C
7E3E
FE3E
FE3E
FFFE
FFFE
FFFC
FFF0
FF00
FF00
FF00
FF00
FF00
FF00
FF00
FF00
FF00
ENDCHAR
STARTCHAR 03C2
ENCODING 962
SWIDTH 480 0
DWIDTH 16 0
BBX 15 27 1 -5
BITMAP
07F8
1FFC
3FFE
7FFE
7FFE
FFFE
FE00
F800
F800
F800
F800
F800
F800
FE00
FF80
FFF8
7FFC
3FFE
1FFE
0FFE
007E
00FE
03FC
03FC
03F8
03F0
0300
ENDCHAR
STARTCHAR 03C3
ENCODING 963
SWIDTH 480 0
DWIDTH 16 0
BBX 15 23 1 0
BITMAP
7FE0
FFFC
FFFC
FFFE
FFFE
FFC0
FE00
7F80
1FC0
0FE0
07F0
03F0
03F0
07E0
0FC0
1F80
3F00
FF08
FFFE
FFFE
FFFE
FFFE
3FFC
ENDCHAR
STARTCHAR 03C4
ENCODING 964
SWIDTH 570 0
DWIDTH 19 0
BBX 18 23 1 0
BITMAP
000400
FFFF80
FFFF80
FFFF80
FFFFC0
FFFFC0
FFFFC0
F9F800
83F000
03E000
03E000
03E000
03E000
03E000
03E000
03E000
03E000
03E000
03E000
03E000
03E000
03E000
03E000
ENDCHAR
STARTCHAR 03C5
ENCODING 965
SWIDTH 600 0
DWIDTH 20 0
BBX 19 23 1 0
BITMAP
0003E0
1807C0
FC07C0
FC0FC0
FE0F80
7E1F80
7F1F00
3F3F00
3F3E00
1FFE00
1FFC00
0FFC00
0FF800
07F800
07F000
03F000
03F000
01F000
01F000
01F000
01F000
01F000
01F000
ENDCHAR
STARTCHAR 03C6
ENCODING 966
SWIDTH 660 0
DWIDTH 22 0
BBX 21 27 1 -2
BITMAP
00E400
01FC00
01FC00
0FFD80
3FFFE0
7FFFE0
7FFFF0
FFFFF0
FFFFF0
FFFFF0
FDFBF0
F9FBF8
F9FBF8
F9FBF0
F9FBF0
FDFBF0
FDF3F0
FFF7F0
FFFFE0
FFFFE0
FFFFC0
7FFF80
3FFF00
03E600
03E000
03E000
008000
ENDCHAR
STARTCHAR 03C7
ENCODING 967
SWIDTH 570 0
DWIDTH 19 0
BBX 18 22 1 1
BITMAP
000600
7C0FC0
FC1FC0
FC1F80
FE3F80
FE3F00
FF3F00
7F7E00
3FFE00
1FFE00
0FFC00
0FFC00
07F800
07F800
0FFC00
1FFC00
1FFC00
3F7E00
3F3E00
7F1F00
7F1F00
7E0800
ENDCHAR
STARTCHAR 03C8
ENCODING 968
SWIDTH 720 0
DWIDTH 24 0
BBX 23 23 1 0
BITMAP
00000C
F8787C
F87C7E
F87C7E
F87C7C
F87C7C
F87C7C
F8FC7C
F8FC7C
F8FCFC
F8FCFC
FEFDF8
7FFFF8
7FFFF8
3FFFF0
1FFFE0
0FFFC0
01FF00
00FC00
00FC00
00FC00
00FC00
00FC00
ENDCHAR
STARTCHAR 03C9
ENCODING 969
SWIDTH 600 0
DWIDTH 20 0
BBX 19 23 1 0
BITMAP
0FF800
3FFE00
3FFF00
7FFF00
7FFF80
FFFFC0
FF3FC0
FC0FC0
FC07C0
F807E0
F807E0
F803E0
F803E0
7803C0
7C07C0
7C07C0
3E0F80
3E1F00
FF1FE0
FF1FE0
FF1FE0
FF1FE0
FF1FE0
ENDCHAR
STARTCHAR 03CA
ENCODING 970
SWIDTH 330 0
DWIDTH 11 0
BBX 11 27 1 0
BITMAP
38C0
39E0
39C0
1000
0000
3FC0
3F80
3F80
3F80
3F80
3F80
3F80
7F80
7F00
7F00
7F00
7F00
7F00
7F00
7F00
7F00
7F00
7F00
7F00
7F00
FF00
F000
ENDCHAR
STARTCHAR 03CB
ENCODING 971
SWIDTH 600 0
DWIDTH 20 0
BBX 19 27 1 0
BITMAP
071C00
073C00
073C00
030000
0003E0
1807C0
FC07C0
FC0FC0
FE0F80
7E1F80
7F1F00
3F3F00
3F3E00
1FFE00
1FFC00
0FFC00
0FF800
07F800
07F000
03F000
03F000
01F000
01F000
01F000
01F000
01F000
01F000
ENDCHAR
STARTCHAR 03CC
ENCODING 972
SWIDTH 540 0
DWIDTH 18 0
BBX 18 24 0 0
BITMAP
380000
73C000
77E000
EFF800
EFFC00
1FFE00
1FFF00
3FFF00
3FFF80
3FBF80
7F1F80
7E1FC0
7E1FC0
7E1FC0
7F1FC0
7FFFC0
3FFFC0
3FFF80
3FFF80
1FFF80
1FFF80
0FFF00
07FE00
01F800
ENDCHAR
STARTCHAR 03CD
ENCODING 973
SWIDTH 690 0
DWIDTH 23 0
BBX 22 24 0 0
BITMAP
380000
70003C
71807C
FF80FC
FFC0F8
0FC1F8
0FE1F0
07E3F0
07F3E0
03F7E0
03F7C0
01FFC0
01FF80
00FF80
00FF00
007F00
007E00
003E00
003E00
003F00
003F00
003F00
003F00
001E00
ENDCHAR
STARTCHAR 03CE
ENCODING 974
SWIDTH 630 0
DWIDTH 21 0
BBX 21 24 0 0
BITMAP
380000
73FE00
7FFF80
EFFFC0
FFFFC0
1FFFE0
3FFFF0
3FCFF0
3F03F0
3F01F0
3E01F8
3E00F8
3E00F8
3E00F8
1E00F0
1F01F0
1F01F0
0F83E0
0F83C0
3FC7F8
3FC7F8
3FC7F8
3FC7F8
3FC7F8
ENDCHAR
STARTCHAR 03D2
ENCODING 978
SWIDTH 630 0
DWIDTH 21 0
BBX 20 22 1 0
BITMAP
F803E0
FC07F0
FE0FF0
FE0FF0
FF1FF0
1F3FF0
0FBFE0
0FBC00
07BC00
07F800
07F800
07F000
07F000
03F000
03F000
03E000
03E000
03E000
03F000
03F000
03F000
03F000
ENDCHAR
STARTCHAR 03D3
ENCODING 979
SWIDTH 720 0
DWIDTH 24 0
BBX 24 24 0 0
BITMAP
380000
700000
7F803E
E7C07E
E7E0FF
07F0FF
07F1FF
00F9FE
00FBFE
007BC0
007BC0
007B80
003F80
003F80
003F00
003F00
003F00
003F00
003F00
003F00
003F00
003F00
003F00
001F00
ENDCHAR
STARTCHAR 03D4
ENCODING 980
SWIDTH 630 0
DWIDTH 21 0
BBX 20 27 1 0
BITMAP
071C00
073C00
073C00
030000
000000
F803E0
FC07F0
FE0FF0
FE0FF0
FF1FF0
1F3FF0
0FBFE0
0FBC00
07BC00
07F800
07F800
07F000
07F000
03F000
03F000
03E000
03E000
03E000
03F000
03F000
03F000
03F000
ENDCHAR
STARTCHAR 03D5
ENCODING 981
SWIDTH 660 0
DWIDTH 22 0
BBX 21 27 1 -2
BITMAP
00E400
01FC00
01FC00
0FFD80
3FFFE0
7FFFE0
7FFFF0
FFFFF0
FFFFF0
FFFFF0
FDFBF0
F9FBF8
F9FBF8
F9FBF0
F9FBF0
FDFBF0
FDF3F0
FFF7F0
FFFFE0
FFFFE0
FFFFC0
7FFF80
3FFF00
03E600
03E000
03E000
008000
ENDCHAR
STARTCHAR 03D8
ENCODING 984
SWIDTH 510 0
DWIDTH 17 0
BBX 16 27 1 -4
BITMAP
03F8
0FFC
1FFC
3FFE
3FFE
7FFE
7FFF
FFFF
FC7F
FC3F
FC1F
FC1F
FC1F
FC3F
FE3F
FFFF
FFFF
FFFE
7FFE
7FFC
7FFC
1FF0
0FC0
07C0
07C0
07C0
03C0
ENDCHAR
STARTCHAR 03D9
ENCODING 985
SWIDTH 510 0
DWIDTH 17 0
BBX 16 27 1 -4
BITMAP
03F8
0FFC
1FFC
3FFE
3FFE
7FFE
7FFF
FFFF
FC7F
FC3F
FC1F
FC1F
FC1F
FC3F
FE3F
FFFF
FFFF
FFFE
7FFE
7FFC
7FFC
1FF0
0FC0
07C0
07C0
07C0
03C0
ENDCHAR
STARTCHAR 03DA
ENCODING 986
SWIDTH 480 0
DWIDTH 16 0
BBX 15 28 1 -5
BITMAP
03FE
1FFE
3FFE
7FFE
7FFE
FFFE
FF00
FC00
F800
F800
F800
F800
F800
F800
FC00
FE00
FFC0
7FF8
7FFC
3FFE
1FFE
07FE
007E
03FC
03FC
03F8
03F0
0300
ENDCHAR
STARTCHAR 03DB
ENCODING 987
SWIDTH 480 0
DWIDTH 16 0
BBX 15 28 1 -5
BITMAP
03FE
1FFE
3FFE
7FFE
7FFE
FFFE
FF00
FC00
F800
F800
F800
F800
F800
F800
FC00
FE00
FFC0
7FF8
7FFC
3FFE
1FFE
07FE
007E
03FC
03FC
03F8
03F0
0300
ENDCHAR
STARTCHAR 03F2
ENCODING 1010
SWIDTH 480 0
DWIDTH 16 0
BBX 15 23 1 0
BITMAP
00C0
07F8
1FFC
3FFE
7FFE
FFFE
FFFC
FF00
FE00
FC00
FC00
FC00
FE00
FFFC
FFFE
FFFE
FFFE
7FFC
7FFE
3FFC
3FF8
0FF0
00C0
ENDCHAR
STARTCHAR 03F3
ENCODING 1011
SWIDTH 450 0
DWIDTH 15 0
BBX 14 23 1 0
BITMAP
0008
03F8
03F8
03F8
07F8
07F8
07F8
07FC
07FC
07FC
07FC
07FC
03FC
03FC
03FC
11FC
F9F8
FBF8
FDF8
FFF0
7FE0
3FC0
0F80
ENDCHAR
STARTCHAR 03F4
ENCODING 1012
SWIDTH 510 0
DWIDTH 17 0
BBX 16 23 1 0
BITMAP
1FC0
3FF0
3FF8
7FFC
7FFC
7FFE
FFFE
FFFE
FC3F
FC7F
FFFF
FFFF
FFFF
FC3F
FE7F
FFFF
FFFF
7FFF
7FFE
3FFE
3FFC
0FF8
03F0
ENDCHAR
STARTCHAR 03F7
ENCODING 1015
SWIDTH 480 0
DWIDTH 16 0
BBX 15 23 1 0
BITMAP
F800
F800
FC00
FF00
FFE0
FFF8
FFF8
FFFC
FC7C
FC3C
FC3E
FC3E
FC3E
FC7E
FEFE
FFFE
FFFC
7FF8
FFC0
FE00
7E00
7E00
7E00
ENDCHAR
STARTCHAR 03F8
ENCODING 1016
SWIDTH 480 0
DWIDTH 16 0
BBX 15 23 1 0
BITMAP
F800
F800
FC00
FF00
FFE0
FFF8
FFF8
FFFC
FC7C
FC3C
FC3E
FC3E
FC3E
FC7E
FEFE
FFFE
FFFC
7FF8
FFC0
FE00
7E00
7E00
7E00
ENDCHAR
STARTCHAR 03F9
ENCODING 1017
SWIDTH 480 0
DWIDTH 16 0
BBX 15 23 1 0
BITMAP
00C0
07F8
1FFC
3FFE
7FFE
FFFE
FFFC
FF00
FE00
FC00
FC00
FC00
FE00
FFFC
FFFE
FFFE
FFFE
7FFC
7FFE
3FFC
3FF8
0FF0
00C0
ENDCHAR
STARTCHAR 03FA
ENCODING 1018
SWIDTH 600 0
DWIDTH 20 0
BBX 19 23 1 0
BITMAP
000300
700700
781F00
7C3F00
FF7F80
FFFF80
FFFF80
FFFF80
FFFF80
FF9F80
FC1F80
FC1FC0
FC0FC0
FC0FC0
FE0FC0
FE0FC0
FE07C0
FE07E0
FE07E0
FE07E0
FE07E0
FE07E0
F00320
ENDCHAR
STARTCHAR 03FB
ENCODING 1019
SWIDTH 600 0
DWIDTH 20 0
BBX 19 23 1 0
BITMAP
000300
700700
781F00
7C3F00
FF7F80
FFFF80
FFFF80
FFFF80
FFFF80
FF9F80
FC1F80
FC1FC0
FC0FC0
FC0FC0
FE0FC0
FE0FC0
FE07C0
FE07E0
FE07E0
FE07E0
FE07E0
FE07E0
F00320
ENDCHAR
STARTCHAR 03FD
ENCODING 1021
SWIDTH 480 0
DWIDTH 16 0
BBX 15 23 1 0
BITMAP
0600
7FC0
FFF0
FFF8
FFFC
FFFC
BFFC
03FE
00FE
00FE
00FE
00FE
00FE
FFFE
FFFE
FFFC
FFFC
FFFC
FFF8
FFF8
7FF0
3FC0
0600
ENDCHAR
STARTCHAR 0400
ENCODING 1024
SWIDTH 480 0
DWIDTH 16 0
BBX 15 29 1 0
BITMAP
F000
F800
7C00
3C00
1E00
0000
7FE0
FFF0
FFE0
FFE0
FFE0
7FE0
7FE0
7C00
7E00
7EE0
7FE0
3FE0
3FE0
3E00
3FEC
3FFC
3FFC
1FFC
1FFE
1FFE
1FFE
1FE0
1E00
ENDCHAR
STARTCHAR 0401
ENCODING 1025
SWIDTH 480 0
DWIDTH 16 0
BBX 15 28 1 0
BITMAP
0300
E780
E780
E300
4000
7FE0
FFF0
FFE0
FFE0
FFE0
7FE0
7FE0
7C00
7E00
7EE0
7FE0
3FE0
3FE0
3E00
3FEC
3FFC
3FFC
1FFC
1FFE
1FFE
1FFE
1FE0
1E00
ENDCHAR
STARTCHAR 0402
ENCODING 1026
SWIDTH 660 0
DWIDTH 22 0
BBX 21 27 1 -4
BITMAP
7FFF80
FFFF80
FFFFC0
FFFF80
FFFF80
03F000
03F000
03F300
03FFC0
03FFE0
03FFF0
03FFF0
03FFF8
03F1F8
03E1F8
03E0F8
03E0F8
03E0F8
03E0F8
03E0F8
03E0F8
03E0F8
03E1F8
0007F8
0007F8
0007F0
0003C0
ENDCHAR
STARTCHAR 0403
ENCODING 1027
SWIDTH 480 0
DWIDTH 16 0
BBX 15 29 1 0
BITMAP
00F0
01F0
03E0
03C0
0780
0000
3FFE
FFFE
FFFE
FFFE
FFFE
FC00
FC00
FC00
FC00
FC00
F800
F800
F800
F800
F800
F800
F800
F800
FC00
FC00
FC00
FC00
F800
ENDCHAR
STARTCHAR 0404
ENCODING 1028
SWIDTH 480 0
DWIDTH 16 0
BBX 15 23 1 0
BITMAP
01C0
0FF8
1FFC
3FFE
7FFE
7FFE
FFFE
FFFE
FC0C
F800
FFF0
FFF0
FFF0
FFF0
F820
FC00
FFFE
FFFE
7FFE
3FFE
1FFE
07F8
01C0
ENDCHAR
STARTCHAR 0405
ENCODING 1029
SWIDTH 480 0
DWIDTH 16 0
BBX 15 23 1 0
BITMAP
07FC
1FFE
3FFE
3FFC
3FFC
7FF8
7FF8
7FF0
7EF0
7E00
7F80
3FE0
3FF8
07FC
00FC
007C
C0FE
FFFE
FFFC
FFFC
FFFC
7FF0
1FC0
ENDCHAR
STARTCHAR 0406
ENCODING 1030
SWIDTH 330 0
DWIDTH 11 0
BBX 10 22 1 0
BITMAP
3FC0
3F80
3F80
3F80
3F80
3F80
3F80
7F80
7F00
7F00
7F00
7F00
7F00
7F00
7F00
7F00
7F00
7F00
7F00
7F00
FF00
F000
ENDCHAR
STARTCHAR 0407
ENCODING 1031
SWIDTH 330 0
DWIDTH 11 0
BBX 11 27 1 0
BITMAP
38C0
39E0
39C0
1000
0000
3FC0
3F80
3F80
3F80
3F80
3F80
3F80
7F80
7F00
7F00
7F00
7F00
7F00
7F00
7F00
7F00
7F00
7F00
7F00
7F00
FF00
F000
ENDCHAR
STARTCHAR 0408
ENCODING 1032
SWIDTH 450 0
DWIDTH 15 0
BBX 14 23 1 0
BITMAP
0008
03F8
03F8
03F8
07F8
07F8
07F8
07FC
07FC
07FC
07FC
07FC
03FC
03FC
03FC
11FC
F9F8
FBF8
FDF8
FFF0
7FE0
3FC0
0F80
ENDCHAR
STARTCHAR 0409
ENCODING 1033
SWIDTH 720 0
DWIDTH 24 0
BBX 23 22 1 1
BITMAP
07FE00
07FE00
07FE00
0FFE00
0FFE00
0FFE00
0FFE00
1FFFC0
1FBFF0
1FBFF8
3F3FFC
3F3EFC
3F3E3C
7E3E3C
7E3E3E
7E3E3E
FE7E3E
FE7E7E
FE7FFC
FC7FFC
FC7FF8
001FF0
ENDCHAR
STARTCHAR 040A
ENCODING 1034
SWIDTH 720 0
DWIDTH 24 0
BBX 23 23 1 0
BITMAP
020000
3F3E00
7E3E00
3F3E00
3F3E00
7E3E00
7E3E00
7E3E00
7E3FC0
7FFFF0
7FFFF8
7FFFFC
7FFEFC
7FFE3C
7FFE3C
7E3E3E
7E3E3E
FE7E3E
FE7E7E
FE7FFC
FE7FFC
FE7FF8
001FF0
ENDCHAR
STARTCHAR 040B
ENCODING 1035
SWIDTH 660 0
DWIDTH 22 0
BBX 21 23 1 0
BITMAP
7FFF80
FFFF80
FFFFC0
FFFF80
FFFF80
03F000
03F000
03F300
03FFC0
03FFE0
03FFF0
03FFF0
03FFF8
03F1F8
03E1F8
03E1F8
03E1F8
03E1F8
03E0F8
03E0F8
03E0F8
03E0F8
03E0F8
ENDCHAR
STARTCHAR 040C
ENCODING 1036
SWIDTH 540 0
DWIDTH 18 0
BBX 17 29 1 0
BITMAP
001E00
003E00
003C00
007800
007000
000000
098C00
FF9E00
FF9F80
FF3F00
FF3F00
FF7E00
FF7C00
FFF800
FFF800
FFF000
FFF000
FFE000
FFE000
FFF000
FFF800
FFFC00
FFFC00
FF7E00
FF3F00
FF1F00
FF1F80
FF0E80
DF0C00
ENDCHAR
STARTCHAR 040D
ENCODING 1037
SWIDTH 540 0
DWIDTH 18 0
BBX 17 29 1 0
BITMAP
3C0000
3E0000
1E0000
0F0000
070000
000000
000000
F87E00
FC7E00
FC7E00
FC7E00
FC7F00
FC7F00
FCFF00
FCFF00
FCFF00
FDFF00
7DFF00
7FFF00
7FFF00
7FFF00
7F9F80
7F9F80
7F1F80
7F1F80
7F1F80
7F1F80
7F1F80
180380
ENDCHAR
STARTCHAR 040E
ENCODING 1038
SWIDTH 510 0
DWIDTH 17 0
BBX 15 29 1 0
BITMAP
3870
3870
1FF0
1FE0
0FC0
0000
787E
FC7E
FC7E
FC7E
7EFC
7EFC
3EFC
3FFC
1FF8
1FF8
0FF8
0FF8
0FF8
07F8
07F8
03F8
FFF0
FFF0
FFF0
FFF0
FFE0
FF80
F800
ENDCHAR
STARTCHAR 040F
ENCODING 1039
SWIDTH 510 0
DWIDTH 17 0
BBX 16 26 1 -4
BITMAP
F83F
F83F
F83F
F83F
F83F
F83F
F83F
F83F
F83F
F83F
F83F
F83F
F83F
F83F
F83F
F83F
FFFF
FFFF
FFFF
FFFF
FFFF
07C0
07C0
07C0
07C0
03C0
ENDCHAR
STARTCHAR 0410
ENCODING 1040
SWIDTH 630 0
DWIDTH 21 0
BBX 19 24 1 -1
BITMAP
001000
00F000
00F800
00F800
01F800
01F800
01F800
03FC00
03FC00
07FC00
07FE00
07FE00
0F7E00
0E7F00
1E3F00
1C3F00
3FFF80
3FFF80
3FBFC0
7C3FC0
7C3FC0
FC1FE0
FC1FE0
E00000
ENDCHAR
STARTCHAR 0411
ENCODING 1041
SWIDTH 480 0
DWIDTH 16 0
BBX 15 23 1 0
BITMAP
F840
FFFE
FFFE
FFFC
7FFC
7FFC
7FFC
7E00
7E00
7FF0
7FFC
7FFE
7FFE
7E7E
7E3E
7E3E
7E3E
7E7C
7FFC
7FF8
7FF8
7FF0
0F00
ENDCHAR
STARTCHAR 0412
ENCODING 1042
SWIDTH 510 0
DWIDTH 17 0
BBX 16 23 1 0
BITMAP
3F00
FFE0
FFF0
FFF0
FFF8
FDF8
FC78
FC78
7C78
7EF0
7FE0
7FF8
7FFC
7FFE
7E3E
7E3F
7F3F
3F7F
3FFE
3FFE
3FFC
3FF0
1E00
ENDCHAR
STARTCHAR 0413
ENCODING 1043
SWIDTH 480 0
DWIDTH 16 0
BBX 15 23 1 0
BITMAP
3FFE
FFFE
FFFE
FFFE
FFFE
FC00
FC00
FC00
FC00
FC00
F800
F800
F800
F800
F800
F800
F800
F800
FC00
FC00
FC00
FC00
F800
ENDCHAR
STARTCHAR 0414
ENCODING 1044
SWIDTH 600 0
DWIDTH 20 0
BBX 18 26 1 -4
BITMAP
00F800
01F800
01F800
03F800
03F800
03FC00
07FC00
07FC00
0FFC00
0FBE00
1FBE00
1FBE00
1F3E00
3F3F00
3F3F00
3F3F00
3E1F00
7E1F80
FFFFC0
FFFFC0
FFFFC0
FFFFC0
F807C0
F807C0
7C0780
7C0F80
ENDCHAR
STARTCHAR 0415
ENCODING 1045
SWIDTH 480 0
DWIDTH 16 0
BBX 15 23 1 0
BITMAP
7FE0
FFF0
FFE0
FFE0
FFE0
7FE0
7FE0
7C00
7E00
7EE0
7FE0
3FE0
3FE0
3E00
3FEC
3FFC
3FFC
1FFC
1FFE
1FFE
1FFE
1FE0
1E00
ENDCHAR
STARTCHAR 0416
ENCODING 1046
SWIDTH 690 0
DWIDTH 23 0
BBX 22 23 1 0
BITMAP
000018
F8F8F8
FDF9F8
FCF9F8
FEF9F8
FEFBF0
7EFBF0
7EFFF0
3FFFE0
3FFFE0
1FFFC0
1FFFC0
1FFFC0
1FFFE0
3FFFF0
3FFFF8
7F7DFC
FE7DFC
FE7DFC
FE7CFC
FE7CF8
FC7C00
003000
ENDCHAR
STARTCHAR 0417
ENCODING 1047
SWIDTH 480 0
DWIDTH 16 0
BBX 15 23 1 0
BITMAP
7FC0
FFF0
FFF0
FFF8
FFFC
C1FC
00FC
00FC
00F8
07F8
1FF0
1FF8
1FF8
00FC
007C
007E
40FE
7FFE
7FFC
7FFC
7FF8
3FF0
1FE0
ENDCHAR
STARTCHAR 0418
ENCODING 1048
SWIDTH 540 0
DWIDTH 18 0
BBX 17 22 1 0
BITMAP
F87E00
FC7E00
FC7E00
FC7E00
FC7F00
FC7F00
FCFF00
FCFF00
FCFF00
FDFF00
7DFF00
7FFF00
7FFF00
7FFF00
7F9F80
7F9F80
7F1F80
7F1F80
7F1F80
7F1F80
7F1F80
180380
ENDCHAR
STARTCHAR 0419
ENCODING 1049
SWIDTH 540 0
DWIDTH 18 0
BBX 17 29 1 0
BITMAP
387000
387000
1FF000
1FE000
0FC000
000000
000000
F87E00
FC7E00
FC7E00
FC7E00
FC7F00
FC7F00
FCFF00
FCFF00
FCFF00
FDFF00
7DFF00
7FFF00
7FFF00
7FFF00
7F9F80
7F9F80
7F1F80
7F1F80
7F1F80
7F1F80
7F1F80
180380
ENDCHAR
STARTCHAR 041A
ENCODING 1050
SWIDTH 540 0
DWIDTH 18 0
BBX 17 23 1 0
BITMAP
098C00
FF9E00
FF9F80
FF3F00
FF3F00
FF7E00
FF7C00
FFF800
FFF800
FFF000
FFF000
FFE000
FFE000
FFF000
FFF800
FFFC00
FFFC00
FF7E00
FF3F00
FF1F00
FF1F80
FF0E80
DF0C00
ENDCHAR
STARTCHAR 041B
ENCODING 1051
SWIDTH 570 0
DWIDTH 19 0
BBX 18 21 1 1
BITMAP
1F0000
1F0000
1F8000
1FC000
1FC000
1FE000
3FF000
3FF000
3FF800
3FF800
3EFC00
7EFE00
7EFE00
7EFF00
7E7F00
FE7F80
FE7F80
FE3FC0
FE3FC0
FC3FC0
FC01C0
ENDCHAR
STARTCHAR 041C
ENCODING 1052
SWIDTH 630 0
DWIDTH 21 0
BBX 20 23 1 0
BITMAP
100000
180180
1C03C0
3C03C0
3E07C0
3F07C0
3F0FC0
3F9FC0
7F9FE0
7FFFE0
7FFFE0
7FFFE0
7FFFE0
7F7FE0
7F3FE0
7E0FE0
FE0FE0
FE0FF0
FC0FF0
FC0FF0
FC0FF0
F80FF0
F80000
ENDCHAR
STARTCHAR 041D
ENCODING 1053
SWIDTH 540 0
DWIDTH 18 0
BBX 17 23 1 0
BITMAP
030000
3F8F80
7F0F80
3F9F80
3F9F80
3F1F80
3F1F80
7F1F80
7F1F80
7FFF80
7FFF80
7FFF80
7FFF00
7FFF80
7FFF80
7F3F80
7F3F80
7F3F80
FF3F80
FF3F00
FF3F00
FE3F00
080000
ENDCHAR
STARTCHAR 041E
ENCODING 1054
SWIDTH 510 0
DWIDTH 17 0
BBX 16 23 1 0
BITMAP
0F00
1FC0
1FE0
3FF8
3FF8
7FFC
7FFE
FFFE
FE7E
FC3F
FC3F
FC3F
FC3F
FC7F
FFFF
FFFF
FFFF
7FFF
7FFE
3FFE
3FFE
1FF8
07F0
ENDCHAR
STARTCHAR 041F
ENCODING 1055
SWIDTH 540 0
DWIDTH 18 0
BBX 17 23 1 0
BITMAP
FE3800
FFFF80
FFFF80
FFFF80
FFFF80
FFFF80
F81F80
F81F80
F81F80
FC1F80
FC1F80
FC1F80
FC1F80
FC1F80
FC1F00
FC1F00
FC1F00
FC1F00
FC1F80
FC1F80
FC1F80
7C1F80
7C0F80
ENDCHAR
STARTCHAR 0420
ENCODING 1056
SWIDTH 480 0
DWIDTH 16 0
BBX 15 23 1 0
BITMAP
0F00
7FF0
7FF8
7FF8
7FFC
7CFC
7C3C
7E3E
FE3E
FE3E
FFFE
FFFE
FFFC
FFF0
FF00
FF00
FF00
FF00
FF00
FF00
FF00
FF00
FF00
ENDCHAR
STARTCHAR 0421
ENCODING 1057
SWIDTH 480 0
DWIDTH 16 0
BBX 15 23 1 0
BITMAP
00C0
07F8
1FFC
3FFE
7FFE
FFFE
FFFC
FF00
FE00
FC00
FC00
FC00
FE00
FFFC
FFFE
FFFE
FFFE
7FFC
7FFE
3FFC
3FF8
0FF0
00C0
ENDCHAR
STARTCHAR 0422
ENCODING 1058
SWIDTH 570 0
DWIDTH 19 0
BBX 18 23 1 0
BITMAP
000400
FFFF80
FFFF80
FFFF80
FFFFC0
FFFFC0
FFFFC0
F9F800
83F000
03E000
03E000
03E000
03E000
03E000
03E000
03E000
03E000
03E000
03E000
03E000
03E000
03E000
03E000
ENDCHAR
STARTCHAR 0423
ENCODING 1059
SWIDTH 510 0
DWIDTH 17 0
BBX 15 23 1 0
BITMAP
787E
FC7E
FC7E
FC7E
7EFC
7EFC
3EFC
3FFC
1FF8
1FF8
0FF8
0FF8
0FF8
07F8
07F8
03F8
FFF0
FFF0
FFF0
FFF0
FFE0
FF80
F800
ENDCHAR
STARTCHAR 0424
ENCODING 1060
SWIDTH 660 0
DWIDTH 22 0
BBX 21 27 1 -2
BITMAP
00E400
01FC00
01FC00
0FFD80
3FFFE0
7FFFE0
7FFFF0
FFFFF0
FFFFF0
FFFFF0
FDFBF0
F9FBF8
F9FBF8
F9FBF0
F9FBF0
FDFBF0
FDF3F0
FFF7F0
FFFFE0
FFFFE0
FFFFC0
7FFF80
3FFF00
03E600
03E000
03E000
008000
ENDCHAR
STARTCHAR 0425
ENCODING 1061
SWIDTH 570 0
DWIDTH 19 0
BBX 18 22 1 1
BITMAP
000600
7C0FC0
FC1FC0
FC1F80
FE3F80
FE3F00
FF3F00
7F7E00
3FFE00
1FFE00
0FFC00
0FFC00
07F800
07F800
0FFC00
1FFC00
1FFC00
3F7E00
3F3E00
7F1F00
7F1F00
7E0800
ENDCHAR
STARTCHAR 0426
ENCODING 1062
SWIDTH 510 0
DWIDTH 17 0
BBX 16 26 1 -4
BITMAP
FC1F
FC1F
FC1F
FC3F
FC1F
FC3F
FC3F
FC3F
FC1F
FC1F
F81F
F81F
F81F
F81F
FC1F
F81F
FFFF
FFFF
FFFF
FFFF
FFFF
000F
001F
001F
001F
001F
ENDCHAR
STARTCHAR 0427
ENCODING 1063
SWIDTH 510 0
DWIDTH 17 0
BBX 16 22 1 0
BITMAP
F87C
F87C
F87C
F87C
F87C
F87C
F87E
F87E
FC7E
FC7E
FFFE
7FFE
7FFE
3FFE
1FFE
007E
003E
003E
003E
003E
003F
0010
ENDCHAR
STARTCHAR 0428
ENCODING 1064
SWIDTH 720 0
DWIDTH 24 0
BBX 23 23 1 0
BITMAP
C00000
F87C7E
F87C7E
F87C7E
F87C7E
F87C7E
F87C7E
F87C7E
F87C7E
F87C7E
F87C7E
FC7C7E
FC7C7E
FC7C7E
7C7C7E
7C7C7E
7FFFFE
7FFFFE
7FFFFE
7FFFFE
7FFFFE
7FFFFE
3FFF80
ENDCHAR
STARTCHAR 0429
ENCODING 1065
SWIDTH 720 0
DWIDTH 24 0
BBX 23 27 1 -4
BITMAP
000064
FC387E
FC3C7C
FC3C7C
FC3C7C
FC3C7C
FC3C7C
FC3C7C
FC3C7C
FC3C7C
FC3C7C
FE3C7C
FE3C7C
FE3C7C
FE3C7C
7E3CFC
7FFFFC
7FFFFC
7FFFFC
7FFFFC
7FFFFC
7FFFFC
7FFFFC
00007C
00007C
0000FC
0000FC
ENDCHAR
STARTCHAR 042A
ENCODING 1066
SWIDTH 630 0
DWIDTH 21 0
BBX 19 23 1 0
BITMAP
3F0000
FF0000
FF8000
FF8000
FF8000
FF8000
77C000
07F000
07FF00
07FF80
07FFC0
07FFE0
07E7E0
07C3E0
07C1E0
07C1E0
07C1E0
07E3E0
07EFE0
07FFE0
07FFC0
07FF00
020000
ENDCHAR
STARTCHAR 042B
ENCODING 1067
SWIDTH 660 0
DWIDTH 22 0
BBX 21 22 1 1
BITMAP
F80000
F800F0
FC00F8
FC00F8
FC00F8
FC00F8
FC00F8
FE00F8
FFE0F8
FFF0F8
FFF8F8
FFFCF8
FC7CF8
FC3CF8
FC3EF8
FC3EF8
FC3EF8
FC7CF8
FFFCF8
7FFCF8
7FF8F8
7FF0F8
ENDCHAR
STARTCHAR 042C
ENCODING 1068
SWIDTH 480 0
DWIDTH 16 0
BBX 15 23 1 0
BITMAP
F800
F800
FC00
FC00
FC00
FC00
FC00
FE00
FFE0
FFF0
FFF8
FFFC
FCFC
FC3C
FC3E
FC3E
FC3E
7C7E
FC7E
FFFE
7FFC
7FF8
7FF0
ENDCHAR
STARTCHAR 042D
ENCODING 1069
SWIDTH 480 0
DWIDTH 16 0
BBX 15 23 1 0
BITMAP
0F00
3FE0
FFF0
FFF8
FFF8
FFFC
FFFC
FFFE
E07E
007E
1FFE
1FFE
1FFE
3FFE
087E
00FE
FFFE
FFFC
FFFC
FFF8
FFF0
7FC0
0E00
ENDCHAR
STARTCHAR 042E
ENCODING 1070
SWIDTH 660 0
DWIDTH 22 0
BBX 21 23 1 0
BITMAP
381F00
3E1FC0
3E3FE0
3E3FE0
3E3FE0
7E7FF0
7E7FF0
7E7FF8
7F7DF8
7FF8F8
7FF8F8
7FF8F8
FFF8F8
FFF8F8
FFFCF8
FF7DF8
FF3FF0
FF3FF0
FF3FF0
FF1FF0
FF0FE0
3F07E0
000380
ENDCHAR
STARTCHAR 042F
ENCODING 1071
SWIDTH 510 0
DWIDTH 17 0
BBX 16 24 1 -1
BITMAP
07FC
0FFE
3FFE
7FFE
F8FE
F0FE
F0FE
F0FE
F0FE
FDFE
7FFF
7FFF
0FFF
0FFF
1FFF
1EFF
3EFF
3EFF
7CFF
7CFF
7CFF
FCFF
F87C
7800
ENDCHAR
STARTCHAR 0430
ENCODING 1072
SWIDTH 630 0
DWIDTH 21 0
BBX 19 24 1 -1
BITMAP
001000
00F000
00F800
00F800
01F800
01F800
01F800
03FC00
03FC00
07FC00
07FE00
07FE00
0F7E00
0E7F00
1E3F00
1C3F00
3FFF80
3FFF80
3FBFC0
7C3FC0
7C3FC0
FC1FE0
FC1FE0
E00000
ENDCHAR
STARTCHAR 0431
ENCODING 1073
SWIDTH 480 0
DWIDTH 16 0
BBX 15 23 1 0
BITMAP
F840
FFFE
FFFE
FFFC
7FFC
7FFC
7FFC
7E00
7E00
7FF0
7FFC
7FFE
7FFE
7E7E
7E3E
7E3E
7E3E
7E7C
7FFC
7FF8
7FF8
7FF0
0F00
ENDCHAR
STARTCHAR 0432
ENCODING 1074
SWIDTH 510 0
DWIDTH 17 0
BBX 16 23 1 0
BITMAP
3F00
FFE0
FFF0
FFF0
FFF8
FDF8
FC78
FC78
7C78
7EF0
7FE0
7FF8
7FFC
7FFE
7E3E
7E3F
7F3F
3F7F
3FFE
3FFE
3FFC
3FF0
1E00
ENDCHAR
STARTCHAR 0433
ENCODING 1075
SWIDTH 480 0
DWIDTH 16 0
BBX 15 23 1 0
BITMAP
3FFE
FFFE
FFFE
FFFE
FFFE
FC00
FC00
FC00
FC00
FC00
F800
F800
F800
F800
F800
F800
F800
F800
FC00
FC00
FC00
FC00
F800
ENDCHAR
STARTCHAR 0434
ENCODING 1076
SWIDTH 600 0
DWIDTH 20 0
BBX 18 26 1 -4
BITMAP
00F800
01F800
01F800
03F800
03F800
03FC00
07FC00
07FC00
0FFC00
0FBE00
1FBE00
1FBE00
1F3E00
3F3F00
3F3F00
3F3F00
3E1F00
7E1F80
FFFFC0
FFFFC0
FFFFC0
FFFFC0
F807C0
F807C0
7C0780
7C0F80
ENDCHAR
STARTCHAR 0435
ENCODING 1077
SWIDTH 480 0
DWIDTH 16 0
BBX 15 23 1 0
BITMAP
7FE0
FFF0
FFE0
FFE0
FFE0
7FE0
7FE0
7C00
7E00
7EE0
7FE0
3FE0
3FE0
3E00
3FEC
3FFC
3FFC
1FFC
1FFE
1FFE
1FFE
1FE0
1E00
ENDCHAR
STARTCHAR 0436
ENCODING 1078
SWIDTH 690 0
DWIDTH 23 0
BBX 22 23 1 0
BITMAP
000018
F8F8F8
FDF9F8
FCF9F8
FEF9F8
FEFBF0
7EFBF0
7EFFF0
3FFFE0
3FFFE0
1FFFC0
1FFFC0
1FFFC0
1FFFE0
3FFFF0
3FFFF8
7F7DFC
FE7DFC
FE7DFC
FE7CFC
FE7CF8
FC7C00
003000
ENDCHAR
STARTCHAR 0437
ENCODING 1079
SWIDTH 480 0
DWIDTH 16 0
BBX 15 23 1 0
BITMAP
7FC0
FFF0
FFF0
FFF8
FFFC
C1FC
00FC
00FC
00F8
07F8
1FF0
1FF8
1FF8
00FC
007C
007E
40FE
7FFE
7FFC
7FFC
7FF8
3FF0
1FE0
ENDCHAR
STARTCHAR 0438
ENCODING 1080
SWIDTH 540 0
DWIDTH 18 0
BBX 17 22 1 0
BITMAP
F87E00
FC7E00
FC7E00
FC7E00
FC7F00
FC7F00
FCFF00
FCFF00
FCFF00
FDFF00
7DFF00
7FFF00
7FFF00
7FFF00
7F9F80
7F9F80
7F1F80
7F1F80
7F1F80
7F1F80
7F1F80
180380
ENDCHAR
STARTCHAR 0439
ENCODING 1081
SWIDTH 540 0
DWIDTH 18 0
BBX 17 29 1 0
BITMAP
387000
387000
1FF000
1FE000
0FC000
000000
000000
F87E00
FC7E00
FC7E00
FC7E00
FC7F00
FC7F00
FCFF00
FCFF00
FCFF00
FDFF00
7DFF00
7FFF00
7FFF00
7FFF00
7F9F80
7F9F80
7F1F80
7F1F80
7F1F80
7F1F80
7F1F80
180380
ENDCHAR
STARTCHAR 043A
ENCODING 1082
SWIDTH 540 0
DWIDTH 18 0
BBX 17 23 1 0
BITMAP
098C00
FF9E00
FF9F80
FF3F00
FF3F00
FF7E00
FF7C00
FFF800
FFF800
FFF000
FFF000
FFE000
FFE000
FFF000
FFF800
FFFC00
FFFC00
FF7E00
FF3F00
FF1F00
FF1F80
FF0E80
DF0C00
ENDCHAR
STARTCHAR 043B
ENCODING 1083
SWIDTH 570 0
DWIDTH 19 0
BBX 18 21 1 1
BITMAP
1F0000
1F0000
1F8000
1FC000
1FC000
1FE000
3FF000
3FF000
3FF800
3FF800
3EFC00
7EFE00
7EFE00
7EFF00
7E7F00
FE7F80
FE7F80
FE3FC0
FE3FC0
FC3FC0
FC01C0
ENDCHAR
STARTCHAR 043C
ENCODING 1084
SWIDTH 630 0
DWIDTH 21 0
BBX 20 23 1 0
BITMAP
100000
180180
1C03C0
3C03C0
3E07C0
3F07C0
3F0FC0
3F9FC0
7F9FE0
7FFFE0
7FFFE0
7FFFE0
7FFFE0
7F7FE0
7F3FE0
7E0FE0
FE0FE0
FE0FF0
FC0FF0
FC0FF0
FC0FF0
F80FF0
F80000
ENDCHAR
STARTCHAR 043D
ENCODING 1085
SWIDTH 540 0
DWIDTH 18 0
BBX 17 23 1 0
BITMAP
030000
3F8F80
7F0F80
3F9F80
3F9F80
3F1F80
3F1F80
7F1F80
7F1F80
7FFF80
7FFF80
7FFF80
7FFF00
7FFF80
7FFF80
7F3F80
7F3F80
7F3F80
FF3F80
FF3F00
FF3F00
FE3F00
080000
ENDCHAR
STARTCHAR 043E
ENCODING 1086
SWIDTH 510 0
DWIDTH 17 0
BBX 16 23 1 0
BITMAP
0F00
1FC0
1FE0
3FF8
3FF8
7FFC
7FFE
FFFE
FE7E
FC3F
FC3F
FC3F
FC3F
FC7F
FFFF
FFFF
FFFF
7FFF
7FFE
3FFE
3FFE
1FF8
07F0
ENDCHAR
STARTCHAR 043F
ENCODING 1087
SWIDTH 540 0
DWIDTH 18 0
BBX 17 23 1 0
BITMAP
FE3800
FFFF80
FFFF80
FFFF80
FFFF80
FFFF80
F81F80
F81F80
F81F80
FC1F80
FC1F80
FC1F80
FC1F80
FC1F80
FC1F00
FC1F00
FC1F00
FC1F00
FC1F80
FC1F80
FC1F80
7C1F80
7C0F80
ENDCHAR
STARTCHAR 0440
ENCODING 1088
SWIDTH 480 0
DWIDTH 16 0
BBX 15 23 1 0
BITMAP
0F00
7FF0
7FF8
7FF8
7FFC
7CFC
7C3C
7E3E
FE3E
FE3E
FFFE
FFFE
FFFC
FFF0
FF00
FF00
FF00
FF00
FF00
FF00
FF00
FF00
FF00
ENDCHAR
STARTCHAR 0441
ENCODING 1089
SWIDTH 480 0
DWIDTH 16 0
BBX 15 23 1 0
BITMAP
00C0
07F8
1FFC
3FFE
7FFE
FFFE
FFFC
FF00
FE00
FC00
FC00
FC00
FE00
FFFC
FFFE
FFFE
FFFE
7FFC
7FFE
3FFC
3FF8
0FF0
00C0
ENDCHAR
STARTCHAR 0442
ENCODING 1090
SWIDTH 570 0
DWIDTH 19 0
BBX 18 23 1 0
BITMAP
000400
FFFF80
FFFF80
FFFF80
FFFFC0
FFFFC0
FFFFC0
F9F800
83F000
03E000
03E000
03E000
03E000
03E000
03E000
03E000
03E000
03E000
03E000
03E000
03E000
03E000
03E000
ENDCHAR
STARTCHAR 0443
ENCODING 1091
SWIDTH 510 0
DWIDTH 17 0
BBX 15 23 1 0
BITMAP
787E
FC7E
FC7E
FC7E
7EFC
7EFC
3EFC
3FFC
1FF8
1FF8
0FF8
0FF8
0FF8
07F8
07F8
03F8
FFF0
FFF0
FFF0
FFF0
FFE0
FF80
F800
ENDCHAR
STARTCHAR 0444
ENCODING 1092
SWIDTH 660 0
DWIDTH 22 0
BBX 21 27 1 -2
BITMAP
00E400
01FC00
01FC00
0FFD80
3FFFE0
7FFFE0
7FFFF0
FFFFF0
FFFFF0
FFFFF0
FDFBF0
F9FBF8
F9FBF8
F9FBF0
F9FBF0
FDFBF0
FDF3F0
FFF7F0
FFFFE0
FFFFE0
FFFFC0
7FFF80
3FFF00
03E600
03E000
03E000
008000
ENDCHAR
STARTCHAR 0445
ENCODING 1093
SWIDTH 570 0
DWIDTH 19 0
BBX 18 22 1 1
BITMAP
000600
7C0FC0
FC1FC0
FC1F80
FE3F80
FE3F00
FF3F00
7F7E00
3FFE00
1FFE00
0FFC00
0FFC00
07F800
07F800
0FFC00
1FFC00
1FFC00
3F7E00
3F3E00
7F1F00
7F1F00
7E0800
ENDCHAR
STARTCHAR 0446
ENCODING 1094
SWIDTH 510 0
DWIDTH 17 0
BBX 16 26 1 -4
BITMAP
FC1F
FC1F
FC1F
FC3F
FC1F
FC3F
FC3F
FC3F
FC1F
FC1F
F81F
F81F
F81F
F81F
FC1F
F81F
FFFF
FFFF
FFFF
FFFF
FFFF
000F
001F
001F
001F
001F
ENDCHAR
STARTCHAR 0447
ENCODING 1095
SWIDTH 510 0
DWIDTH 17 0
BBX 16 22 1 0
BITMAP
F87C
F87C
F87C
F87C
F87C
F87C
F87E
F87E
FC7E
FC7E
FFFE
7FFE
7FFE
3FFE
1FFE
007E
003E
003E
003E
003E
003F
0010
ENDCHAR
STARTCHAR 0448
ENCODING 1096
SWIDTH 720 0
DWIDTH 24 0
BBX 23 23 1 0
BITMAP
C00000
F87C7E
F87C7E
F87C7E
F87C7E
F87C7E
F87C7E
F87C7E
F87C7E
F87C7E
F87C7E
FC7C7E
FC7C7E
FC7C7E
7C7C7E
7C7C7E
7FFFFE
7FFFFE
7FFFFE
7FFFFE
7FFFFE
7FFFFE
3FFF80
ENDCHAR
STARTCHAR 0449
ENCODING 1097
SWIDTH 720 0
DWIDTH 24 0
BBX 23 27 1 -4
BITMAP
000064
FC387E
FC3C7C
FC3C7C
FC3C7C
FC3C7C
FC3C7C
FC3C7C
FC3C7C
FC3C7C
FC3C7C
FE3C7C
FE3C7C
FE3C7C
FE3C7C
7E3CFC
7FFFFC
7FFFFC
7FFFFC
7FFFFC
7FFFFC
7FFFFC
7FFFFC
00007C
00007C
0000FC
0000FC
ENDCHAR
STARTCHAR 044A
ENCODING 1098
SWIDTH 630 0
DWIDTH 21 0
BBX 19 23 1 0
BITMAP
3F0000
FF0000
FF8000
FF8000
FF8000
FF8000
77C000
07F000
07FF00
07FF80
07FFC0
07FFE0
07E7E0
07C3E0
07C1E0
07C1E0
07C1E0
07E3E0
07EFE0
07FFE0
07FFC0
07FF00
020000
ENDCHAR
STARTCHAR 044B
ENCODING 1099
SWIDTH 660 0
DWIDTH 22 0
BBX 21 22 1 1
BITMAP
F80000
F800F0
FC00F8
FC00F8
FC00F8
FC00F8
FC00F8
FE00F8
FFE0F8
FFF0F8
FFF8F8
FFFCF8
FC7CF8
FC3CF8
FC3EF8
FC3EF8
FC3EF8
FC7CF8
FFFCF8
7FFCF8
7FF8F8
7FF0F8
ENDCHAR
STARTCHAR 044C
ENCODING 1100
SWIDTH 480 0
DWIDTH 16 0
BBX 15 23 1 0
BITMAP
F800
F800
FC00
FC00
FC00
FC00
FC00
FE00
FFE0
FFF0
FFF8
FFFC
FCFC
FC3C
FC3E
FC3E
FC3E
7C7E
FC7E
FFFE
7FFC
7FF8
7FF0
ENDCHAR
STARTCHAR 044D
ENCODING 1101
SWIDTH 480 0
DWIDTH 16 0
BBX 15 23 1 0
BITMAP
0F00
3FE0
FFF0
FFF8
FFF8
FFFC
FFFC
FFFE
E07E
007E
1FFE
1FFE
1FFE
3FFE
087E
00FE
FFFE
FFFC
FFFC
FFF8
FFF0
7FC0
0E00
ENDCHAR
STARTCHAR 044E
ENCODING 1102
SWIDTH 660 0
DWIDTH 22 0
BBX 21 23 1 0
BITMAP
381F00
3E1FC0
3E3FE0
3E3FE0
3E3FE0
7E7FF0
7E7FF0
7E7FF8
7F7DF8
7FF8F8
7FF8F8
7FF8F8
FFF8F8
FFF8F8
FFFCF8
FF7DF8
FF3FF0
FF3FF0
FF3FF0
FF1FF0
FF0FE0
3F07E0
000380
ENDCHAR
STARTCHAR 044F
ENCODING 1103
SWIDTH 510 0
DWIDTH 17 0
BBX 16 24 1 -1
BITMAP
07FC
0FFE
3FFE
7FFE
F8FE
F0FE
F0FE
F0FE
F0FE
FDFE
7FFF
7FFF
0FFF
0FFF
1FFF
1EFF
3EFF
3EFF
7CFF
7CFF
7CFF
FCFF
F87C
7800
ENDCHAR
STARTCHAR 0450
ENCODING 1104
SWIDTH 480 0
DWIDTH 16 0
BBX 15 29 1 0
BITMAP
F000
F800
7C00
3C00
1E00
0000
7FE0
FFF0
FFE0
FFE0
FFE0
7FE0
7FE0
7C00
7E00
7EE0
7FE0
3FE0
3FE0
3E00
3FEC
3FFC
3FFC
1FFC
1FFE
1FFE
1FFE
1FE0
1E00
ENDCHAR
STARTCHAR 0451
ENCODING 1105
SWIDTH 480 0
DWIDTH 16 0
BBX 15 28 1 0
BITMAP
0300
E780
E780
E300
4000
7FE0
FFF0
FFE0
FFE0
FFE0
7FE0
7FE0
7C00
7E00
7EE0
7FE0
3FE0
3FE0
3E00
3FEC
3FFC
3FFC
1FFC
1FFE
1FFE
1FFE
1FE0
1E00
ENDCHAR
STARTCHAR 0452
ENCODING 1106
SWIDTH 660 0
DWIDTH 22 0
BBX 21 27 1 -4
BITMAP
7FFF80
FFFF80
FFFFC0
FFFF80
FFFF80
03F000
03F000
03F300
03FFC0
03FFE0
03FFF0
03FFF0
03FFF8
03F1F8
03E1F8
03E0F8
03E0F8
03E0F8
03E0F8
03E0F8
03E0F8
03E0F8
03E1F8
0007F8
0007F8
0007F0
0003C0
ENDCHAR
STARTCHAR 0453
ENCODING 1107
SWIDTH 480 0
DWIDTH 16 0
BBX 15 29 1 0
BITMAP
00F0
01F0
03E0
03C0
0780
0000
3FFE
FFFE
FFFE
FFFE
FFFE
FC00
FC00
FC00
FC00
FC00
F800
F800
F800
F800
F800
F800
F800
F800
FC00
FC00
FC00
FC00
F800
ENDCHAR
STARTCHAR 0454
ENCODING 1108
SWIDTH 480 0
DWIDTH 16 0
BBX 15 23 1 0
BITMAP
01C0
0FF8
1FFC
3FFE
7FFE
7FFE
FFFE
FFFE
FC0C
F800
FFF0
FFF0
FFF0
FFF0
F820
FC00
FFFE
FFFE
7FFE
3FFE
1FFE
07F8
01C0
ENDCHAR
STARTCHAR 0455
ENCODING 1109
SWIDTH 480 0
DWIDTH 16 0
BBX 15 23 1 0
BITMAP
07FC
1FFE
3FFE
3FFC
3FFC
7FF8
7FF8
7FF0
7EF0
7E00
7F80
3FE0
3FF8
07FC
00FC
007C
C0FE
FFFE
FFFC
FFFC
FFFC
7FF0
1FC0
ENDCHAR
STARTCHAR 0456
ENCODING 1110
SWIDTH 330 0
DWIDTH 11 0
BBX 10 22 1 0
BITMAP
3FC0
3F80
3F80
3F80
3F80
3F80
3F80
7F80
7F00
7F00
7F00
7F00
7F00
7F00
7F00
7F00
7F00
7F00
7F00
7F00
FF00
F000
ENDCHAR
STARTCHAR 0457
ENCODING 1111
SWIDTH 330 0
DWIDTH 11 0
BBX 11 27 1 0
BITMAP
38C0
39E0
39C0
1000
0000
3FC0
3F80
3F80
3F80
3F80
3F80
3F80
7F80
7F00
7F00
7F00
7F00
7F00
7F00
7F00
7F00
7F00
7F00
7F00
7F00
FF00
F000
ENDCHAR
STARTCHAR 0458
ENCODING 1112
SWIDTH 450 0
DWIDTH 15 0
BBX 14 23 1 0
BITMAP
0008
03F8
03F8
03F8
07F8
07F8
07F8
07FC
07FC
07FC
07FC
07FC
03FC
03FC
03FC
11FC
F9F8
FBF8
FDF8
FFF0
7FE0
3FC0
0F80
ENDCHAR
STARTCHAR 0459
ENCODING 1113
SWIDTH 720 0
DWIDTH 24 0
BBX 23 22 1 1
BITMAP
07FE00
07FE00
07FE00
0FFE00
0FFE00
0FFE00
0FFE00
1FFFC0
1FBFF0
1FBFF8
3F3FFC
3F3EFC
3F3E3C
7E3E3C
7E3E3E
7E3E3E
FE7E3E
FE7E7E
FE7FFC
FC7FFC
FC7FF8
001FF0
ENDCHAR
STARTCHAR 045A
ENCODING 1114
SWIDTH 720 0
DWIDTH 24 0
BBX 23 23 1 0
BITMAP
020000
3F3E00
7E3E00
3F3E00
3F3E00
7E3E00
7E3E00
7E3E00
7E3FC0
7FFFF0
7FFFF8
7FFFFC
7FFEFC
7FFE3C
7FFE3C
7E3E3E
7E3E3E
FE7E3E
FE7E7E
FE7FFC
FE7FFC
FE7FF8
001FF0
ENDCHAR
STARTCHAR 045B
ENCODING 1115
SWIDTH 660 0
DWIDTH 22 0
BBX 21 23 1 0
BITMAP
7FFF80
FFFF80
FFFFC0
FFFF80
FFFF80
03F000
03F000
03F300
03FFC0
03FFE0
03FFF0
03FFF0
03FFF8
03F1F8
03E1F8
03E1F8
03E1F8
03E1F8
03E0F8
03E0F8
03E0F8
03E0F8
03E0F8
ENDCHAR
STARTCHAR 045C
ENCODING 1116
SWIDTH 540 0
DWIDTH 18 0
BBX 17 29 1 0
BITMAP
001E00
003E00
003C00
007800
007000
000000
098C00
FF9E00
FF9F80
FF3F00
FF3F00
FF7E00
FF7C00
FFF800
FFF800
FFF000
FFF000
FFE000
FFE000
FFF000
FFF800
FFFC00
FFFC00
FF7E00
FF3F00
FF1F00
FF1F80
FF0E80
DF0C00
ENDCHAR
STARTCHAR 045D
ENCODING 1117
SWIDTH 540 0
DWIDTH 18 0
BBX 17 29 1 0
BITMAP
3C0000
3E0000
1E0000
0F0000
070000
000000
000000
F87E00
FC7E00
FC7E00
FC7E00
FC7F00
FC7F00
FCFF00
FCFF00
FCFF00
FDFF00
7DFF00
7FFF00
7FFF00
7FFF00
7F9F80
7F9F80
7F1F80
7F1F80
7F1F80
7F1F80
7F1F80
180380
ENDCHAR
STARTCHAR 045E
ENCODING 1118
SWIDTH 510 0
DWIDTH 17 0
BBX 15 29 1 0
BITMAP
3870
3870
1FF0
1FE0
0FC0
0000
787E
FC7E
FC7E
FC7E
7EFC
7EFC
3EFC
3FFC
1FF8
1FF8
0FF8
0FF8
0FF8
07F8
07F8
03F8
FFF0
FFF0
FFF0
FFF0
FFE0
FF80
F800
ENDCHAR
STARTCHAR 045F
ENCODING 1119
SWIDTH 510 0
DWIDTH 17 0
BBX 16 26 1 -4
BITMAP
F83F
F83F
F83F
F83F
F83F
F83F
F83F
F83F
F83F
F83F
F83F
F83F
F83F
F83F
F83F
F83F
FFFF
FFFF
FFFF
FFFF
FFFF
07C0
07C0
07C0
07C0
03C0
ENDCHAR
STARTCHAR 0462
ENCODING 1122
SWIDTH 630 0
DWIDTH 21 0
BBX 20 23 1 0
BITMAP
0FC000
0FC000
FFFF00
FFFF00
FFFF00
FFFF00
0FC000
0FF000
0FFF00
07FF80
07FFC0
07FFC0
07C7E0
07C3E0
07C1E0
07C1E0
07E3E0
07E3F0
07E7E0
07FFE0
07FFE0
07FF80
07FF00
ENDCHAR
STARTCHAR 0463
ENCODING 1123
SWIDTH 630 0
DWIDTH 21 0
BBX 20 23 1 0
BITMAP
0FC000
0FC000
FFFF00
FFFF00
FFFF00
FFFF00
0FC000
0FF000
0FFF00
07FF80
07FFC0
07FFC0
07C7E0
07C3E0
07C1E0
07C1E0
07E3E0
07E3F0
07E7E0
07FFE0
07FFE0
07FF80
07FF00
ENDCHAR
STARTCHAR 0474
ENCODING 1140
SWIDTH 570 0
DWIDTH 19 0
BBX 18 22 1 0
BITMAP
F00FC0
F81FC0
F83FC0
FC3FC0
FC3F80
FC7F80
7C7C00
7E7C00
7EFC00
3EF800
3FF800
3FF800
1FF000
1FF000
1FF000
0FE000
0FE000
0FE000
0FC000
07C000
07C000
038000
ENDCHAR
STARTCHAR 0475
ENCODING 1141
SWIDTH 570 0
DWIDTH 19 0
BBX 18 22 1 0
BITMAP
F00FC0
F81FC0
F83FC0
FC3FC0
FC3F80
FC7F80
7C7C00
7E7C00
7EFC00
3EF800
3FF800
3FF800
1FF000
1FF000
1FF000
0FE000
0FE000
0FE000
0FC000
07C000
07C000
038000
ENDCHAR
STARTCHAR 0476
ENCODING 1142
SWIDTH 570 0
DWIDTH 19 0
BBX 18 29 1 0
BITMAP
F3C000
FBE000
79E000
3CF000
1C7000
000000
000000
F00FC0
F81FC0
F83FC0
FC3FC0
FC3F80
FC7F80
7C7C00
7E7C00
7EFC00
3EF800
3FF800
3FF800
1FF000
1FF000
1FF000
0FE000
0FE000
0FE000
0FC000
07C000
07C000
038000
ENDCHAR
STARTCHAR 0477
ENCODING 1143
SWIDTH 570 0
DWIDTH 19 0
BBX 18 29 1 0
BITMAP
F3C000
FBE000
79E000
3CF000
1C7000
000000
000000
F00FC0
F81FC0
F83FC0
FC3FC0
FC3F80
FC7F80
7C7C00
7E7C00
7EFC00
3EF800
3FF800
3FF800
1FF000
1FF000
1FF000
0FE000
0FE000
0FE000
0FC000
07C000
07C000
038000
ENDCHAR
STARTCHAR 0480
ENCODING 1152
SWIDTH 480 0
DWIDTH 16 0
BBX 15 27 1 -4
BITMAP
03FE
1FFE
3FFE
7FFE
7FFE
FFFE
FF00
FC00
F800
F800
F800
F800
F800
F800
F800
F800
FC00
FFFE
7FFE
7FFE
3FFE
1FFE
07FE
007E
003E
003E
003E
ENDCHAR
STARTCHAR 0481
ENCODING 1153
SWIDTH 480 0
DWIDTH 16 0
BBX 15 27 1 -4
BITMAP
03FE
1FFE
3FFE
7FFE
7FFE
FFFE
FF00
FC00
F800
F800
F800
F800
F800
F800
F800
F800
FC00
FFFE
7FFE
7FFE
3FFE
1FFE
07FE
007E
003E
003E
003E
ENDCHAR
STARTCHAR 048C
ENCODING 1164
SWIDTH 540 0
DWIDTH 18 0
BBX 17 23 1 0
BITMAP
7E0000
7E0000
FFC000
FFC000
FFC000
FFC000
7E0000
7F8000
3FF800
3FFC00
3FFE00
3FFE00
3E3F00
3E0F00
3F0F00
3F0F80
3F0F80
3F1F80
3F3F80
3FFF00
3FFF00
3FFE00
1FFC00
ENDCHAR
STARTCHAR 048D
ENCODING 1165
SWIDTH 540 0
DWIDTH 18 0
BBX 17 23 1 0
BITMAP
7E0000
7E0000
FFC000
FFC000
FFC000
FFC000
7E0000
7F8000
3FF800
3FFC00
3FFE00
3FFE00
3E3F00
3E0F00
3F0F00
3F0F80
3F0F80
3F1F80
3F3F80
3FFF00
3FFF00
3FFE00
1FFC00
ENDCHAR
STARTCHAR 0490
ENCODING 1168
SWIDTH 480 0
DWIDTH 16 0
BBX 15 29 1 0
BITMAP
007C
007E
003E
003E
003E
003E
3FFE
FFFE
FFFE
FFFE
FFFE
FC00
FC00
FC00
FC00
FC00
F800
F800
F800
F800
F800
F800
F800
F800
FC00
FC00
FC00
FC00
F800
ENDCHAR
STARTCHAR 0491
ENCODING 1169
SWIDTH 480 0
DWIDTH 16 0
BBX 15 29 1 0
BITMAP
007C
007E
003E
003E
003E
003E
3FFE
FFFE
FFFE
FFFE
FFFE
FC00
FC00
FC00
FC00
FC00
F800
F800
F800
F800
F800
F800
F800
F800
FC00
FC00
FC00
FC00
F800
ENDCHAR
STARTCHAR 0492
ENCODING 1170
SWIDTH 540 0
DWIDTH 18 0
BBX 17 23 1 0
BITMAP
0FFF00
7FFF00
7FFF80
7FFF80
7FFF80
7F0000
7E0000
7E0000
7E0000
7E0000
7E2000
FFF000
FFF000
FFF000
FFF000
7E0000
7E0000
7E0000
7E0000
7E0000
3F0000
3F0000
3C0000
ENDCHAR
STARTCHAR 0493
ENCODING 1171
SWIDTH 540 0
DWIDTH 18 0
BBX 17 23 1 0
BITMAP
0FFF00
7FFF00
7FFF80
7FFF80
7FFF80
7F0000
7E0000
7E0000
7E0000
7E0000
7E2000
FFF000
FFF000
FFF000
FFF000
7E0000
7E0000
7E0000
7E0000
7E0000
3F0000
3F0000
3C0000
ENDCHAR
STARTCHAR 0496
ENCODING 1174
SWIDTH 690 0
DWIDTH 23 0
BBX 22 27 1 -4
BITMAP
000030
F8F1F0
FDF1F0
FDF3F0
FDF3F0
FFF3E0
7EFFE0
7EFFE0
3FFFC0
3FFFC0
1FFF80
1FFF80
1FFFC0
1FFFC0
3FFFE0
3FFFF0
7EFBF8
FE7BF8
FEF9FC
FE7DFC
FE7DFC
FC7C3C
00203C
00007C
00007C
00007C
000078
ENDCHAR
STARTCHAR 0497
ENCODING 1175
SWIDTH 690 0
DWIDTH 23 0
BBX 22 27 1 -4
BITMAP
000030
F8F1F0
FDF1F0
FDF3F0
FDF3F0
FFF3E0
7EFFE0
7EFFE0
3FFFC0
3FFFC0
1FFF80
1FFF80
1FFFC0
1FFFC0
3FFFE0
3FFFF0
7EFBF8
FE7BF8
FEF9FC
FE7DFC
FE7DFC
FC7C3C
00203C
00007C
00007C
00007C
000078
ENDCHAR
STARTCHAR 0498
ENCODING 1176
SWIDTH 480 0
DWIDTH 16 0
BBX 15 29 1 -6
BITMAP
7FC0
FFF0
FFF0
FFF8
FFFC
C1FC
00FC
00FC
00F8
07F8
1FF0
1FF8
1FF8
00FC
007C
007E
40FE
7FFE
7FFC
7FFC
7FF8
3FF0
1FE0
03C0
01F0
0078
0FF8
0FF0
0380
ENDCHAR
STARTCHAR 0499
ENCODING 1177
SWIDTH 480 0
DWIDTH 16 0
BBX 15 29 1 -6
BITMAP
7FC0
FFF0
FFF0
FFF8
FFFC
C1FC
00FC
00FC
00F8
07F8
1FF0
1FF8
1FF8
00FC
007C
007E
40FE
7FFE
7FFC
7FFC
7FF8
3FF0
1FE0
03C0
01F0
0078
0FF8
0FF0
0380
ENDCHAR
STARTCHAR 049A
ENCODING 1178
SWIDTH 540 0
DWIDTH 18 0
BBX 17 27 1 -4
BITMAP
090800
FF1C00
FF3F00
FF3F00
FF7E00
FF7C00
FFFC00
FFF800
FFF000
FFF000
FFE000
FFE000
FFC000
FFE000
FFF000
FFF800
FFFC00
FF7C00
FF7F80
FF3F80
FF1F80
FF1F80
DE1F80
000F80
000F80
000F00
000F00
ENDCHAR
STARTCHAR 049B
ENCODING 1179
SWIDTH 540 0
DWIDTH 18 0
BBX 17 27 1 -4
BITMAP
090800
FF1C00
FF3F00
FF3F00
FF7E00
FF7C00
FFFC00
FFF800
FFF000
FFF000
FFE000
FFE000
FFC000
FFE000
FFF000
FFF800
FFFC00
FF7C00
FF7F80
FF3F80
FF1F80
FF1F80
DE1F80
000F80
000F80
000F00
000F00
ENDCHAR
STARTCHAR 04A0
ENCODING 1184
SWIDTH 630 0
DWIDTH 21 0
BBX 20 23 1 0
BITMAP
002180
FFE380
FFE7F0
FFE7E0
FFEFC0
FFEF80
7FFF80
3FFF00
3FFE00
3FFE00
3FFC00
3FFC00
3FF800
3FFC00
3FFE00
3FFF00
3FFF80
3FEFC0
3FEFC0
3FE7E0
3FE3E0
3FE3D0
1FC300
ENDCHAR
STARTCHAR 04A1
ENCODING 1185
SWIDTH 630 0
DWIDTH 21 0
BBX 20 23 1 0
BITMAP
002180
FFE380
FFE7F0
FFE7E0
FFEFC0
FFEF80
7FFF80
3FFF00
3FFE00
3FFE00
3FFC00
3FFC00
3FF800
3FFC00
3FFE00
3FFF00
3FFF80
3FEFC0
3FEFC0
3FE7E0
3FE3E0
3FE3D0
1FC300
ENDCHAR
STARTCHAR 04A2
ENCODING 1186
SWIDTH 540 0
DWIDTH 18 0
BBX 17 27 1 -4
BITMAP
020000
3F0F00
7F1F80
3F1F00
3F1F00
3F1F00
7F3F00
7F1F00
7F3F00
7FFF00
7FFF00
7FFF00
7FFF00
7FFF00
7FFF00
7EBF00
7E3F00
FE3F00
FE3F80
FE3F80
FE3F80
FE3F80
084780
000F80
000F80
000F80
000F00
ENDCHAR
STARTCHAR 04A3
ENCODING 1187
SWIDTH 540 0
DWIDTH 18 0
BBX 17 27 1 -4
BITMAP
020000
3F0F00
7F1F80
3F1F00
3F1F00
3F1F00
7F3F00
7F1F00
7F3F00
7FFF00
7FFF00
7FFF00
7FFF00
7FFF00
7FFF00
7EBF00
7E3F00
FE3F00
FE3F80
FE3F80
FE3F80
FE3F80
084780
000F80
000F80
000F80
000F00
ENDCHAR
STARTCHAR 04A4
ENCODING 1188
SWIDTH 630 0
DWIDTH 21 0
BBX 20 23 1 0
BITMAP
030000
3F9FF0
7F1FF0
3F9FF0
3F9FF0
3F1FF0
3F1FF0
7F1F80
7F1F80
7FFF80
7FFF80
7FFF00
7FFF00
7FFF80
7FFF80
7F3F80
7F3F80
7F3F80
FF3F80
FF3F00
FF3F00
FE3F00
080000
ENDCHAR
STARTCHAR 04A5
ENCODING 1189
SWIDTH 630 0
DWIDTH 21 0
BBX 20 23 1 0
BITMAP
030000
3F9FF0
7F1FF0
3F9FF0
3F9FF0
3F1FF0
3F1FF0
7F1F80
7F1F80
7FFF80
7FFF80
7FFF00
7FFF00
7FFF80
7FFF80
7F3F80
7F3F80
7F3F80
FF3F80
FF3F00
FF3F00
FE3F00
080000
ENDCHAR
STARTCHAR 04AA
ENCODING 1194
SWIDTH 480 0
DWIDTH 16 0
BBX 15 29 1 -6
BITMAP
00C0
07F8
1FFC
3FFE
7FFE
FFFE
FFFC
FF00
FE00
FC00
FC00
FC00
FE00
FFFC
FFFE
FFFE
FFFE
7FFC
7FFE
3FFC
3FF8
0FF0
07C0
0780
03C0
01E0
3FE0
3FE0
0200
ENDCHAR
STARTCHAR 04AB
ENCODING 1195
SWIDTH 480 0
DWIDTH 16 0
BBX 15 29 1 -6
BITMAP
00C0
07F8
1FFC
3FFE
7FFE
FFFE
FFFC
FF00
FE00
FC00
FC00
FC00
FE00
FFFC
FFFE
FFFE
FFFE
7FFC
7FFE
3FFC
3FF8
0FF0
07C0
0780
03C0
01E0
3FE0
3FE0
0200
ENDCHAR
STARTCHAR 04AC
ENCODING 1196
SWIDTH 570 0
DWIDTH 19 0
BBX 18 27 1 -4
BITMAP
000400
FFFF80
FFFF80
FFFF80
FFFFC0
FFFFC0
FFFFC0
F9F800
83F000
03E000
03E000
03E000
03E000
03E000
03E000
03E000
03E000
03E000
03FC00
03FC00
03FC00
03FC00
03FC00
007C00
007800
007800
007800
ENDCHAR
STARTCHAR 04AD
ENCODING 1197
SWIDTH 570 0
DWIDTH 19 0
BBX 18 27 1 -4
BITMAP
000400
FFFF80
FFFF80
FFFF80
FFFFC0
FFFFC0
FFFFC0
F9F800
83F000
03E000
03E000
03E000
03E000
03E000
03E000
03E000
03E000
03E000
03FC00
03FC00
03FC00
03FC00
03FC00
007C00
007800
007800
007800
ENDCHAR
STARTCHAR 04AE
ENCODING 1198
SWIDTH 600 0
DWIDTH 20 0
BBX 19 23 1 0
BITMAP
0003E0
1807C0
FC07C0
FC0FC0
FE0F80
7E1F80
7F1F00
3F3F00
3F3E00
1FFE00
1FFC00
0FFC00
0FF800
07F800
07F000
03F000
03F000
01F000
01F000
01F000
01F000
01F000
01F000
ENDCHAR
STARTCHAR 04AF
ENCODING 1199
SWIDTH 600 0
DWIDTH 20 0
BBX 19 23 1 0
BITMAP
0003E0
1807C0
FC07C0
FC0FC0
FE0F80
7E1F80
7F1F00
3F3F00
3F3E00
1FFE00
1FFC00
0FFC00
0FF800
07F800
07F000
03F000
03F000
01F000
01F000
01F000
01F000
01F000
01F000
ENDCHAR
STARTCHAR 04B0
ENCODING 1200
SWIDTH 600 0
DWIDTH 20 0
BBX 19 23 1 0
BITMAP
0003E0
1807C0
FC07C0
FC0FC0
FE0F80
7E1F80
7F1F00
3F3F00
3F3E00
1FFE00
1FFC00
0FFC00
0FF800
07F800
07F000
03F000
3FFF00
3FFF00
3FFF00
7FFF00
01F000
01F000
01F000
ENDCHAR
STARTCHAR 04B1
ENCODING 1201
SWIDTH 600 0
DWIDTH 20 0
BBX 19 23 1 0
BITMAP
0003E0
1807C0
FC07C0
FC0FC0
FE0F80
7E1F80
7F1F00
3F3F00
3F3E00
1FFE00
1FFC00
0FFC00
0FF800
07F800
07F000
03F000
3FFF00
3FFF00
3FFF00
7FFF00
01F000
01F000
01F000
ENDCHAR
STARTCHAR 04B2
ENCODING 1202
SWIDTH 570 0
DWIDTH 19 0
BBX 18 27 1 -4
BITMAP
000C00
F80F80
FC1F80
FC3F00
FE3F00
FE3E00
FF7E00
7F7E00
3FFC00
1FFC00
1FF800
0FF800
0FF800
07F800
0FF800
1FF800
1FFC00
3F7C00
3F7FC0
7F3FC0
7E1FC0
7E07C0
0007C0
000780
000780
000780
000780
ENDCHAR
STARTCHAR 04B3
ENCODING 1203
SWIDTH 570 0
DWIDTH 19 0
BBX 18 27 1 -4
BITMAP
000C00
F80F80
FC1F80
FC3F00
FE3F00
FE3E00
FF7E00
7F7E00
3FFC00
1FFC00
1FF800
0FF800
0FF800
07F800
0FF800
1FF800
1FFC00
3F7C00
3F7FC0
7F3FC0
7E1FC0
7E07C0
0007C0
000780
000780
000780
000780
ENDCHAR
STARTCHAR 04B6
ENCODING 1206
SWIDTH 510 0
DWIDTH 17 0
BBX 16 26 1 -4
BITMAP
F8F8
F8FC
F8FC
F87C
F87C
F87C
F87C
F87C
F87C
FC7C
FFFC
7FFC
7FFC
3FFC
1FFC
007C
007E
007F
007F
007F
003F
001F
001F
001E
001E
001E
ENDCHAR
STARTCHAR 04B7
ENCODING 1207
SWIDTH 510 0
DWIDTH 17 0
BBX 16 26 1 -4
BITMAP
F8F8
F8FC
F8FC
F87C
F87C
F87C
F87C
F87C
F87C
FC7C
FFFC
7FFC
7FFC
3FFC
1FFC
007C
007E
007F
007F
007F
003F
001F
001F
001E
001E
001E
ENDCHAR
STARTCHAR 04B8
ENCODING 1208
SWIDTH 510 0
DWIDTH 17 0
BBX 16 22 1 0
BITMAP
F87C
F87C
F87C
F87C
F87C
F87C
FBFE
FBFE
FFFE
FFFE
FFFE
7FFE
7FFE
3FFE
1FFE
03FE
03BE
01BE
003E
003E
003F
0010
ENDCHAR
STARTCHAR 04B9
ENCODING 1209
SWIDTH 510 0
DWIDTH 17 0
BBX 16 22 1 0
BITMAP
F87C
F87C
F87C
F87C
F87C
F87C
FBFE
FBFE
FFFE
FFFE
FFFE
7FFE
7FFE
3FFE
1FFE
03FE
03BE
01BE
003E
003E
003F
0010
ENDCHAR
STARTCHAR 04BA
ENCODING 1210
SWIDTH 510 0
DWIDTH 17 0
BBX 16 22 1 0
BITMAP
F800
FC00
FC00
FC00
FC00
FC00
FDE0
7FF8
7FFC
7FFE
7FFE
7E7E
7C3F
7C3F
7C3F
7C3F
7C3F
7C3F
7E1F
7E1F
7E3F
3000
ENDCHAR
STARTCHAR 04BB
ENCODING 1211
SWIDTH 510 0
DWIDTH 17 0
BBX 16 22 1 0
BITMAP
F800
FC00
FC00
FC00
FC00
FC00
FDE0
7FF8
7FFC
7FFE
7FFE
7E7E
7C3F
7C3F
7C3F
7C3F
7C3F
7C3F
7E1F
7E1F
7E3F
3000
ENDCHAR
STARTCHAR 04BC
ENCODING 1212
SWIDTH 540 0
DWIDTH 18 0
BBX 17 23 1 0
BITMAP
03E000
0FFC00
1FFE00
1FFF00
3FFF80
3FFF80
3FFF80
3F1F80
3F1F80
FF1F80
FFFF80
FFFF80
FFFF80
FFFF80
1E0000
1F0000
0F8000
0FFF00
0FFF80
07FF80
03FF80
01FE00
009800
ENDCHAR
STARTCHAR 04BD
ENCODING 1213
SWIDTH 540 0
DWIDTH 18 0
BBX 17 23 1 0
BITMAP
03E000
0FFC00
1FFE00
1FFF00
3FFF80
3FFF80
3FFF80
3F1F80
3F1F80
FF1F80
FFFF80
FFFF80
FFFF80
FFFF80
1E0000
1F0000
0F8000
0FFF00
0FFF80
07FF80
03FF80
01FE00
009800
ENDCHAR
STARTCHAR 04BE
ENCODING 1214
SWIDTH 540 0
DWIDTH 18 0
BBX 17 27 1 -4
BITMAP
03E000
0FFC00
1FFE00
1FFF00
3FFF80
3FFF80
3FFF80
3F1F80
3F1F80
FF1F80
FFFF80
FFFF80
FFFF80
FFFF80
1E0000
1F0000
0F8000
0FFF00
0FFF80
07FF80
03FF80
01FE00
01F800
01F000
01F000
01F000
01F000
ENDCHAR
STARTCHAR 04BF
ENCODING 1215
SWIDTH 540 0
DWIDTH 18 0
BBX 17 27 1 -4
BITMAP
03E000
0FFC00
1FFE00
1FFF00
3FFF80
3FFF80
3FFF80
3F1F80
3F1F80
FF1F80
FFFF80
FFFF80
FFFF80
FFFF80
1E0000
1F0000
0F8000
0FFF00
0FFF80
07FF80
03FF80
01FE00
01F800
01F000
01F000
01F000
01F000
ENDCHAR
STARTCHAR 04C0
ENCODING 1216
SWIDTH 180 0
DWIDTH 6 0
BBX 5 23 1 0
BITMAP
F0
F8
F8
F8
F8
F8
F8
F8
F8
F8
F8
F8
F8
F8
F8
F8
F8
F8
F8
F8
F8
F8
F8
ENDCHAR
STARTCHAR 04C1
ENCODING 1217
SWIDTH 690 0
DWIDTH 23 0
BBX 22 29 1 0
BITMAP
001C00
0E1C00
07FC00
07F800
03F000
000000
000018
F8F8F8
FDF9F8
FCF9F8
FEF9F8
FEFBF0
7EFBF0
7EFFF0
3FFFE0
3FFFE0
1FFFC0
1FFFC0
1FFFC0
1FFFE0
3FFFF0
3FFFF8
7F7DFC
FE7DFC
FE7DFC
FE7CFC
FE7CF8
FC7C00
003000
ENDCHAR
STARTCHAR 04C2
ENCODING 1218
SWIDTH 690 0
DWIDTH 23 0
BBX 22 29 1 0
BITMAP
001C00
0E1C00
07FC00
07F800
03F000
000000
000018
F8F8F8
FDF9F8
FCF9F8
FEF9F8
FEFBF0
7EFBF0
7EFFF0
3FFFE0
3FFFE0
1FFFC0
1FFFC0
1FFFC0
1FFFE0
3FFFF0
3FFFF8
7F7DFC
FE7DFC
FE7DFC
FE7CFC
FE7CF8
FC7C00
003000
ENDCHAR
STARTCHAR 04CB
ENCODING 1227
SWIDTH 510 0
DWIDTH 17 0
BBX 16 26 1 -4
BITMAP
F87C
F87C
F87C
F87C
F87C
F87C
F87E
F87E
FC7E
FC7E
FFFE
7FFE
7FFE
3FFE
1FFE
007E
003E
00FE
00FE
00FE
00FF
00F8
00F8
00F8
0078
0078
ENDCHAR
STARTCHAR 04CC
ENCODING 1228
SWIDTH 510 0
DWIDTH 17 0
BBX 16 26 1 -4
BITMAP
F87C
F87C
F87C
F87C
F87C
F87C
F87E
F87E
FC7E
FC7E
FFFE
7FFE
7FFE
3FFE
1FFE
007E
003E
00FE
00FE
00FE
00FF
00F8
00F8
00F8
0078
0078
ENDCHAR
STARTCHAR 04CF
ENCODING 1231
SWIDTH 180 0
DWIDTH 6 0
BBX 5 23 1 0
BITMAP
F0
F8
F8
F8
F8
F8
F8
F8
F8
F8
F8
F8
F8
F8
F8
F8
F8
F8
F8
F8
F8
F8
F8
ENDCHAR
STARTCHAR 04D0
ENCODING 1232
SWIDTH 630 0
DWIDTH 21 0
BBX 19 30 1 -1
BITMAP
070E00
070E00
03FE00
03FC00
01F800
000000
001000
00F000
00F800
00F800
01F800
01F800
01F800
03FC00
03FC00
07FC00
07FE00
07FE00
0F7E00
0E7F00
1E3F00
1C3F00
3FFF80
3FFF80
3FBFC0
7C3FC0
7C3FC0
FC1FE0
FC1FE0
E00000
ENDCHAR
STARTCHAR 04D1
ENCODING 1233
SWIDTH 630 0
DWIDTH 21 0
BBX 19 30 1 -1
BITMAP
070E00
070E00
03FE00
03FC00
01F800
000000
001000
00F000
00F800
00F800
01F800
01F800
01F800
03FC00
03FC00
07FC00
07FE00
07FE00
0F7E00
0E7F00
1E3F00
1C3F00
3FFF80
3FFF80
3FBFC0
7C3FC0
7C3FC0
FC1FE0
FC1FE0
E00000
ENDCHAR
STARTCHAR 04D2
ENCODING 1234
SWIDTH 630 0
DWIDTH 21 0
BBX 19 28 1 -1
BITMAP
038E00
039E00
039E00
010000
001000
00F000
00F800
00F800
01F800
01F800
01F800
03FC00
03FC00
07FC00
07FE00
07FE00
0F7E00
0E7F00
1E3F00
1C3F00
3FFF80
3FFF80
3FBFC0
7C3FC0
7C3FC0
FC1FE0
FC1FE0
E00000
ENDCHAR
STARTCHAR 04D3
ENCODING 1235
SWIDTH 630 0
DWIDTH 21 0
BBX 19 28 1 -1
BITMAP
038E00
039E00
039E00
010000
001000
00F000
00F800
00F800
01F800
01F800
01F800
03FC00
03FC00
07FC00
07FE00
07FE00
0F7E00
0E7F00
1E3F00
1C3F00
3FFF80
3FFF80
3FBFC0
7C3FC0
7C3FC0
FC1FE0
FC1FE0
E00000
ENDCHAR
STARTCHAR 04D4
ENCODING 1236
SWIDTH 720 0
DWIDTH 24 0
BBX 23 24 1 -1
BITMAP
003FE0
00FFF0
00FFE0
00FFE0
01FFE0
01FFE0
01FFE0
03FE00
03FE00
07FE60
07FFE0
07FFE0
0F7FE0
0E7E00
1E3F0C
1C7FFC
3FFFFC
3FFFFE
7F3FFE
7C3FFE
7C1FFE
FC1FF0
FC1F00
C00000
ENDCHAR
STARTCHAR 04D5
ENCODING 1237
SWIDTH 720 0
DWIDTH 24 0
BBX 23 24 1 -1
BITMAP
003FE0
00FFF0
00FFE0
00FFE0
01FFE0
01FFE0
01FFE0
03FE00
03FE00
07FE60
07FFE0
07FFE0
0F7FE0
0E7E00
1E3F0C
1C7FFC
3FFFFC
3FFFFE
7F3FFE
7C3FFE
7C1FFE
FC1FF0
FC1F00
C00000
ENDCHAR
STARTCHAR 04D6
ENCODING 1238
SWIDTH 480 0
DWIDTH 16 0
BBX 15 29 1 0
BITMAP
C380
E780
FF80
7F00
3E00
0000
7FE0
FFF0
FFE0
FFE0
FFE0
7FE0
7FE0
7C00
7E00
7EE0
7FE0
3FE0
3FE0
3E00
3FEC
3FFC
3FFC
1FFC
1FFE
1FFE
1FFE
1FE0
1E00
ENDCHAR
STARTCHAR 04D7
ENCODING 1239
SWIDTH 480 0
DWIDTH 16 0
BBX 15 29 1 0
BITMAP
C380
E780
FF80
7F00
3E00
0000
7FE0
FFF0
FFE0
FFE0
FFE0
7FE0
7FE0
7C00
7E00
7EE0
7FE0
3FE0
3FE0
3E00
3FEC
3FFC
3FFC
1FFC
1FFE
1FFE
1FFE
1FE0
1E00
ENDCHAR
STARTCHAR 04D8
ENCODING 1240
SWIDTH 480 0
DWIDTH 16 0
BBX 15 23 1 0
BITMAP
1F80
7FC0
FFE0
FFF0
FFF8
71F8
0078
003C
003C
FFFC
FFFC
FFFC
FFFC
FC7E
FC7E
FCFE
FFFE
FFFE
FFFE
7FFC
3FF8
1FF0
00E0
ENDCHAR
STARTCHAR 04D9
ENCODING 1241
SWIDTH 480 0
DWIDTH 16 0
BBX 15 23 1 0
BITMAP
1F80
7FC0
FFE0
FFF0
FFF8
71F8
0078
003C
003C
FFFC
FFFC
FFFC
FFFC
FC7E
FC7E
FCFE
FFFE
FFFE
FFFE
7FFC
3FF8
1FF0
00E0
ENDCHAR
STARTCHAR 04DA
ENCODING 1242
SWIDTH 480 0
DWIDTH 16 0
BBX 15 27 1 0
BITMAP
31C0
79C0
79C0
3000
1F80
7FC0
FFE0
FFF0
FFF8
71F8
0078
003C
003C
FFFC
FFFC
FFFC
FFFC
FC7E
FC7E
FCFE
FFFE
FFFE
FFFE
7FFC
3FF8
1FF0
00E0
ENDCHAR
STARTCHAR 04DB
ENCODING 1243
SWIDTH 480 0
DWIDTH 16 0
BBX 15 27 1 0
BITMAP
31C0
79C0
79C0
3000
1F80
7FC0
FFE0
FFF0
FFF8
71F8
0078
003C
003C
FFFC
FFFC
FFFC
FFFC
FC7E
FC7E
FCFE
FFFE
FFFE
FFFE
7FFC
3FF8
1FF0
00E0
ENDCHAR
STARTCHAR 04DC
ENCODING 1244
SWIDTH 690 0
DWIDTH 23 0
BBX 22 27 1 0
BITMAP
071800
071C00
071C00
001800
000018
F8F8F8
FDF9F8
FCF9F8
FEF9F8
FEFBF0
7EFBF0
7EFFF0
3FFFE0
3FFFE0
1FFFC0
1FFFC0
1FFFC0
1FFFE0
3FFFF0
3FFFF8
7F7DFC
FE7DFC
FE7DFC
FE7CFC
FE7CF8
FC7C00
003000
ENDCHAR
STARTCHAR 04DD
ENCODING 1245
SWIDTH 690 0
DWIDTH 23 0
BBX 22 27 1 0
BITMAP
071800
071C00
071C00
001800
000018
F8F8F8
FDF9F8
FCF9F8
FEF9F8
FEFBF0
7EFBF0
7EFFF0
3FFFE0
3FFFE0
1FFFC0
1FFFC0
1FFFC0
1FFFE0
3FFFF0
3FFFF8
7F7DFC
FE7DFC
FE7DFC
FE7CFC
FE7CF8
FC7C00
003000
ENDCHAR
STARTCHAR 04DE
ENCODING 1246
SWIDTH 480 0
DWIDTH 16 0
BBX 15 27 1 0
BITMAP
31C0
79C0
79C0
3000
7FC0
FFF0
FFF0
FFF8
FFFC
C1FC
00FC
00FC
00F8
07F8
1FF0
1FF8
1FF8
00FC
007C
007E
40FE
7FFE
7FFC
7FFC
7FF8
3FF0
1FE0
ENDCHAR
STARTCHAR 04DF
ENCODING 1247
SWIDTH 480 0
DWIDTH 16 0
BBX 15 27 1 0
BITMAP
31C0
79C0
79C0
3000
7FC0
FFF0
FFF0
FFF8
FFFC
C1FC
00FC
00FC
00F8
07F8
1FF0
1FF8
1FF8
00FC
007C
007E
40FE
7FFE
7FFC
7FFC
7FF8
3FF0
1FE0
ENDCHAR
STARTCHAR 04E0
ENCODING 1248
SWIDTH 480 0
DWIDTH 16 0
BBX 15 23 1 0
BITMAP
3FF0
FFF8
7FF8
7FF8
0070
01F0
03E0
07C0
0FE0
3FF8
7FFC
3FFC
007C
003E
001E
001E
C03E
F87E
FFFE
FFFC
FFF8
7FF8
1FE0
ENDCHAR
STARTCHAR 04E1
ENCODING 1249
SWIDTH 480 0
DWIDTH 16 0
BBX 15 23 1 0
BITMAP
3FF0
FFF8
7FF8
7FF8
0070
01F0
03E0
07C0
0FE0
3FF8
7FFC
3FFC
007C
003E
001E
001E
C03E
F87E
FFFE
FFFC
FFF8
7FF8
1FE0
ENDCHAR
STARTCHAR 04E2
ENCODING 1250
SWIDTH 540 0
DWIDTH 18 0
BBX 17 27 1 0
BITMAP
3FF000
3FF000
3FF000
000000
000000
F87E00
FC7E00
FC7E00
FC7E00
FC7F00
FC7F00
FCFF00
FCFF00
FCFF00
FDFF00
7DFF00
7FFF00
7FFF00
7FFF00
7F9F80
7F9F80
7F1F80
7F1F80
7F1F80
7F1F80
7F1F80
180380
ENDCHAR
STARTCHAR 04E3
ENCODING 1251
SWIDTH 540 0
DWIDTH 18 0
BBX 17 27 1 0
BITMAP
3FF000
3FF000
3FF000
000000
000000
F87E00
FC7E00
FC7E00
FC7E00
FC7F00
FC7F00
FCFF00
FCFF00
FCFF00
FDFF00
7DFF00
7FFF00
7FFF00
7FFF00
7F9F80
7F9F80
7F1F80
7F1F80
7F1F80
7F1F80
7F1F80
180380
ENDCHAR
STARTCHAR 04E4
ENCODING 1252
SWIDTH 540 0
DWIDTH 18 0
BBX 17 27 1 0
BITMAP
1C6000
3CF000
1CF000
004000
000000
F87E00
FC7E00
FC7E00
FC7E00
FC7F00
FC7F00
FCFF00
FCFF00
FCFF00
FDFF00
7DFF00
7FFF00
7FFF00
7FFF00
7F9F80
7F9F80
7F1F80
7F1F80
7F1F80
7F1F80
7F1F80
180380
ENDCHAR
STARTCHAR 04E5
ENCODING 1253
SWIDTH 540 0
DWIDTH 18 0
BBX 17 27 1 0
BITMAP
1C6000
3CF000
1CF000
004000
000000
F87E00
FC7E00
FC7E00
FC7E00
FC7F00
FC7F00
FCFF00
FCFF00
FCFF00
FDFF00
7DFF00
7FFF00
7FFF00
7FFF00
7F9F80
7F9F80
7F1F80
7F1F80
7F1F80
7F1F80
7F1F80
180380
ENDCHAR
STARTCHAR 04E6
ENCODING 1254
SWIDTH 510 0
DWIDTH 17 0
BBX 16 27 1 0
BITMAP
31C0
73C0
71C0
3000
0F00
1FC0
1FE0
3FF8
3FF8
7FFC
7FFE
FFFE
FE7E
FC3F
FC3F
FC3F
FC3F
FC7F
FFFF
FFFF
FFFF
7FFF
7FFE
3FFE
3FFE
1FF8
07F0
ENDCHAR
STARTCHAR 04E7
ENCODING 1255
SWIDTH 510 0
DWIDTH 17 0
BBX 16 27 1 0
BITMAP
31C0
73C0
71C0
3000
0F00
1FC0
1FE0
3FF8
3FF8
7FFC
7FFE
FFFE
FE7E
FC3F
FC3F
FC3F
FC3F
FC7F
FFFF
FFFF
FFFF
7FFF
7FFE
3FFE
3FFE
1FF8
07F0
ENDCHAR
STARTCHAR 04E8
ENCODING 1256
SWIDTH 510 0
DWIDTH 17 0
BBX 16 23 1 0
BITMAP
0FC0
1FF0
7FFC
7FFC
7FFE
FFFE
FFFF
FFFF
FC7F
FC3F
FFFF
FFFF
FFFF
FC3F
FC3F
FFFF
7FFF
7FFE
3FFE
3FFE
1FFC
0FFC
03F8
ENDCHAR
STARTCHAR 04E9
ENCODING 1257
SWIDTH 510 0
DWIDTH 17 0
BBX 16 23 1 0
BITMAP
0FC0
1FF0
7FFC
7FFC
7FFE
FFFE
FFFF
FFFF
FC7F
FC3F
FFFF
FFFF
FFFF
FC3F
FC3F
FFFF
7FFF
7FFE
3FFE
3FFE
1FFC
0FFC
03F8
ENDCHAR
STARTCHAR 04EA
ENCODING 1258
SWIDTH 510 0
DWIDTH 17 0
BBX 16 27 1 0
BITMAP
18E0
3CF0
3CE0
0800
0FC0
1FF0
7FFC
7FFC
7FFE
FFFE
FFFF
FFFF
FC7F
FC3F
FFFF
FFFF
FFFF
FC3F
FC3F
FFFF
7FFF
7FFE
3FFE
3FFE
1FFC
0FFC
03F8
ENDCHAR
STARTCHAR 04EB
ENCODING 1259
SWIDTH 510 0
DWIDTH 17 0
BBX 16 27 1 0
BITMAP
18E0
3CF0
3CE0
0800
0FC0
1FF0
7FFC
7FFC
7FFE
FFFE
FFFF
FFFF
FC7F
FC3F
FFFF
FFFF
FFFF
FC3F
FC3F
FFFF
7FFF
7FFE
3FFE
3FFE
1FFC
0FFC
03F8
ENDCHAR
STARTCHAR 04EC
ENCODING 1260
SWIDTH 480 0
DWIDTH 16 0
BBX 15 27 1 0
BITMAP
31C0
73C0
71C0
3000
0F00
3FE0
FFF0
FFF8
FFF8
FFFC
FFFC
FFFE
E07E
007E
1FFE
1FFE
1FFE
3FFE
087E
00FE
FFFE
FFFC
FFFC
FFF8
FFF0
7FC0
0E00
ENDCHAR
STARTCHAR 04ED
ENCODING 1261
SWIDTH 480 0
DWIDTH 16 0
BBX 15 27 1 0
BITMAP
31C0
73C0
71C0
3000
0F00
3FE0
FFF0
FFF8
FFF8
FFFC
FFFC
FFFE
E07E
007E
1FFE
1FFE
1FFE
3FFE
087E
00FE
FFFE
FFFC
FFFC
FFF8
FFF0
7FC0
0E00
ENDCHAR
STARTCHAR 04EE
ENCODING 1262
SWIDTH 510 0
DWIDTH 17 0
BBX 15 27 1 0
BITMAP
3FF0
3FF0
3FF0
0000
787E
FC7E
FC7E
FC7E
7EFC
7EFC
3EFC
3FFC
1FF8
1FF8
0FF8
0FF8
0FF8
07F8
07F8
03F8
FFF0
FFF0
FFF0
FFF0
FFE0
FF80
F800
ENDCHAR
STARTCHAR 04EF
ENCODING 1263
SWIDTH 510 0
DWIDTH 17 0
BBX 15 27 1 0
BITMAP
3FF0
3FF0
3FF0
0000
787E
FC7E
FC7E
FC7E
7EFC
7EFC
3EFC
3FFC
1FF8
1FF8
0FF8
0FF8
0FF8
07F8
07F8
03F8
FFF0
FFF0
FFF0
FFF0
FFE0
FF80
F800
ENDCHAR
STARTCHAR 04F0
ENCODING 1264
SWIDTH 510 0
DWIDTH 17 0
BBX 15 27 1 0
BITMAP
1CE0
1CF0
1CE0
0800
787E
FC7E
FC7E
FC7E
7EFC
7EFC
3EFC
3FFC
1FF8
1FF8
0FF8
0FF8
0FF8
07F8
07F8
03F8
FFF0
FFF0
FFF0
FFF0
FFE0
FF80
F800
ENDCHAR
STARTCHAR 04F1
ENCODING 1265
SWIDTH 510 0
DWIDTH 17 0
BBX 15 27 1 0
BITMAP
1CE0
1CF0
1CE0
0800
787E
FC7E
FC7E
FC7E
7EFC
7EFC
3EFC
3FFC
1FF8
1FF8
0FF8
0FF8
0FF8
07F8
07F8
03F8
FFF0
FFF0
FFF0
FFF0
FFE0
FF80
F800
ENDCHAR
STARTCHAR 04F2
ENCODING 1266
SWIDTH 510 0
DWIDTH 17 0
BBX 16 29 1 0
BITMAP
03DF
07DE
0FBE
0F3C
1E78
0000
787E
FC7E
FC7E
FC7E
7EFC
7EFC
3EFC
3FFC
1FF8
1FF8
0FF8
0FF8
0FF8
07F8
07F8
03F8
FFF0
FFF0
FFF0
FFF0
FFE0
FF80
F800
ENDCHAR
STARTCHAR 04F3
ENCODING 1267
SWIDTH 510 0
DWIDTH 17 0
BBX 16 29 1 0
BITMAP
03DF
07DE
0FBE
0F3C
1E78
0000
787E
FC7E
FC7E
FC7E
7EFC
7EFC
3EFC
3FFC
1FF8
1FF8
0FF8
0FF8
0FF8
07F8
07F8
03F8
FFF0
FFF0
FFF0
FFF0
FFE0
FF80
F800
ENDCHAR
STARTCHAR 04F4
ENCODING 1268
SWIDTH 510 0
DWIDTH 17 0
BBX 16 27 1 0
BITMAP
18E0
3CE0
3CE0
1800
0000
F87C
F87C
F87C
F87C
F87C
F87C
F87E
F87E
FC7E
FC7E
FFFE
7FFE
7FFE
3FFE
1FFE
007E
003E
003E
003E
003E
003F
0010
ENDCHAR
STARTCHAR 04F5
ENCODING 1269
SWIDTH 510 0
DWIDTH 17 0
BBX 16 27 1 0
BITMAP
18E0
3CE0
3CE0
1800
0000
F87C
F87C
F87C
F87C
F87C
F87C
F87E
F87E
FC7E
FC7E
FFFE
7FFE
7FFE
3FFE
1FFE
007E
003E
003E
003E
003E
003F
0010
ENDCHAR
STARTCHAR 04F6
ENCODING 1270
SWIDTH 480 0
DWIDTH 16 0
BBX 15 27 1 -4
BITMAP
3FFE
FFFE
FFFE
FFFE
FFFE
FC00
FC00
FC00
FC00
FC00
F800
F800
F800
F800
F800
F800
F800
F800
FF00
FF00
FF00
FF00
FF00
0F00
1F00
1F00
1E00
ENDCHAR
STARTCHAR 04F7
ENCODING 1271
SWIDTH 480 0
DWIDTH 16 0
BBX 15 27 1 -4
BITMAP
3FFE
FFFE
FFFE
FFFE
FFFE
FC00
FC00
FC00
FC00
FC00
F800
F800
F800
F800
F800
F800
F800
F800
FF00
FF00
FF00
FF00
FF00
0F00
1F00
1F00
1E00
ENDCHAR
STARTCHAR 04F8
ENCODING 1272
SWIDTH 660 0
DWIDTH 22 0
BBX 21 26 1 1
BITMAP
018E00
03CE00
03CE00
018000
F80000
F800F0
FC00F8
FC00F8
FC00F8
FC00F8
FC00F8
FE00F8
FFE0F8
FFF0F8
FFF8F8
FFFCF8
FC7CF8
FC3CF8
FC3EF8
FC3EF8
FC3EF8
FC7CF8
FFFCF8
7FFCF8
7FF8F8
7FF0F8
ENDCHAR
STARTCHAR 04F9
ENCODING 1273
SWIDTH 660 0
DWIDTH 22 0
BBX 21 26 1 1
BITMAP
018E00
03CE00
03CE00
018000
F80000
F800F0
FC00F8
FC00F8
FC00F8
FC00F8
FC00F8
FE00F8
FFE0F8
FFF0F8
FFF8F8
FFFCF8
FC7CF8
FC3CF8
FC3EF8
FC3EF8
FC3EF8
FC7CF8
FFFCF8
7FFCF8
7FF8F8
7FF0F8
ENDCHAR
STARTCHAR 0500
ENCODING 1280
SWIDTH 480 0
DWIDTH 16 0
BBX 15 23 1 0
BITMAP
007E
007E
007E
007E
007E
007E
007E
01FE
0FFE
3FFE
7FFE
7FFC
FC7C
F87C
F07C
F07C
F87C
F8FC
FCFC
FFFC
FFFC
3FFC
3FFC
ENDCHAR
STARTCHAR 0501
ENCODING 1281
SWIDTH 480 0
DWIDTH 16 0
BBX 15 23 1 0
BITMAP
007E
007E
007E
007E
007E
007E
007E
01FE
0FFE
3FFE
7FFE
7FFC
FC7C
F87C
F07C
F07C
F87C
F8FC
FCFC
FFFC
FFFC
3FFC
3FFC
ENDCHAR
STARTCHAR 0510
ENCODING 1296
SWIDTH 480 0
DWIDTH 16 0
BBX 15 23 1 0
BITMAP
0FF8
1FFE
3FFE
7FFE
7FFE
7E0E
7C00
7C00
7E00
7F80
3FF0
3FF0
7FE0
FE00
FC00
FC00
FE00
FFF8
FFF8
FFF8
7FF8
3FF8
0FE0
ENDCHAR
STARTCHAR 0511
ENCODING 1297
SWIDTH 480 0
DWIDTH 16 0
BBX 15 23 1 0
BITMAP
0FF8
1FFE
3FFE
7FFE
7FFE
7E0E
7C00
7C00
7E00
7F80
3FF0
3FF0
7FE0
FE00
FC00
FC00
FE00
FFF8
FFF8
FFF8
7FF8
3FF8
0FE0
ENDCHAR
STARTCHAR 0524
ENCODING 1316
SWIDTH 540 0
DWIDTH 18 0
BBX 17 27 1 -4
BITMAP
FF7000
FFFF00
FFFF00
FFFF00
FFFF00
FFFF00
F83F00
F83F00
F83F00
F83F00
F83F00
FC3F00
FC3F00
FC3F00
FC3F00
FC3F00
FC3F00
FC3F00
FC3F80
FC3F80
FC3F80
FC1F80
7C0F80
000F80
000F80
000F00
000F00
ENDCHAR
STARTCHAR 0525
ENCODING 1317
SWIDTH 540 0
DWIDTH 18 0
BBX 17 27 1 -4
BITMAP
FF7000
FFFF00
FFFF00
FFFF00
FFFF00
FFFF00
F83F00
F83F00
F83F00
F83F00
F83F00
FC3F00
FC3F00
FC3F00
FC3F00
FC3F00
FC3F00
FC3F00
FC3F80
FC3F80
FC3F80
FC1F80
7C0F80
000F80
000F80
000F00
000F00
ENDCHAR
STARTCHAR 0526
ENCODING 1318
SWIDTH 510 0
DWIDTH 17 0
BBX 16 26 1 -4
BITMAP
F800
F800
F800
FC00
FC00
FC00
FDE0
7FF8
7FFC
7FFC
7FFC
7E7E
7C7E
7C7E
7C3E
7C3E
7C3E
7C3F
7C3F
7C3F
7E3F
701F
001F
001E
001E
001E
ENDCHAR
STARTCHAR 0527
ENCODING 1319
SWIDTH 510 0
DWIDTH 17 0
BBX 16 26 1 -4
BITMAP
F800
F800
F800
FC00
FC00
FC00
FDE0
7FF8
7FFC
7FFC
7FFC
7E7E
7C7E
7C7E
7C3E
7C3E
7C3E
7C3F
7C3F
7C3F
7E3F
701F
001F
001E
001E
001E
ENDCHAR
STARTCHAR 052E
ENCODING 1326
SWIDTH 570 0
DWIDTH 19 0
BBX 18 26 1 -4
BITMAP
1E0000
1F0000
1F8000
1F8000
1FC000
1FE000
3FE000
3FF000
3FF000
3FF800
7FF800
7EFC00
7EFE00
7EFE00
7EFE00
FC7F00
FC7F00
FC7FC0
FC7FC0
FC7FC0
FC03C0
0003C0
0003C0
0007C0
0007C0
0007C0
ENDCHAR
STARTCHAR 052F
ENCODING 1327
SWIDTH 570 0
DWIDTH 19 0
BBX 18 26 1 -4
BITMAP
1E0000
1F0000
1F8000
1F8000
1FC000
1FE000
3FE000
3FF000
3FF000
3FF800
7FF800
7EFC00
7EFE00
7EFE00
7EFE00
FC7F00
FC7F00
FC7FC0
FC7FC0
FC7FC0
FC03C0
0003C0
0003C0
0007C0
0007C0
0007C0
ENDCHAR
STARTCHAR 058F
ENCODING 1423
SWIDTH 540 0
DWIDTH 18 0
BBX 17 23 1 0
BITMAP
0F8000
3FE000
7FE000
FFF000
FFF800
F8F800
F8F800
F0FC00
F0FC00
F0FC00
F7FF80
07FF80
07FF80
00FC00
00FC00
00FD00
07FF80
07FF80
07FF00
00F800
00F800
00F800
00F800
ENDCHAR
STARTCHAR 1E02
ENCODING 7682
SWIDTH 510 0
DWIDTH 17 0
BBX 16 27 1 0
BITMAP
1800
3C00
3800
1800
3F00
FFE0
FFF0
FFF0
FFF8
FDF8
FC78
FC78
7C78
7EF0
7FE0
7FF8
7FFC
7FFE
7E3E
7E3F
7F3F
3F7F
3FFE
3FFE
3FFC
3FF0
1E00
ENDCHAR
STARTCHAR 1E03
ENCODING 7683
SWIDTH 510 0
DWIDTH 17 0
BBX 16 27 1 0
BITMAP
1800
3C00
3800
1800
3F00
FFE0
FFF0
FFF0
FFF8
FDF8
FC78
FC78
7C78
7EF0
7FE0
7FF8
7FFC
7FFE
7E3E
7E3F
7F3F
3F7F
3FFE
3FFE
3FFC
3FF0
1E00
ENDCHAR
STARTCHAR 1E06
ENCODING 7686
SWIDTH 510 0
DWIDTH 17 0
BBX 16 27 1 -4
BITMAP
3F00
FFE0
FFF0
FFF0
FFF8
FDF8
FC78
FC78
7C78
7EF0
7FE0
7FF8
7FFC
7FFE
7E3E
7E3F
7F3F
3F7F
3FFE
3FFE
3FFC
3FF0
1E00
0000
0000
1FF8
1FF8
ENDCHAR
STARTCHAR 1E07
ENCODING 7687
SWIDTH 510 0
DWIDTH 17 0
BBX 16 27 1 -4
BITMAP
3F00
FFE0
FFF0
FFF0
FFF8
FDF8
FC78
FC78
7C78
7EF0
7FE0
7FF8
7FFC
7FFE
7E3E
7E3F
7F3F
3F7F
3FFE
3FFE
3FFC
3FF0
1E00
0000
0000
1FF8
1FF8
ENDCHAR
STARTCHAR 1E08
ENCODING 7688
SWIDTH 480 0
DWIDTH 16 0
BBX 15 35 1 -6
BITMAP
003C
007C
0078
00F0
00E0
0000
00C0
07F8
1FFC
3FFE
7FFE
FFFE
FFFC
FF00
FE00
FC00
FC00
FC00
FE00
FFFC
FFFE
FFFE
FFFE
7FFC
7FFE
3FFC
3FF8
0FF0
07C0
0780
03C0
01E0
3FE0
3FE0
0200
ENDCHAR
STARTCHAR 1E09
ENCODING 7689
SWIDTH 480 0
DWIDTH 16 0
BBX 15 35 1 -6
BITMAP
003C
007C
0078
00F0
00E0
0000
00C0
07F8
1FFC
3FFE
7FFE
FFFE
FFFC
FF00
FE00
FC00
FC00
FC00
FE00
FFFC
FFFE
FFFE
FFFE
7FFC
7FFE
3FFC
3FF8
0FF0
07C0
0780
03C0
01E0
3FE0
3FE0
0200
ENDCHAR
STARTCHAR 1E0A
ENCODING 7690
SWIDTH 450 0
DWIDTH 15 0
BBX 14 27 1 0
BITMAP
3000
7800
7000
3000
7C00
FF00
FFC0
FFE0
FFF0
FFF0
FDF8
FC78
FC3C
FC7C
FC7C
FC7C
FCF8
FDF8
7FF0
7FF0
7FE0
7FE0
3FC0
3F80
3F00
3C00
1000
ENDCHAR
STARTCHAR 1E0B
ENCODING 7691
SWIDTH 450 0
DWIDTH 15 0
BBX 14 27 1 0
BITMAP
3000
7800
7000
3000
7C00
FF00
FFC0
FFE0
FFF0
FFF0
FDF8
FC78
FC3C
FC7C
FC7C
FC7C
FCF8
FDF8
7FF0
7FF0
7FE0
7FE0
3FC0
3F80
3F00
3C00
1000
ENDCHAR
STARTCHAR 1E0C
ENCODING 7692
SWIDTH 450 0
DWIDTH 15 0
BBX 14 28 1 -5
BITMAP
7C00
FF00
FFC0
FFE0
FFF0
FFF0
FDF8
FC78
FC3C
FC7C
FC7C
FC7C
FCF8
FDF8
7FF0
7FF0
7FE0
7FE0
3FC0
3F80
3F00
3C00
1000
0000
0000
0E00
0E00
0E00
ENDCHAR
STARTCHAR 1E0D
ENCODING 7693
SWIDTH 450 0
DWIDTH 15 0
BBX 14 28 1 -5
BITMAP
7C00
FF00
FFC0
FFE0
FFF0
FFF0
FDF8
FC78
FC3C
FC7C
FC7C
FC7C
FCF8
FDF8
7FF0
7FF0
7FE0
7FE0
3FC0
3F80
3F00
3C00
1000
0000
0000
0E00
0E00
0E00
ENDCHAR
STARTCHAR 1E0E
ENCODING 7694
SWIDTH 450 0
DWIDTH 15 0
BBX 14 27 1 -4
BITMAP
7C00
FF00
FFC0
FFE0
FFF0
FFF0
FDF8
FC78
FC3C
FC7C
FC7C
FC7C
FCF8
FDF8
7FF0
7FF0
7FE0
7FE0
3FC0
3F80
3F00
3C00
1000
0000
0000
3FF0
3FF0
ENDCHAR
STARTCHAR 1E0F
ENCODING 7695
SWIDTH 450 0
DWIDTH 15 0
BBX 14 27 1 -4
BITMAP
7C00
FF00
FFC0
FFE0
FFF0
FFF0
FDF8
FC78
FC3C
FC7C
FC7C
FC7C
FCF8
FDF8
7FF0
7FF0
7FE0
7FE0
3FC0
3F80
3F00
3C00
1000
0000
0000
3FF0
3FF0
ENDCHAR
STARTCHAR 1E10
ENCODING 7696
SWIDTH 450 0
DWIDTH 15 0
BBX 14 29 1 -6
BITMAP
7C00
FF00
FFC0
FFE0
FFF0
FFF0
FDF8
FC78
FC3C
FC7C
FC7C
FC7C
FCF8
FDF8
7FF0
7FF0
7FE0
7FE0
3FC0
3F80
3F00
3F00
1F00
0780
07C0
01E0
3FE0
3FE0
0600
ENDCHAR
STARTCHAR 1E11
ENCODING 7697
SWIDTH 450 0
DWIDTH 15 0
BBX 14 29 1 -6
BITMAP
7C00
FF00
FFC0
FFE0
FFF0
FFF0
FDF8
FC78
FC3C
FC7C
FC7C
FC7C
FCF8
FDF8
7FF0
7FF0
7FE0
7FE0
3FC0
3F80
3F00
3F00
1F00
0780
07C0
01E0
3FE0
3FE0
0600
ENDCHAR
STARTCHAR 1E1C
ENCODING 7708
SWIDTH 480 0
DWIDTH 16 0
BBX 15 35 1 -6
BITMAP
C380
E780
FF80
7F00
3E00
0000
7FE0
FFF0
FFE0
FFE0
FFE0
7FE0
7FE0
7C00
7E00
7EE0
7FE0
3FE0
3FE0
3E00
3FEC
3FFC
3FFC
1FFC
1FFE
1FFE
1FFE
1FE0
1FE0
01E0
00F8
003C
07FC
07F8
0080
ENDCHAR
STARTCHAR 1E1D
ENCODING 7709
SWIDTH 480 0
DWIDTH 16 0
BBX 15 35 1 -6
BITMAP
C380
E780
FF80
7F00
3E00
0000
7FE0
FFF0
FFE0
FFE0
FFE0
7FE0
7FE0
7C00
7E00
7EE0
7FE0
3FE0
3FE0
3E00
3FEC
3FFC
3FFC
1FFC
1FFE
1FFE
1FFE
1FE0
1FE0
01E0
00F8
003C
07FC
07F8
0080
ENDCHAR
STARTCHAR 1E1E
ENCODING 7710
SWIDTH 480 0
DWIDTH 16 0
BBX 15 27 1 0
BITMAP
0F00
0F00
0700
0000
3FFE
FFFE
FFFE
FFFE
FFFE
FC00
FC00
FC00
FD80
FF80
FF80
FF80
FF80
FC00
F800
F800
F800
F800
FC00
FC00
FC00
FC00
F800
ENDCHAR
STARTCHAR 1E1F
ENCODING 7711
SWIDTH 480 0
DWIDTH 16 0
BBX 15 27 1 0
BITMAP
0F00
0F00
0700
0000
3FFE
FFFE
FFFE
FFFE
FFFE
FC00
FC00
FC00
FD80
FF80
FF80
FF80
FF80
FC00
F800
F800
F800
F800
FC00
FC00
FC00
FC00
F800
ENDCHAR
STARTCHAR 1E24
ENCODING 7716
SWIDTH 540 0
DWIDTH 18 0
BBX 17 28 1 -5
BITMAP
030000
3F8F80
7F0F80
3F9F80
3F9F80
3F1F80
3F1F80
7F1F80
7F1F80
7FFF80
7FFF80
7FFF80
7FFF00
7FFF80
7FFF80
7F3F80
7F3F80
7F3F80
FF3F80
FF3F00
FF3F00
FE3F00
080000
000000
000000
01C000
01C000
01C000
ENDCHAR
STARTCHAR 1E25
ENCODING 7717
SWIDTH 540 0
DWIDTH 18 0
BBX 17 28 1 -5
BITMAP
030000
3F8F80
7F0F80
3F9F80
3F9F80
3F1F80
3F1F80
7F1F80
7F1F80
7FFF80
7FFF80
7FFF80
7FFF00
7FFF80
7FFF80
7F3F80
7F3F80
7F3F80
FF3F80
FF3F00
FF3F00
FE3F00
080000
000000
000000
01C000
01C000
01C000
ENDCHAR
STARTCHAR 1E28
ENCODING 7720
SWIDTH 540 0
DWIDTH 18 0
BBX 17 29 1 -6
BITMAP
030000
3F8F80
7F0F80
3F9F80
3F9F80
3F1F80
3F1F80
7F1F80
7F1F80
7FFF80
7FFF80
7FFF80
7FFF00
7FFF80
7FFF80
7F3F80
7F3F80
7F3F80
FF3F80
FF3F00
FF3F00
FE3F00
3C0000
3C0000
1F0000
070000
FF8000
FF0000
100000
ENDCHAR
STARTCHAR 1E29
ENCODING 7721
SWIDTH 540 0
DWIDTH 18 0
BBX 17 29 1 -6
BITMAP
030000
3F8F80
7F0F80
3F9F80
3F9F80
3F1F80
3F1F80
7F1F80
7F1F80
7FFF80
7FFF80
7FFF80
7FFF00
7FFF80
7FFF80
7F3F80
7F3F80
7F3F80
FF3F80
FF3F00
FF3F00
FE3F00
3C0000
3C0000
1F0000
070000
FF8000
FF0000
100000
ENDCHAR
STARTCHAR 1E2A
ENCODING 7722
SWIDTH 540 0
DWIDTH 18 0
BBX 17 28 1 -5
BITMAP
030000
3F8F80
7F0F80
3F9F80
3F9F80
3F1F80
3F1F80
7F1F80
7F1F80
7FFF80
7FFF80
7FFF80
7FFF00
7FFF80
7FFF80
7F3F80
7F3F80
7F3F80
FF3F80
FF3F00
FF3F00
FE3F00
080000
0C1C00
0E3800
0FF800
07F000
03E000
ENDCHAR
STARTCHAR 1E2B
ENCODING 7723
SWIDTH 540 0
DWIDTH 18 0
BBX 17 28 1 -5
BITMAP
030000
3F8F80
7F0F80
3F9F80
3F9F80
3F1F80
3F1F80
7F1F80
7F1F80
7FFF80
7FFF80
7FFF80
7FFF00
7FFF80
7FFF80
7F3F80
7F3F80
7F3F80
FF3F80
FF3F00
FF3F00
FE3F00
080000
0C1C00
0E3800
0FF800
07F000
03E000
ENDCHAR
STARTCHAR 1E30
ENCODING 7728
SWIDTH 540 0
DWIDTH 18 0
BBX 17 29 1 0
BITMAP
001E00
003E00
003C00
007800
007000
000000
098C00
FF9E00
FF9F80
FF3F00
FF3F00
FF7E00
FF7C00
FFF800
FFF800
FFF000
FFF000
FFE000
FFE000
FFF000
FFF800
FFFC00
FFFC00
FF7E00
FF3F00
FF1F00
FF1F80
FF0E80
DF0C00
ENDCHAR
STARTCHAR 1E31
ENCODING 7729
SWIDTH 540 0
DWIDTH 18 0
BBX 17 29 1 0
BITMAP
001E00
003E00
003C00
007800
007000
000000
098C00
FF9E00
FF9F80
FF3F00
FF3F00
FF7E00
FF7C00
FFF800
FFF800
FFF000
FFF000
FFE000
FFE000
FFF000
FFF800
FFFC00
FFFC00
FF7E00
FF3F00
FF1F00
FF1F80
FF0E80
DF0C00
ENDCHAR
STARTCHAR 1E34
ENCODING 7732
SWIDTH 540 0
DWIDTH 18 0
BBX 17 27 1 -4
BITMAP
098C00
FF9E00
FF9F80
FF3F00
FF3F00
FF7E00
FF7C00
FFF800
FFF800
FFF000
FFF000
FFE000
FFE000
FFF000
FFF800
FFFC00
FFFC00
FF7E00
FF3F00
FF1F00
FF1F80
FF0E80
DF0C00
000000
000000
1FF800
1FF000
ENDCHAR
STARTCHAR 1E35
ENCODING 7733
SWIDTH 540 0
DWIDTH 18 0
BBX 17 27 1 -4
BITMAP
098C00
FF9E00
FF9F80
FF3F00
FF3F00
FF7E00
FF7C00
FFF800
FFF800
FFF000
FFF000
FFE000
FFE000
FFF000
FFF800
FFFC00
FFFC00
FF7E00
FF3F00
FF1F00
FF1F80
FF0E80
DF0C00
000000
000000
1FF800
1FF000
ENDCHAR
STARTCHAR 1E36
ENCODING 7734
SWIDTH 510 0
DWIDTH 17 0
BBX 15 28 1 -5
BITMAP
03C0
1FE0
3FE0
3FE0
3FE0
3FC0
3FC0
3FC0
3FC0
3FC0
3FC0
7F80
7F80
7F80
7F80
7F80
7FFE
FFFE
7FFE
FFFE
FFFE
FFFE
FFF8
0000
0000
0380
0780
0380
ENDCHAR
STARTCHAR 1E37
ENCODING 7735
SWIDTH 510 0
DWIDTH 17 0
BBX 15 28 1 -5
BITMAP
03C0
1FE0
3FE0
3FE0
3FE0
3FC0
3FC0
3FC0
3FC0
3FC0
3FC0
7F80
7F80
7F80
7F80
7F80
7FFE
FFFE
7FFE
FFFE
FFFE
FFFE
FFF8
0000
0000
0380
0780
0380
ENDCHAR
STARTCHAR 1E3A
ENCODING 7738
SWIDTH 510 0
DWIDTH 17 0
BBX 15 27 1 -4
BITMAP
03C0
1FE0
3FE0
3FE0
3FE0
3FC0
3FC0
3FC0
3FC0
3FC0
3FC0
7F80
7F80
7F80
7F80
7F80
7FFE
FFFE
7FFE
FFFE
FFFE
FFFE
FFF8
0000
0000
1FF8
1FF0
ENDCHAR
STARTCHAR 1E3B
ENCODING 7739
SWIDTH 510 0
DWIDTH 17 0
BBX 15 27 1 -4
BITMAP
03C0
1FE0
3FE0
3FE0
3FE0
3FC0
3FC0
3FC0
3FC0
3FC0
3FC0
7F80
7F80
7F80
7F80
7F80
7FFE
FFFE
7FFE
FFFE
FFFE
FFFE
FFF8
0000
0000
1FF8
1FF0
ENDCHAR
STARTCHAR 1E3E
ENCODING 7742
SWIDTH 630 0
DWIDTH 21 0
BBX 20 29 1 0
BITMAP
000F00
001F00
003E00
003C00
003800
000000
100000
180180
1C03C0
3C03C0
3E07C0
3F07C0
3F0FC0
3F9FC0
7F9FE0
7FFFE0
7FFFE0
7FFFE0
7FFFE0
7F7FE0
7F3FE0
7E0FE0
FE0FE0
FE0FF0
FC0FF0
FC0FF0
FC0FF0
F80FF0
F80000
ENDCHAR
STARTCHAR 1E3F
ENCODING 7743
SWIDTH 630 0
DWIDTH 21 0
BBX 20 29 1 0
BITMAP
000F00
001F00
003E00
003C00
003800
000000
100000
180180
1C03C0
3C03C0
3E07C0
3F07C0
3F0FC0
3F9FC0
7F9FE0
7FFFE0
7FFFE0
7FFFE0
7FFFE0
7F7FE0
7F3FE0
7E0FE0
FE0FE0
FE0FF0
FC0FF0
FC0FF0
FC0FF0
F80FF0
F80000
ENDCHAR
STARTCHAR 1E40
ENCODING 7744
SWIDTH 630 0
DWIDTH 21 0
BBX 20 27 1 0
BITMAP
007000
007000
007000
002000
100000
180180
1C03C0
3C03C0
3E07C0
3F07C0
3F0FC0
3F9FC0
7F9FE0
7FFFE0
7FFFE0
7FFFE0
7FFFE0
7F7FE0
7F3FE0
7E0FE0
FE0FE0
FE0FF0
FC0FF0
FC0FF0
FC0FF0
F80FF0
F80000
ENDCHAR
STARTCHAR 1E41
ENCODING 7745
SWIDTH 630 0
DWIDTH 21 0
BBX 20 27 1 0
BITMAP
007000
007000
007000
002000
100000
180180
1C03C0
3C03C0
3E07C0
3F07C0
3F0FC0
3F9FC0
7F9FE0
7FFFE0
7FFFE0
7FFFE0
7FFFE0
7F7FE0
7F3FE0
7E0FE0
FE0FE0
FE0FF0
FC0FF0
FC0FF0
FC0FF0
F80FF0
F80000
ENDCHAR
STARTCHAR 1E44
ENCODING 7748
SWIDTH 540 0
DWIDTH 18 0
BBX 17 27 1 0
BITMAP
006000
00F000
00E000
000000
000000
3F0F80
3F9F80
7F1F80
7F1F80
7F1F80
7F9F80
7F9F80
7F9F80
7FDF80
FFDF00
FFDF00
FFFF00
FFFF00
FFFF00
FEFF00
FEFF00
FEFF00
FC7F00
FC7F00
FC7F00
FC7F00
E00800
ENDCHAR
STARTCHAR 1E45
ENCODING 7749
SWIDTH 540 0
DWIDTH 18 0
BBX 17 27 1 0
BITMAP
006000
00F000
00E000
000000
000000
3F0F80
3F9F80
7F1F80
7F1F80
7F1F80
7F9F80
7F9F80
7F9F80
7FDF80
FFDF00
FFDF00
FFFF00
FFFF00
FFFF00
FEFF00
FEFF00
FEFF00
FC7F00
FC7F00
FC7F00
FC7F00
E00800
ENDCHAR
STARTCHAR 1E48
ENCODING 7752
SWIDTH 540 0
DWIDTH 18 0
BBX 17 26 1 -4
BITMAP
3F0F80
3F9F80
7F1F80
7F1F80
7F1F80
7F9F80
7F9F80
7F9F80
7FDF80
FFDF00
FFDF00
FFFF00
FFFF00
FFFF00
FEFF00
FEFF00
FEFF00
FC7F00
FC7F00
FC7F00
FC7F00
E00800
000000
000000
0FF800
0FF800
ENDCHAR
STARTCHAR 1E49
ENCODING 7753
SWIDTH 540 0
DWIDTH 18 0
BBX 17 26 1 -4
BITMAP
3F0F80
3F9F80
7F1F80
7F1F80
7F1F80
7F9F80
7F9F80
7F9F80
7FDF80
FFDF00
FFDF00
FFFF00
FFFF00
FFFF00
FEFF00
FEFF00
FEFF00
FC7F00
FC7F00
FC7F00
FC7F00
E00800
000000
000000
0FF800
0FF800
ENDCHAR
STARTCHAR 1E54
ENCODING 7764
SWIDTH 480 0
DWIDTH 16 0
BBX 15 29 1 0
BITMAP
01E0
03E0
07C0
0780
0700
0000
0F00
7FF0
7FF8
7FF8
7FFC
7CFC
7C3C
7E3E
FE3E
FE3E
FFFE
FFFE
FFFC
FFF0
FF00
FF00
FF00
FF00
FF00
FF00
FF00
FF00
FF00
ENDCHAR
STARTCHAR 1E55
ENCODING 7765
SWIDTH 480 0
DWIDTH 16 0
BBX 15 29 1 0
BITMAP
01E0
03E0
07C0
0780
0700
0000
0F00
7FF0
7FF8
7FF8
7FFC
7CFC
7C3C
7E3E
FE3E
FE3E
FFFE
FFFE
FFFC
FFF0
FF00
FF00
FF00
FF00
FF00
FF00
FF00
FF00
FF00
ENDCHAR
STARTCHAR 1E56
ENCODING 7766
SWIDTH 480 0
DWIDTH 16 0
BBX 15 27 1 0
BITMAP
0380
0380
0380
0100
0F00
7FF0
7FF8
7FF8
7FFC
7CFC
7C3C
7E3E
FE3E
FE3E
FFFE
FFFE
FFFC
FFF0
FF00
FF00
FF00
FF00
FF00
FF00
FF00
FF00
FF00
ENDCHAR
STARTCHAR 1E57
ENCODING 7767
SWIDTH 480 0
DWIDTH 16 0
BBX 15 27 1 0
BITMAP
0380
0380
0380
0100
0F00
7FF0
7FF8
7FF8
7FFC
7CFC
7C3C
7E3E
FE3E
FE3E
FFFE
FFFE
FFFC
FFF0
FF00
FF00
FF00
FF00
FF00
FF00
FF00
FF00
FF00
ENDCHAR
STARTCHAR 1E5A
ENCODING 7770
SWIDTH 570 0
DWIDTH 19 0
BBX 18 28 1 -5
BITMAP
078000
7FF000
FFF800
FFFC00
FE1E00
FE1E00
FE1E00
FE1E00
FF1E00
FF7E00
FFFE00
FFFC00
FFF000
FFF800
FFFC00
FF7C00
7FBE00
FFBE00
7F9F00
7F9F80
7F8F80
7F8FC0
3F8F80
380000
000000
007000
007800
007000
ENDCHAR
STARTCHAR 1E5B
ENCODING 7771
SWIDTH 570 0
DWIDTH 19 0
BBX 18 28 1 -5
BITMAP
078000
7FF000
FFF800
FFFC00
FE1E00
FE1E00
FE1E00
FE1E00
FF1E00
FF7E00
FFFE00
FFFC00
FFF000
FFF800
FFFC00
FF7C00
7FBE00
FFBE00
7F9F00
7F9F80
7F8F80
7F8FC0
3F8F80
380000
000000
007000
007800
007000
ENDCHAR
STARTCHAR 1E5E
ENCODING 7774
SWIDTH 570 0
DWIDTH 19 0
BBX 18 27 1 -4
BITMAP
078000
7FF000
FFF800
FFFC00
FE1E00
FE1E00
FE1E00
FE1E00
FF1E00
FF7E00
FFFE00
FFFC00
FFF000
FFF800
FFFC00
FF7C00
7FBE00
FFBE00
7F9F00
7F9F80
7F8F80
7F8FC0
3F8F80
380000
000000
07FC00
07FC00
ENDCHAR
STARTCHAR 1E5F
ENCODING 7775
SWIDTH 570 0
DWIDTH 19 0
BBX 18 27 1 -4
BITMAP
078000
7FF000
FFF800
FFFC00
FE1E00
FE1E00
FE1E00
FE1E00
FF1E00
FF7E00
FFFE00
FFFC00
FFF000
FFF800
FFFC00
FF7C00
7FBE00
FFBE00
7F9F00
7F9F80
7F8F80
7F8FC0
3F8F80
380000
000000
07FC00
07FC00
ENDCHAR
STARTCHAR 1E60
ENCODING 7776
SWIDTH 480 0
DWIDTH 16 0
BBX 15 27 1 0
BITMAP
0180
03C0
03C0
0180
07FC
1FFE
3FFE
3FFC
3FFC
7FF8
7FF8
7FF0
7EF0
7E00
7F80
3FE0
3FF8
07FC
00FC
007C
C0FE
FFFE
FFFC
FFFC
FFFC
7FF0
1FC0
ENDCHAR
STARTCHAR 1E61
ENCODING 7777
SWIDTH 480 0
DWIDTH 16 0
BBX 15 27 1 0
BITMAP
0180
03C0
03C0
0180
07FC
1FFE
3FFE
3FFC
3FFC
7FF8
7FF8
7FF0
7EF0
7E00
7F80
3FE0
3FF8
07FC
00FC
007C
C0FE
FFFE
FFFC
FFFC
FFFC
7FF0
1FC0
ENDCHAR
STARTCHAR 1E62
ENCODING 7778
SWIDTH 480 0
DWIDTH 16 0
BBX 15 28 1 -5
BITMAP
07FC
1FFE
3FFE
3FFC
3FFC
7FF8
7FF8
7FF0
7EF0
7E00
7F80
3FE0
3FF8
07FC
00FC
007C
C0FE
FFFE
FFFC
FFFC
FFFC
7FF0
1FC0
0000
0000
0700
0700
0700
ENDCHAR
STARTCHAR 1E63
ENCODING 7779
SWIDTH 480 0
DWIDTH 16 0
BBX 15 28 1 -5
BITMAP
07FC
1FFE
3FFE
3FFC
3FFC
7FF8
7FF8
7FF0
7EF0
7E00
7F80
3FE0
3FF8
07FC
00FC
007C
C0FE
FFFE
FFFC
FFFC
FFFC
7FF0
1FC0
0000
0000
0700
0700
0700
ENDCHAR
STARTCHAR 1E6A
ENCODING 7786
SWIDTH 570 0
DWIDTH 19 0
BBX 18 27 1 0
BITMAP
00E000
00E000
00E000
004000
000400
FFFF80
FFFF80
FFFF80
FFFFC0
FFFFC0
FFFFC0
F9F800
83F000
03E000
03E000
03E000
03E000
03E000
03E000
03E000
03E000
03E000
03E000
03E000
03E000
03E000
03E000
ENDCHAR
STARTCHAR 1E6B
ENCODING 7787
SWIDTH 570 0
DWIDTH 19 0
BBX 18 27 1 0
BITMAP
00E000
00E000
00E000
004000
000400
FFFF80
FFFF80
FFFF80
FFFFC0
FFFFC0
FFFFC0
F9F800
83F000
03E000
03E000
03E000
03E000
03E000
03E000
03E000
03E000
03E000
03E000
03E000
03E000
03E000
03E000
ENDCHAR
STARTCHAR 1E6C
ENCODING 7788
SWIDTH 570 0
DWIDTH 19 0
BBX 18 28 1 -5
BITMAP
000400
FFFF80
FFFF80
FFFF80
FFFFC0
FFFFC0
FFFFC0
F9F800
83F000
03E000
03E000
03E000
03E000
03E000
03E000
03E000
03E000
03E000
03E000
03E000
03E000
03E000
03E000
000000
000000
01C000
01E000
01C000
ENDCHAR
STARTCHAR 1E6D
ENCODING 7789
SWIDTH 570 0
DWIDTH 19 0
BBX 18 28 1 -5
BITMAP
000400
FFFF80
FFFF80
FFFF80
FFFFC0
FFFFC0
FFFFC0
F9F800
83F000
03E000
03E000
03E000
03E000
03E000
03E000
03E000
03E000
03E000
03E000
03E000
03E000
03E000
03E000
000000
000000
01C000
01E000
01C000
ENDCHAR
STARTCHAR 1E6E
ENCODING 7790
SWIDTH 570 0
DWIDTH 19 0
BBX 18 27 1 -4
BITMAP
000400
FFFF80
FFFF80
FFFF80
FFFFC0
FFFFC0
FFFFC0
F9F800
83F000
03E000
03E000
03E000
03E000
03E000
03E000
03E000
03E000
03E000
03E000
03E000
03E000
03E000
03E000
000000
040000
0FFC00
0FFC00
ENDCHAR
STARTCHAR 1E6F
ENCODING 7791
SWIDTH 570 0
DWIDTH 19 0
BBX 18 27 1 -4
BITMAP
000400
FFFF80
FFFF80
FFFF80
FFFFC0
FFFFC0
FFFFC0
F9F800
83F000
03E000
03E000
03E000
03E000
03E000
03E000
03E000
03E000
03E000
03E000
03E000
03E000
03E000
03E000
000000
040000
0FFC00
0FFC00
ENDCHAR
STARTCHAR 1E7C
ENCODING 7804
SWIDTH 570 0
DWIDTH 19 0
BBX 18 27 1 1
BITMAP
03DE00
07FE00
07FC00
077800
000000
000000
C00FC0
FC1FC0
7F1FC0
7F9FC0
7F9FC0
3F9FC0
3F9F80
3F9F80
1FDF80
1FDF80
0FFF00
0FFF00
07FF00
07FF00
03FE00
01FE00
01FE00
00FE00
007E00
003E00
003E00
ENDCHAR
STARTCHAR 1E7D
ENCODING 7805
SWIDTH 570 0
DWIDTH 19 0
BBX 18 27 1 1
BITMAP
03DE00
07FE00
07FC00
077800
000000
000000
C00FC0
FC1FC0
7F1FC0
7F9FC0
7F9FC0
3F9FC0
3F9F80
3F9F80
1FDF80
1FDF80
0FFF00
0FFF00
07FF00
07FF00
03FE00
01FE00
01FE00
00FE00
007E00
003E00
003E00
ENDCHAR
STARTCHAR 1E80
ENCODING 7808
SWIDTH 720 0
DWIDTH 24 0
BBX 23 29 1 0
BITMAP
03C000
03C000
01E000
00F000
00F000
000000
000064
FC107E
FC387C
FC38FC
FE38FC
FE3CF8
FF3DF8
7F3DF8
7F3FF8
7FFFF8
3FFFF8
3FFFF0
1FFFF0
1FFFF0
0FF7F0
0FF7F0
07E7F0
07E3E0
03C3E0
03C3E0
01C3E0
01C1C0
008000
ENDCHAR
STARTCHAR 1E81
ENCODING 7809
SWIDTH 720 0
DWIDTH 24 0
BBX 23 29 1 0
BITMAP
03C000
03C000
01E000
00F000
00F000
000000
000064
FC107E
FC387C
FC38FC
FE38FC
FE3CF8
FF3DF8
7F3DF8
7F3FF8
7FFFF8
3FFFF8
3FFFF0
1FFFF0
1FFFF0
0FF7F0
0FF7F0
07E7F0
07E3E0
03C3E0
03C3E0
01C3E0
01C1C0
008000
ENDCHAR
STARTCHAR 1E82
ENCODING 7810
SWIDTH 720 0
DWIDTH 24 0
BBX 23 29 1 0
BITMAP
000F00
001F00
001E00
003C00
003800
000000
000064
FC107E
FC387C
FC38FC
FE38FC
FE3CF8
FF3DF8
7F3DF8
7F3FF8
7FFFF8
3FFFF8
3FFFF0
1FFFF0
1FFFF0
0FF7F0
0FF7F0
07E7F0
07E3E0
03C3E0
03C3E0
01C3E0
01C1C0
008000
ENDCHAR
STARTCHAR 1E83
ENCODING 7811
SWIDTH 720 0
DWIDTH 24 0
BBX 23 29 1 0
BITMAP
000F00
001F00
001E00
003C00
003800
000000
000064
FC107E
FC387C
FC38FC
FE38FC
FE3CF8
FF3DF8
7F3DF8
7F3FF8
7FFFF8
3FFFF8
3FFFF0
1FFFF0
1FFFF0
0FF7F0
0FF7F0
07E7F0
07E3E0
03C3E0
03C3E0
01C3E0
01C1C0
008000
ENDCHAR
STARTCHAR 1E84
ENCODING 7812
SWIDTH 720 0
DWIDTH 24 0
BBX 23 27 1 0
BITMAP
01CE00
03CF00
03CE00
008000
000064
FC107E
FC387C
FC38FC
FE38FC
FE3CF8
FF3DF8
7F3DF8
7F3FF8
7FFFF8
3FFFF8
3FFFF0
1FFFF0
1FFFF0
0FF7F0
0FF7F0
07E7F0
07E3E0
03C3E0
03C3E0
01C3E0
01C1C0
008000
ENDCHAR
STARTCHAR 1E85
ENCODING 7813
SWIDTH 720 0
DWIDTH 24 0
BBX 23 27 1 0
BITMAP
01CE00
03CF00
03CE00
008000
000064
FC107E
FC387C
FC38FC
FE38FC
FE3CF8
FF3DF8
7F3DF8
7F3FF8
7FFFF8
3FFFF8
3FFFF0
1FFFF0
1FFFF0
0FF7F0
0FF7F0
07E7F0
07E3E0
03C3E0
03C3E0
01C3E0
01C1C0
008000
ENDCHAR
STARTCHAR 1E90
ENCODING 7824
SWIDTH 600 0
DWIDTH 20 0
BBX 18 29 1 0
BITMAP
018000
07C000
0FF000
1FF800
1E7800
000000
03FC00
3FFE00
7FFE00
FFFC00
FFF800
FFF800
81F000
01F000
01F000
03E000
03E000
03E000
07C000
07C000
0FC000
0FC000
0F8000
1FFFC0
1FFFC0
1FFFC0
1FFF80
03FF00
007800
ENDCHAR
STARTCHAR 1E91
ENCODING 7825
SWIDTH 600 0
DWIDTH 20 0
BBX 18 29 1 0
BITMAP
018000
07C000
0FF000
1FF800
1E7800
000000
03FC00
3FFE00
7FFE00
FFFC00
FFF800
FFF800
81F000
01F000
01F000
03E000
03E000
03E000
07C000
07C000
0FC000
0FC000
0F8000
1FFFC0
1FFFC0
1FFFC0
1FFF80
03FF00
007800
ENDCHAR
STARTCHAR 1E92
ENCODING 7826
SWIDTH 600 0
DWIDTH 20 0
BBX 18 28 1 -5
BITMAP
03FC00
3FFE00
7FFE00
FFFC00
FFF800
FFF800
81F000
01F000
01F000
03E000
03E000
03E000
07C000
07C000
0FC000
0FC000
0F8000
1FFFC0
1FFFC0
1FFFC0
1FFF80
03FF00
007800
000000
000000
00E000
00F000
00E000
ENDCHAR
STARTCHAR 1E93
ENCODING 7827
SWIDTH 600 0
DWIDTH 20 0
BBX 18 28 1 -5
BITMAP
03FC00
3FFE00
7FFE00
FFFC00
FFF800
FFF800
81F000
01F000
01F000
03E000
03E000
03E000
07C000
07C000
0FC000
0FC000
0F8000
1FFFC0
1FFFC0
1FFFC0
1FFF80
03FF00
007800
000000
000000
00E000
00F000
00E000
ENDCHAR
STARTCHAR 1E94
ENCODING 7828
SWIDTH 600 0
DWIDTH 20 0
BBX 18 27 1 -4
BITMAP
03FC00
3FFE00
7FFE00
FFFC00
FFF800
FFF800
81F000
01F000
01F000
03E000
03E000
03E000
07C000
07C000
0FC000
0FC000
0F8000
1FFFC0
1FFFC0
1FFFC0
1FFF80
03FF00
007800
000000
000000
07FE00
07FE00
ENDCHAR
STARTCHAR 1E95
ENCODING 7829
SWIDTH 600 0
DWIDTH 20 0
BBX 18 27 1 -4
BITMAP
03FC00
3FFE00
7FFE00
FFFC00
FFF800
FFF800
81F000
01F000
01F000
03E000
03E000
03E000
07C000
07C000
0FC000
0FC000
0F8000
1FFFC0
1FFFC0
1FFFC0
1FFF80
03FF00
007800
000000
000000
07FE00
07FE00
ENDCHAR
STARTCHAR 1E96
ENCODING 7830
SWIDTH 540 0
DWIDTH 18 0
BBX 17 27 1 -4
BITMAP
030000
3F8F80
7F0F80
3F9F80
3F9F80
3F1F80
3F1F80
7F1F80
7F1F80
7FFF80
7FFF80
7FFF80
7FFF00
7FFF80
7FFF80
7F3F80
7F3F80
7F3F80
FF3F80
FF3F00
FF3F00
FE3F00
080000
000000
000000
0FF800
0FF800
ENDCHAR
STARTCHAR 1E9B
ENCODING 7835
SWIDTH 420 0
DWIDTH 14 0
BBX 13 32 1 -5
BITMAP
0E00
0E00
0E00
0000
1FE0
3FF0
7FF8
FFF8
FCF8
F860
F800
F800
F800
F800
F800
F800
F800
F800
FC00
FC00
FC00
7C00
7C00
7C00
7C00
7C00
7C00
7C00
7C00
7C00
7C00
3800
ENDCHAR
STARTCHAR 1E9C
ENCODING 7836
SWIDTH 450 0
DWIDTH 15 0
BBX 15 28 0 -5
BITMAP
07F8
0FFC
1FFE
3FFE
3F3E
3F08
3E00
3E00
3E00
3E30
3E78
3EF8
3FF8
3FF8
3FF0
FFC0
FF00
FF00
FF00
7F00
1F00
1F00
1F00
1F00
1F00
1F00
1F00
0E00
ENDCHAR
STARTCHAR 1E9D
ENCODING 7837
SWIDTH 450 0
DWIDTH 15 0
BBX 15 28 0 -5
BITMAP
07F8
0FFC
1FFE
3FFE
3F3E
3F08
3E00
FFF0
FFF0
FFF0
FFF0
3E00
3E00
3F00
3F00
3F00
3F00
1F00
1F00
1F00
1F00
1F00
1F00
1F00
1F00
1F00
1F00
0E00
ENDCHAR
STARTCHAR 1E9E
ENCODING 7838
SWIDTH 540 0
DWIDTH 18 0
BBX 17 25 1 -2
BITMAP
1F8000
3FE000
7FF000
FFF000
FFF800
F8F800
F0F800
F0F800
F8F000
F9F000
F9E000
F9FC00
F9FF00
F9FF00
F83F80
F81F80
F80F80
F80F80
F83F80
78FF80
78FF00
7CFE00
7CFC00
7C0000
780000
ENDCHAR
STARTCHAR 1EA0
ENCODING 7840
SWIDTH 630 0
DWIDTH 21 0
BBX 19 28 1 -5
BITMAP
001000
00F000
00F800
00F800
01F800
01F800
01F800
03FC00
03FC00
07FC00
07FE00
07FE00
0F7E00
0E7F00
1E3F00
1C3F00
3FFF80
3FFF80
3FBFC0
7C3FC0
7C3FC0
FC1FE0
FC1FE0
E00000
000000
01C000
01E000
01C000
ENDCHAR
STARTCHAR 1EA1
ENCODING 7841
SWIDTH 630 0
DWIDTH 21 0
BBX 19 28 1 -5
BITMAP
001000
00F000
00F800
00F800
01F800
01F800
01F800
03FC00
03FC00
07FC00
07FE00
07FE00
0F7E00
0E7F00
1E3F00
1C3F00
3FFF80
3FFF80
3FBFC0
7C3FC0
7C3FC0
FC1FE0
FC1FE0
E00000
000000
01C000
01E000
01C000
ENDCHAR
STARTCHAR 1EA2
ENCODING 7842
SWIDTH 630 0
DWIDTH 21 0
BBX 19 30 1 -1
BITMAP
00FC00
01FE00
001E00
00FC00
00F000
000000
001000
00F000
00F800
00F800
01F800
01F800
01F800
03FC00
03FC00
07FC00
07FE00
07FE00
0F7E00
0E7F00
1E3F00
1C3F00
3FFF80
3FFF80
3FBFC0
7C3FC0
7C3FC0
FC1FE0
FC1FE0
E00000
ENDCHAR
STARTCHAR 1EA3
ENCODING 7843
SWIDTH 630 0
DWIDTH 21 0
BBX 19 30 1 -1
BITMAP
00FC00
01FE00
001E00
00FC00
00F000
000000
001000
00F000
00F800
00F800
01F800
01F800
01F800
03FC00
03FC00
07FC00
07FE00
07FE00
0F7E00
0E7F00
1E3F00
1C3F00
3FFF80
3FFF80
3FBFC0
7C3FC0
7C3FC0
FC1FE0
FC1FE0
E00000
ENDCHAR
STARTCHAR 1EA4
ENCODING 7844
SWIDTH 630 0
DWIDTH 21 0
BBX 19 31 1 -1
BITMAP
0007C0
000780
000E00
002000
01F800
03FE00
070E00
001000
00F000
00F800
00F800
01F800
01F800
01F800
03FC00
03FC00
07FC00
07FE00
07FE00
0F7E00
0E7F00
1E3F00
1C3F00
3FFF80
3FFF80
3FBFC0
7C3FC0
7C3FC0
FC1FE0
FC1FE0
E00000
ENDCHAR
STARTCHAR 1EA5
ENCODING 7845
SWIDTH 630 0
DWIDTH 21 0
BBX 19 31 1 -1
BITMAP
0007C0
000780
000E00
002000
01F800
03FE00
070E00
001000
00F000
00F800
00F800
01F800
01F800
01F800
03FC00
03FC00
07FC00
07FE00
07FE00
0F7E00
0E7F00
1E3F00
1C3F00
3FFF80
3FFF80
3FBFC0
7C3FC0
7C3FC0
FC1FE0
FC1FE0
E00000
ENDCHAR
STARTCHAR 1EA6
ENCODING 7846
SWIDTH 630 0
DWIDTH 21 0
BBX 19 31 1 -1
BITMAP
3E0000
1F0000
070000
002000
01F800
03FE00
070E00
001000
00F000
00F800
00F800
01F800
01F800
01F800
03FC00
03FC00
07FC00
07FE00
07FE00
0F7E00
0E7F00
1E3F00
1C3F00
3FFF80
3FFF80
3FBFC0
7C3FC0
7C3FC0
FC1FE0
FC1FE0
E00000
ENDCHAR
STARTCHAR 1EA7
ENCODING 7847
SWIDTH 630 0
DWIDTH 21 0
BBX 19 31 1 -1
BITMAP
3E0000
1F0000
070000
002000
01F800
03FE00
070E00
001000
00F000
00F800
00F800
01F800
01F800
01F800
03FC00
03FC00
07FC00
07FE00
07FE00
0F7E00
0E7F00
1E3F00
1C3F00
3FFF80
3FFF80
3FBFC0
7C3FC0
7C3FC0
FC1FE0
FC1FE0
E00000
ENDCHAR
STARTCHAR 1EA8
ENCODING 7848
SWIDTH 630 0
DWIDTH 21 0
BBX 19 31 1 -1
BITMAP
003FC0
0003C0
001F00
002000
01F800
03FE00
070E00
001000
00F000
00F800
00F800
01F800
01F800
01F800
03FC00
03FC00
07FC00
07FE00
07FE00
0F7E00
0E7F00
1E3F00
1C3F00
3FFF80
3FFF80
3FBFC0
7C3FC0
7C3FC0
FC1FE0
FC1FE0
E00000
ENDCHAR
STARTCHAR 1EA9
ENCODING 7849
SWIDTH 630 0
DWIDTH 21 0
BBX 19 31 1 -1
BITMAP
003FC0
0003C0
001F00
002000
01F800
03FE00
070E00
001000
00F000
00F800
00F800
01F800
01F800
01F800
03FC00
03FC00
07FC00
07FE00
07FE00
0F7E00
0E7F00
1E3F00
1C3F00
3FFF80
3FFF80
3FBFC0
7C3FC0
7C3FC0
FC1FE0
FC1FE0
E00000
ENDCHAR
STARTCHAR 1EAA
ENCODING 7850
SWIDTH 630 0
DWIDTH 21 0
BBX 19 31 1 -1
BITMAP
03CE00
07FE00
077C00
002000
01F800
03FE00
070E00
001000
00F000
00F800
00F800
01F800
01F800
01F800
03FC00
03FC00
07FC00
07FE00
07FE00
0F7E00
0E7F00
1E3F00
1C3F00
3FFF80
3FFF80
3FBFC0
7C3FC0
7C3FC0
FC1FE0
FC1FE0
E00000
ENDCHAR
STARTCHAR 1EAB
ENCODING 7851
SWIDTH 630 0
DWIDTH 21 0
BBX 19 31 1 -1
BITMAP
03CE00
07FE00
077C00
002000
01F800
03FE00
070E00
001000
00F000
00F800
00F800
01F800
01F800
01F800
03FC00
03FC00
07FC00
07FE00
07FE00
0F7E00
0E7F00
1E3F00
1C3F00
3FFF80
3FFF80
3FBFC0
7C3FC0
7C3FC0
FC1FE0
FC1FE0
E00000
ENDCHAR
STARTCHAR 1EAC
ENCODING 7852
SWIDTH 630 0
DWIDTH 21 0
BBX 19 34 1 -5
BITMAP
006000
00F800
03FC00
07FE00
079E00
000000
001000
00F000
00F800
00F800
01F800
01F800
01F800
03FC00
03FC00
07FC00
07FE00
07FE00
0F7E00
0E7F00
1E3F00
1C3F00
3FFF80
3FFF80
3FBFC0
7C3FC0
7C3FC0
FC1FE0
FC1FE0
E00000
000000
01C000
01E000
01C000
ENDCHAR
STARTCHAR 1EAD
ENCODING 7853
SWIDTH 630 0
DWIDTH 21 0
BBX 19 34 1 -5
BITMAP
006000
00F800
03FC00
07FE00
079E00
000000
001000
00F000
00F800
00F800
01F800
01F800
01F800
03FC00
03FC00
07FC00
07FE00
07FE00
0F7E00
0E7F00
1E3F00
1C3F00
3FFF80
3FFF80
3FBFC0
7C3FC0
7C3FC0
FC1FE0
FC1FE0
E00000
000000
01C000
01E000
01C000
ENDCHAR
STARTCHAR 1EAE
ENCODING 7854
SWIDTH 630 0
DWIDTH 21 0
BBX 19 31 1 -1
BITMAP
003E00
007800
007000
070E00
079E00
03FC00
00F000
001000
00F000
00F800
00F800
01F800
01F800
01F800
03FC00
03FC00
07FC00
07FE00
07FE00
0F7E00
0E7F00
1E3F00
1C3F00
3FFF80
3FFF80
3FBFC0
7C3FC0
7C3FC0
FC1FE0
FC1FE0
E00000
ENDCHAR
STARTCHAR 1EAF
ENCODING 7855
SWIDTH 630 0
DWIDTH 21 0
BBX 19 31 1 -1
BITMAP
003E00
007800
007000
070E00
079E00
03FC00
00F000
001000
00F000
00F800
00F800
01F800
01F800
01F800
03FC00
03FC00
07FC00
07FE00
07FE00
0F7E00
0E7F00
1E3F00
1C3F00
3FFF80
3FFF80
3FBFC0
7C3FC0
7C3FC0
FC1FE0
FC1FE0
E00000
ENDCHAR
STARTCHAR 1EB0
ENCODING 7856
SWIDTH 630 0
DWIDTH 21 0
BBX 19 31 1 -1
BITMAP
07C000
01E000
00F000
070E00
079E00
03FC00
00F000
001000
00F000
00F800
00F800
01F800
01F800
01F800
03FC00
03FC00
07FC00
07FE00
07FE00
0F7E00
0E7F00
1E3F00
1C3F00
3FFF80
3FFF80
3FBFC0
7C3FC0
7C3FC0
FC1FE0
FC1FE0
E00000
ENDCHAR
STARTCHAR 1EB1
ENCODING 7857
SWIDTH 630 0
DWIDTH 21 0
BBX 19 31 1 -1
BITMAP
07C000
01E000
00F000
070E00
079E00
03FC00
00F000
001000
00F000
00F800
00F800
01F800
01F800
01F800
03FC00
03FC00
07FC00
07FE00
07FE00
0F7E00
0E7F00
1E3F00
1C3F00
3FFF80
3FFF80
3FBFC0
7C3FC0
7C3FC0
FC1FE0
FC1FE0
E00000
ENDCHAR
STARTCHAR 1EB2
ENCODING 7858
SWIDTH 630 0
DWIDTH 21 0
BBX 19 31 1 -1
BITMAP
01FE00
003E00
00F000
070E00
079E00
03FC00
00F000
001000
00F000
00F800
00F800
01F800
01F800
01F800
03FC00
03FC00
07FC00
07FE00
07FE00
0F7E00
0E7F00
1E3F00
1C3F00
3FFF80
3FFF80
3FBFC0
7C3FC0
7C3FC0
FC1FE0
FC1FE0
E00000
ENDCHAR
STARTCHAR 1EB3
ENCODING 7859
SWIDTH 630 0
DWIDTH 21 0
BBX 19 31 1 -1
BITMAP
01FE00
003E00
00F000
070E00
079E00
03FC00
00F000
001000
00F000
00F800
00F800
01F800
01F800
01F800
03FC00
03FC00
07FC00
07FE00
07FE00
0F7E00
0E7F00
1E3F00
1C3F00
3FFF80
3FFF80
3FBFC0
7C3FC0
7C3FC0
FC1FE0
FC1FE0
E00000
ENDCHAR
STARTCHAR 1EB4
ENCODING 7860
SWIDTH 630 0
DWIDTH 21 0
BBX 19 31 1 -1
BITMAP
03CE00
07FE00
077C00
070E00
079E00
03FC00
00F000
001000
00F000
00F800
00F800
01F800
01F800
01F800
03FC00
03FC00
07FC00
07FE00
07FE00
0F7E00
0E7F00
1E3F00
1C3F00
3FFF80
3FFF80
3FBFC0
7C3FC0
7C3FC0
FC1FE0
FC1FE0
E00000
ENDCHAR
ENDFONT
